<?xml version="1.0" encoding="UTF-8"?>
<svg version="1.1" xmlns="http://www.w3.org/2000/svg" width="512" height="512">
<path d="M0 0 C1.19424339 -0.01285538 1.19424339 -0.01285538 2.41261292 -0.02597046 C4.08924573 -0.03740846 5.76597774 -0.03849335 7.44262695 -0.02978516 C9.9940881 -0.02346183 12.54090819 -0.07042524 15.09179688 -0.12109375 C16.72785878 -0.12564056 18.36393305 -0.12704634 20 -0.125 C20.75437851 -0.14341949 21.50875702 -0.16183899 22.28599548 -0.18081665 C27.54515833 -0.08993178 30.2817229 1.38284521 34.14100647 4.92398071 C37.46321375 8.83395355 37.88815687 12.29740611 38.19140625 17.3515625 C38.30355469 19.10726563 38.30355469 19.10726563 38.41796875 20.8984375 C38.46695312 21.79046875 38.5159375 22.6825 38.56640625 23.6015625 C40.14365972 24.30289849 41.72851958 24.9871455 43.31640625 25.6640625 C44.198125 26.04691406 45.07984375 26.42976563 45.98828125 26.82421875 C48.82820589 27.68049906 49.87493959 27.76822647 52.56640625 26.6015625 C54.02267726 25.48472308 55.43710342 24.31217361 56.81640625 23.1015625 C61.29821803 19.53665165 63.8230967 18.41923521 69.56640625 18.6015625 C77.26222293 20.447547 81.62136855 24.97540793 87.03222656 30.58032227 C88.44682004 32.04466669 89.87955481 33.48916119 91.31640625 34.93164062 C100.83841803 44.6232039 100.83841803 44.6232039 100.94140625 51.9765625 C100.84076145 57.02893127 99.92806697 59.69476761 96.56640625 63.6015625 C95.64945051 64.7263269 94.73278232 65.85132578 93.81640625 66.9765625 C93.07390625 67.8428125 92.33140625 68.7090625 91.56640625 69.6015625 C93.21640625 73.5615625 94.86640625 77.5215625 96.56640625 81.6015625 C97.49582031 81.60414062 98.42523438 81.60671875 99.3828125 81.609375 C111.39634778 81.98518945 111.39634778 81.98518945 116.33203125 86.93359375 C119.57850746 91.32044609 119.87389498 95.10574833 119.8671875 100.47265625 C119.87147263 101.23199966 119.87575775 101.99134308 119.88017273 102.7736969 C119.88590458 104.37654627 119.88642473 105.97942166 119.88208008 107.58227539 C119.87892143 110.02730942 119.90238731 112.47113119 119.92773438 114.91601562 C119.93000772 116.47656098 119.9307107 118.03710957 119.9296875 119.59765625 C119.93889725 120.32488388 119.94810699 121.05211151 119.95759583 121.80137634 C119.91713025 126.26734298 119.28294099 129.04128897 116.56640625 132.6015625 C109.78997652 139.08336485 104.47891003 138.75731499 95.56640625 138.6015625 C95.46328125 139.2615625 95.36015625 139.9215625 95.25390625 140.6015625 C94.37427061 144.43997259 92.99670729 147.93252941 91.56640625 151.6015625 C92.04851562 152.06046875 92.530625 152.519375 93.02734375 152.9921875 C93.97480469 153.91257813 93.97480469 153.91257813 94.94140625 154.8515625 C95.56789063 155.45484375 96.194375 156.058125 96.83984375 156.6796875 C100.07928406 160.28558033 100.87386986 163.15446411 100.94140625 167.9765625 C100.96976562 168.89179688 100.998125 169.80703125 101.02734375 170.75 C99.74228738 178.69992501 92.10460343 184.43055407 86.69140625 189.8515625 C85.80582031 190.76164063 84.92023438 191.67171875 84.0078125 192.609375 C83.14285156 193.47820312 82.27789062 194.34703125 81.38671875 195.2421875 C80.60570801 196.03141602 79.82469727 196.82064453 79.02001953 197.63378906 C75.18136786 200.71234951 71.09691353 202.03922858 66.19140625 201.6015625 C59.99950115 200.75292576 55.85440478 196.88956103 51.56640625 192.6015625 C50.57640625 192.9315625 49.58640625 193.2615625 48.56640625 193.6015625 C52.66598666 197.81644361 56.87981856 201.81274172 61.33203125 205.65234375 C64.9028268 208.76742588 68.38525362 211.97898333 71.8828125 215.17578125 C74.22645833 217.29427333 76.60264932 219.36159149 79.00390625 221.4140625 C87.26654042 228.59307251 87.26654042 228.59307251 87.8046875 233.9921875 C87.96277533 240.08272928 87.83131566 243.8755818 83.56640625 248.6015625 C78.48045144 253.0820465 75.68384338 253.81749909 69.0546875 253.76953125 C66.23866682 253.5794388 64.05740265 252.93009391 61.56640625 251.6015625 C61.33566406 252.13265625 61.10492188 252.66375 60.8671875 253.2109375 C58.76209282 257.77058921 56.94004725 260.83926292 52.56640625 263.6015625 C51.90640625 263.6015625 51.24640625 263.6015625 50.56640625 263.6015625 C50.6128125 264.24222656 50.65921875 264.88289063 50.70703125 265.54296875 C50.97180456 271.88807199 50.32760198 275.44335121 46.56640625 280.6015625 C45.57640625 281.2615625 44.58640625 281.9215625 43.56640625 282.6015625 C43.101428 285.03265181 43.101428 285.03265181 43.16526794 287.92008972 C43.15247299 289.04863373 43.13967804 290.17717773 43.12649536 291.33992004 C43.12785492 292.58408188 43.12921448 293.82824371 43.13061523 295.11010742 C43.1205394 296.41588745 43.11046356 297.72166748 43.1000824 299.0670166 C43.07352507 302.65613859 43.0665463 306.24504616 43.06463504 309.83425689 C43.06178857 312.8310264 43.05075384 315.82774583 43.04011875 318.82449609 C43.01566754 325.89840398 43.00836726 332.9721973 43.01049805 340.04614258 C43.01229795 347.33764977 42.98069698 354.62848931 42.93326706 361.91982764 C42.89398977 368.18152848 42.8779486 374.44301172 42.87986428 380.70483476 C42.8806282 384.44383923 42.87213535 388.18225146 42.84033012 391.92113304 C42.8057844 396.09656393 42.81955666 400.2705103 42.83764648 404.44604492 C42.82078796 405.6800856 42.80392944 406.91412628 42.78656006 408.18556213 C42.84650311 415.57752334 42.84650311 415.57752334 46.56117249 421.7257843 C47.1020453 422.22001042 47.64291811 422.71423655 48.20018101 423.22343922 C50.40104924 425.44347414 50.37888845 427.76924467 50.56640625 430.7890625 C51.03558478 435.64884814 51.03558478 435.64884814 54.50390625 439.0390625 C55.51453125 439.5546875 56.52515625 440.0703125 57.56640625 440.6015625 C60.97389257 444.71404599 61.52733626 449.38571864 61.56640625 454.6015625 C61.23640625 455.5915625 60.90640625 456.5815625 60.56640625 457.6015625 C61.55640625 457.5190625 62.54640625 457.4365625 63.56640625 457.3515625 C68.20694708 457.36097536 71.75849244 459.03535972 75.56640625 461.6015625 C79.42786644 465.66104629 80.70931587 468.74079893 80.62890625 474.2890625 C80.61988281 475.09730469 80.61085938 475.90554688 80.6015625 476.73828125 C80.58416016 477.66060547 80.58416016 477.66060547 80.56640625 478.6015625 C81.13488281 478.67632812 81.70335937 478.75109375 82.2890625 478.828125 C88.40531753 479.86962419 92.47580684 481.86507898 96.56640625 486.6015625 C99.67070609 491.4604666 99.16154484 497.05189511 98.56640625 502.6015625 C96.25758895 507.57439977 93.29565102 509.93673087 88.56640625 512.6015625 C85.88285666 512.97832738 83.61811793 513.1411381 80.94479465 513.10492706 C80.1937076 513.11074083 79.44262054 513.11655459 78.66877326 513.12254453 C76.14950681 513.13715389 73.63121324 513.12325542 71.11195374 513.10949707 C69.28859742 513.11410563 67.46524482 513.12045824 65.6419 513.12840605 C60.62937387 513.1451288 55.61715173 513.13683956 50.60462439 513.12446117 C45.19961637 513.11542502 39.79466127 513.12937333 34.3896637 513.14038086 C23.80017495 513.15818635 13.21079947 513.15431694 2.62130625 513.1427303 C-5.98405016 513.13370376 -14.58937479 513.1324686 -23.19473457 513.13682556 C-25.03054808 513.13774496 -25.03054808 513.13774496 -26.90344872 513.13868293 C-29.38959341 513.13996181 -31.87573808 513.14125866 -34.36188275 513.1425733 C-57.68602879 513.15398517 -81.01011199 513.14085611 -104.33424772 513.11937183 C-124.35364621 513.10150255 -144.37293615 513.10460241 -164.39233398 513.12304688 C-187.63038157 513.14444671 -210.86837405 513.15288411 -234.10643011 513.14059782 C-236.58383245 513.1393236 -239.0612348 513.13806612 -241.53863716 513.13682556 C-242.75761899 513.13620846 -243.97660082 513.13559136 -245.23252149 513.13495556 C-253.82845344 513.13149983 -262.42435048 513.13733585 -271.02027702 513.14674377 C-281.49463291 513.15795536 -291.96886888 513.15494143 -302.44321101 513.1336208 C-307.78886544 513.1230988 -313.13431983 513.11900822 -318.47997284 513.13221741 C-323.37214135 513.14412329 -328.2639241 513.13760838 -333.15605754 513.1163072 C-334.92718499 513.11183348 -336.69834493 513.11412464 -338.46945154 513.12381035 C-340.87547916 513.13596043 -343.28018263 513.12351433 -345.68614101 513.10492706 C-346.37515752 513.11429173 -347.06417402 513.12365639 -347.77406982 513.13330483 C-353.12262112 513.0506192 -356.11696488 511.54452606 -360.43359375 508.6015625 C-364.40383193 503.61331454 -365.07679405 499.52360313 -364.81640625 493.1875 C-364.06141298 488.0874434 -361.52977898 485.54479165 -357.74609375 482.2890625 C-353.62232303 480.18827364 -350.00686104 479.80481882 -345.43359375 479.6015625 C-345.76359375 478.9415625 -346.09359375 478.2815625 -346.43359375 477.6015625 C-347.02652881 471.67221188 -345.84608363 467.40200698 -342.43359375 462.6015625 C-337.04770712 458.31483641 -333.2236704 457.47344785 -326.43359375 457.6015625 C-326.48 456.88871094 -326.52640625 456.17585938 -326.57421875 455.44140625 C-326.82299732 448.83988912 -326.50984042 444.88966629 -322.43359375 439.6015625 C-318.36907762 436.6015625 -318.36907762 436.6015625 -315.43359375 436.6015625 C-315.48580078 435.73144531 -315.48580078 435.73144531 -315.5390625 434.84375 C-315.72054728 429.6066178 -315.35140853 426.14038549 -312.43359375 421.6015625 C-311.65088057 420.94908743 -311.65088057 420.94908743 -310.852355 420.28343105 C-308.8287134 417.88450794 -309.05345486 416.17737362 -309.0459137 413.06666565 C-309.03600906 411.91558319 -309.02610443 410.76450073 -309.01589966 409.57853699 C-309.02040131 408.31455582 -309.02490295 407.05057465 -309.02954102 405.74829102 C-309.02383919 404.40459626 -309.01687565 403.06090636 -309.00874329 401.71722412 C-308.99077524 398.06635355 -308.99198707 394.41572283 -308.99768567 390.76482129 C-309.00077246 387.71801769 -308.99469074 384.6712605 -308.98864692 381.6244635 C-308.97459119 374.43702181 -308.9761715 367.24969895 -308.98754883 360.06225586 C-308.99903001 352.6452743 -308.98495702 345.22865433 -308.95815235 337.81172043 C-308.93600599 331.44559447 -308.92935558 325.07958209 -308.93522877 318.71342033 C-308.93860228 314.91040163 -308.93615751 311.10761471 -308.91897774 307.30462837 C-308.90352747 303.72827004 -308.90744204 300.15244784 -308.92628288 296.57611084 C-308.93173512 294.63743766 -308.91743987 292.69874053 -308.90258789 290.76011658 C-308.91242203 289.60621429 -308.92225616 288.45231201 -308.93238831 287.26344299 C-308.93259759 286.26074151 -308.93280687 285.25804003 -308.9330225 284.22495365 C-309.5682336 280.89594267 -310.92000744 279.79100513 -313.43359375 277.6015625 C-315.99279568 273.12295913 -315.62983755 268.60577935 -315.43359375 263.6015625 C-316.34431641 263.42173828 -316.34431641 263.42173828 -317.2734375 263.23828125 C-321.76669688 261.91386664 -324.08916868 258.231029 -326.24609375 254.2890625 C-326.83390625 252.95875 -326.83390625 252.95875 -327.43359375 251.6015625 C-328.05234375 251.9315625 -328.67109375 252.2615625 -329.30859375 252.6015625 C-335.0478463 254.43812331 -340.37441754 254.63115061 -345.80859375 251.9140625 C-349.86299882 248.3423247 -353.08409111 245.13019491 -353.63671875 239.55078125 C-353.76039849 233.58323387 -353.04724309 229.56784707 -348.95703125 224.92578125 C-345.36522952 221.22737353 -341.49418435 217.84341142 -337.59375 214.4765625 C-333.48688633 210.91183454 -329.46952799 207.24613342 -325.43359375 203.6015625 C-315.94487334 195.03296043 -315.94487334 195.03296043 -311.49609375 191.1640625 C-307.30056154 187.51098294 -303.19985822 183.75650701 -299.08984375 180.0078125 C-296.26636706 177.45007479 -293.40303373 174.94386281 -290.52734375 172.4453125 C-287.96940348 170.19279793 -285.45180395 167.89839158 -282.93359375 165.6015625 C-279.14425249 162.14580837 -275.32275677 158.7363336 -271.453125 155.37109375 C-267.40694286 151.82579296 -263.42616188 148.20697251 -259.43359375 144.6015625 C-249.94487334 136.03296043 -249.94487334 136.03296043 -245.49609375 132.1640625 C-241.30056154 128.51098294 -237.19985822 124.75650701 -233.08984375 121.0078125 C-230.26636706 118.45007479 -227.40303373 115.94386281 -224.52734375 113.4453125 C-221.96940348 111.19279793 -219.45180395 108.89839158 -216.93359375 106.6015625 C-213.17008854 103.16891489 -209.37230024 99.7860124 -205.52734375 96.4453125 C-202.96940348 94.19279793 -200.45180395 91.89839158 -197.93359375 89.6015625 C-194.17008854 86.16891489 -190.37230024 82.7860124 -186.52734375 79.4453125 C-183.96940348 77.19279793 -181.45180395 74.89839158 -178.93359375 72.6015625 C-175.14425249 69.14580837 -171.32275677 65.7363336 -167.453125 62.37109375 C-165.13738525 60.34202197 -162.84660894 58.28684367 -160.55859375 56.2265625 C-159.71941406 55.47246094 -158.88023437 54.71835937 -158.015625 53.94140625 C-156.2729605 52.36219894 -154.54137452 50.77069168 -152.8203125 49.16796875 C-141.26845939 38.49258401 -141.26845939 38.49258401 -132.49609375 37.9765625 C-126.01009107 38.24948836 -123.0127604 40.20197102 -118.43359375 44.6015625 C-117.40313884 45.54526383 -116.37039429 46.48646837 -115.3359375 47.42578125 C-113.05444747 49.50696632 -110.78916759 51.60393904 -108.53515625 53.71484375 C-105.56734245 56.48902688 -102.52947066 59.17052973 -99.45703125 61.828125 C-96.91858204 64.05294342 -94.42717599 66.32659569 -91.93359375 68.6015625 C-90.10072188 70.26873664 -88.26740874 71.93542581 -86.43359375 73.6015625 C-85.63824219 74.32601562 -84.84289062 75.05046875 -84.0234375 75.796875 C-83.31316406 76.43367188 -82.60289062 77.07046875 -81.87109375 77.7265625 C-81.25105469 78.28601563 -80.63101562 78.84546875 -79.9921875 79.421875 C-78.49359335 80.80273295 -78.49359335 80.80273295 -76.43359375 80.6015625 C-75.70633323 79.0268331 -75.00238953 77.44131971 -74.30859375 75.8515625 C-73.91414063 74.96984375 -73.5196875 74.088125 -73.11328125 73.1796875 C-72.19480028 70.65752354 -72.19480028 70.65752354 -73.16015625 68.45703125 C-74.55429082 66.35713533 -74.55429082 66.35713533 -76.93359375 63.6640625 C-80.11040158 59.7724729 -81.246598 57.25335827 -81.80859375 52.2890625 C-80.89445427 43.30002426 -75.26026198 37.85077077 -69.05859375 31.8515625 C-67.94484375 30.73974609 -67.94484375 30.73974609 -66.80859375 29.60546875 C-56.10940504 19.07640848 -56.10940504 19.07640848 -48.5078125 18.51171875 C-41.54308252 18.81339255 -37.28420639 22.21574575 -32.68359375 27.17578125 C-32.27109375 27.64628906 -31.85859375 28.11679687 -31.43359375 28.6015625 C-30.74652344 28.3128125 -30.05945313 28.0240625 -29.3515625 27.7265625 C-28.45050781 27.3553125 -27.54945313 26.9840625 -26.62109375 26.6015625 C-25.28111328 26.0446875 -25.28111328 26.0446875 -23.9140625 25.4765625 C-21.43359375 24.6015625 -21.43359375 24.6015625 -18.43359375 24.6015625 C-18.48 23.828125 -18.52640625 23.0546875 -18.57421875 22.2578125 C-18.80159029 15.69651952 -18.86470069 9.81462948 -14.43359375 4.6015625 C-9.5232434 0.6379378 -6.05986935 -0.01460336 0 0 Z " fill="#040404" transform="translate(378.43359375,-0.6015625)"/>
<path d="M0 0 C7.05083654 4.97706109 13.20608157 10.72609258 19.49609375 16.60498047 C25.22128924 22.05092245 25.22128924 22.05092245 31.68359375 26.5078125 C35.34959507 30.45200953 34.62679734 34.68383562 34.5625 39.875 C34.32998005 49.18784268 34.32998005 49.18784268 39 57 C42.87012049 60.08188226 45.70036373 60.24947393 50.5625 60.1875 C56.49721726 60.50901967 56.49721726 60.50901967 58.6640625 62.625 C59.71116896 64.73519928 60.39901329 66.72453999 61 69 C61.61875 70.7325 61.61875 70.7325 62.25 72.5 C62.4975 73.325 62.745 74.15 63 75 C62.51789063 75.45890625 62.03578125 75.9178125 61.5390625 76.390625 C60.90742188 77.00421875 60.27578125 77.6178125 59.625 78.25 C58.99851562 78.85328125 58.37203125 79.4565625 57.7265625 80.078125 C54.48712219 83.68401783 53.69253639 86.55290161 53.625 91.375 C53.59664062 92.29023438 53.56828125 93.20546875 53.5390625 94.1484375 C54.7690527 101.75769894 61.78010746 107.08013838 67 112.25 C68.21042969 113.47203125 68.21042969 113.47203125 69.4453125 114.71875 C70.22648438 115.49734375 71.00765625 116.2759375 71.8125 117.078125 C72.87404297 118.13628418 72.87404297 118.13628418 73.95703125 119.21582031 C78.28534128 122.99585015 81.86735972 123.43987093 87.47265625 123.31640625 C93.80163235 122.52406148 98.36299094 118.07152015 103 114 C107.29 115.65 111.58 117.3 116 119 C116.0825 121.18625 116.165 123.3725 116.25 125.625 C116.66944076 131.39813599 116.94642881 134.83382961 121 139 C125.18109978 142.17118372 128.66105316 142.32769789 133.72265625 142.125 C135.24672028 142.10827104 136.77081326 142.09403014 138.29492188 142.08203125 C140.67064907 142.04932992 143.04160057 142.00081959 145.41577148 141.90771484 C153.54775426 141.61658765 160.09290624 141.44448937 166.51573181 146.95581055 C168.84888279 149.20005656 170.96388669 151.4795963 173 154 C173 154.33 173 154.66 173 155 C59.15 155 -54.7 155 -172 155 C-165.28458943 147.16535433 -165.28458943 147.16535433 -162.3125 144.6875 C-158.98145323 141.85324415 -155.72813383 138.95130907 -152.5 136 C-148.73649479 132.56735239 -144.93870649 129.1844499 -141.09375 125.84375 C-138.53580973 123.59123543 -136.0182102 121.29682908 -133.5 119 C-129.73649479 115.56735239 -125.93870649 112.1844499 -122.09375 108.84375 C-119.53580973 106.59123543 -117.0182102 104.29682908 -114.5 102 C-110.73649479 98.56735239 -106.93870649 95.1844499 -103.09375 91.84375 C-100.53580973 89.59123543 -98.0182102 87.29682908 -95.5 85 C-91.73649479 81.56735239 -87.93870649 78.1844499 -84.09375 74.84375 C-81.53580973 72.59123543 -79.0182102 70.29682908 -76.5 68 C-72.71065874 64.54424587 -68.88916302 61.1347711 -65.01953125 57.76953125 C-60.97334911 54.22423046 -56.99256813 50.60541001 -53 47 C-43.51127959 38.43139793 -43.51127959 38.43139793 -39.0625 34.5625 C-34.86696779 30.90942044 -30.76626447 27.15494451 -26.65625 23.40625 C-23.83684072 20.85219688 -20.97817312 18.3490946 -18.10546875 15.85546875 C-14.56154822 12.73234769 -11.09129632 9.52818114 -7.61328125 6.33203125 C-5.14104349 4.12586392 -2.6073586 2.04360539 0 0 Z " fill="#C6D6E4" transform="translate(245,76)"/>
<path d="M0 0 C1.85423868 1.49527391 3.69026889 3.01365577 5.5 4.5625 C6.15355469 5.10390625 6.80710937 5.6453125 7.48046875 6.203125 C19.125505 16.75560636 26.55812437 33.08577087 27.5 48.5625 C27.57734375 49.81417969 27.6546875 51.06585938 27.734375 52.35546875 C28.48360373 70.34955031 22.47710854 87.25908728 10.375 100.8125 C1.41833249 110.32934717 -8.99463712 116.64118727 -21.5 120.5625 C-22.22058594 120.80742187 -22.94117188 121.05234375 -23.68359375 121.3046875 C-34.25323623 124.31281187 -48.05457994 123.69791769 -58.5 120.5625 C-59.36496094 120.30597656 -60.22992188 120.04945313 -61.12109375 119.78515625 C-78.84551847 113.92729673 -92.23970979 102.39708867 -100.9140625 86 C-107.99412969 70.65404156 -110.68029551 51.93594251 -105.9375 35.4375 C-101.71436343 24.22994526 -96.00664048 14.98219015 -87.5 6.5625 C-86.50419922 5.51642578 -86.50419922 5.51642578 -85.48828125 4.44921875 C-62.95225697 -17.65754792 -24.92490924 -18.30325416 0 0 Z " fill="#85CE46" transform="translate(428.5,54.4375)"/>
<path d="M0 0 C2.04139438 0.00316307 4.08134303 -0.02031744 6.12255859 -0.0456543 C8.05035156 -0.04662109 8.05035156 -0.04662109 10.01708984 -0.04760742 C11.19722656 -0.05058838 12.37736328 -0.05356934 13.59326172 -0.05664062 C16.54833984 0.31567383 16.54833984 0.31567383 18.42895508 1.63745117 C20.24118881 4.35441839 20.00632196 7.04009193 20.11083984 10.25317383 C20.08521133 16.18972778 20.08521133 16.18972778 22.54833984 21.31567383 C29.03763867 25.00669697 37.80228433 29.74640605 45.46240234 29.15942383 C49.45839249 27.54306826 52.27121382 24.37380726 55.18896484 21.28442383 C57.54833984 19.31567383 57.54833984 19.31567383 59.8918457 18.93017578 C63.51764935 19.45633551 64.82785895 20.94908214 67.41162109 23.51489258 C68.29785156 24.39467773 69.18408203 25.27446289 70.09716797 26.1809082 C71.46518555 27.57792969 71.46518555 27.57792969 72.86083984 29.00317383 C73.7921875 29.91518555 74.72353516 30.82719727 75.68310547 31.7668457 C77.0027832 33.09619141 77.0027832 33.09619141 78.34912109 34.45239258 C79.15518799 35.26409912 79.96125488 36.07580566 80.79174805 36.91210938 C82.54833984 39.31567383 82.54833984 39.31567383 82.91577148 41.98632812 C82.41107504 45.18586885 81.04621553 46.28735248 78.67333984 48.44067383 C74.06500138 52.48551804 74.06500138 52.48551804 72.27880859 58.16333008 C72.5683815 61.55007406 73.36672716 63.71646693 74.86083984 66.75317383 C76.40034611 69.93626567 77.88521363 73.08553034 79.17333984 76.37817383 C80.35331989 79.56007508 80.35331989 79.56007508 83.54833984 81.31567383 C86.74373206 81.59994859 89.89437075 81.73009445 93.09912109 81.79418945 C98.06353675 81.99492026 98.06353675 81.99492026 100.24023438 83.43505859 C102.17747568 86.22015934 101.937129 88.48194743 101.94677734 91.84692383 C101.95064453 93.13211914 101.95451172 94.41731445 101.95849609 95.74145508 C101.95221191 96.40999512 101.94592773 97.07853516 101.93945312 97.76733398 C101.92339339 99.80886713 101.93930656 101.8484209 101.95849609 103.88989258 C101.95462891 105.17508789 101.95076172 106.4602832 101.94677734 107.78442383 C101.94339355 108.96456055 101.94000977 110.14469727 101.93652344 111.3605957 C101.54833984 114.31567383 101.54833984 114.31567383 100.23803711 116.20068359 C97.45852976 118.03481307 94.33814002 117.7315141 91.11083984 117.75317383 C85.88346614 117.7163407 85.88346614 117.7163407 81.31396484 119.86254883 C78.97320867 123.11474989 77.33593252 126.46453668 75.73583984 130.12817383 C75.41164063 130.81459961 75.08744141 131.50102539 74.75341797 132.20825195 C72.66722481 136.9301067 72.10698759 140.17854657 73.54833984 145.31567383 C75.02790899 147.71593551 75.02790899 147.71593551 76.98583984 149.62817383 C77.91203125 150.61237305 77.91203125 150.61237305 78.85693359 151.61645508 C80.08586367 152.85106151 81.31656832 154.08390231 82.54833984 155.31567383 C83.101031 158.66141032 82.8090578 159.94996754 80.82348633 162.73510742 C78.23092774 165.40849423 75.62747645 168.06565129 72.98583984 170.69067383 C72.09058594 171.63040039 71.19533203 172.57012695 70.27294922 173.53833008 C69.39316406 174.42133789 68.51337891 175.3043457 67.60693359 176.21411133 C66.80570068 177.02541504 66.00446777 177.83671875 65.17895508 178.67260742 C62.54833984 180.31567383 62.54833984 180.31567383 58.86450195 180.1875 C55.10473035 179.19904794 54.0478372 178.24504049 51.67333984 175.25317383 C48.23443427 171.60118072 48.23443427 171.60118072 43.54833984 170.37817383 C36.26481965 171.04380309 28.90314118 174.88481577 22.54833984 178.31567383 C19.64680023 182.66798324 20.15714978 186.83250454 19.98974609 191.96801758 C19.5113328 195.59633788 19.14071597 196.80440411 16.54833984 199.31567383 C13.59326172 199.81738281 13.59326172 199.81738281 10.01708984 199.81176758 C8.08929688 199.81273437 8.08929688 199.81273437 6.12255859 199.8137207 C5.45401855 199.80332764 4.78547852 199.79293457 4.09667969 199.78222656 C2.05500011 199.75326829 0.01591769 199.76161708 -2.02587891 199.7746582 C-11.89161573 199.71033795 -11.89161573 199.71033795 -14.33666992 197.98730469 C-16.65318424 194.51430851 -15.88341992 189.8011608 -15.94775391 185.76098633 C-16.55650165 181.59885058 -17.3713448 180.16351255 -20.45166016 177.31567383 C-23.1259743 175.75273953 -25.88920066 174.58370008 -28.76416016 173.44067383 C-29.49828125 173.12098633 -30.23240234 172.80129883 -30.98876953 172.47192383 C-35.81538924 170.50187497 -39.27908725 169.79284823 -44.45166016 171.31567383 C-46.73584025 173.06342993 -46.73584025 173.06342993 -48.51416016 175.31567383 C-50.7431414 177.95463683 -51.94143009 179.15836062 -55.2722168 180.18530273 C-58.45166016 180.31567383 -58.45166016 180.31567383 -60.96875 178.67260742 C-62.17845459 177.45565186 -62.17845459 177.45565186 -63.41259766 176.21411133 C-64.29560547 175.33110352 -65.17861328 174.4480957 -66.08837891 173.53833008 C-66.99201172 172.59860352 -67.89564453 171.65887695 -68.82666016 170.69067383 C-69.75349609 169.77415039 -70.68033203 168.85762695 -71.63525391 167.91333008 C-78.34594777 161.08403779 -78.34594777 161.08403779 -78.8190918 157.64501953 C-78.31096359 154.42372302 -76.90023925 153.29619297 -74.51416016 151.12817383 C-70.24759934 147.19585297 -70.24759934 147.19585297 -69.01416016 141.56567383 C-69.08732606 134.06616894 -72.57132126 125.35022776 -77.71337891 119.93286133 C-81.15874544 117.89807995 -83.59694409 117.8165451 -87.57666016 117.75317383 C-93.96728472 117.63833174 -93.96728472 117.63833174 -96.12548828 116.20068359 C-98.08553159 113.4146942 -97.84041091 111.16279306 -97.85009766 107.78442383 C-97.85396484 106.49922852 -97.85783203 105.2140332 -97.86181641 103.88989258 C-97.85553223 103.22135254 -97.84924805 102.5528125 -97.84277344 101.86401367 C-97.8267137 99.82248053 -97.84262687 97.78292675 -97.86181641 95.74145508 C-97.85794922 94.45625977 -97.85408203 93.17106445 -97.85009766 91.84692383 C-97.84671387 90.66678711 -97.84333008 89.48665039 -97.83984375 88.27075195 C-97.45166016 85.31567383 -97.45166016 85.31567383 -96.11181641 83.43286133 C-93.53543178 81.69910603 -91.14036698 81.89980308 -88.07666016 81.81567383 C-83.30509003 81.68404431 -80.17526421 81.43849471 -76.45166016 78.31567383 C-74.87449057 75.87091329 -73.75457179 73.30959384 -72.63916016 70.62817383 C-72.32785156 69.94561523 -72.01654297 69.26305664 -71.69580078 68.55981445 C-69.56836487 63.60826582 -68.80947696 59.70099958 -69.45166016 54.31567383 C-71.07930621 51.94852448 -71.07930621 51.94852448 -73.38916016 50.25317383 C-76.36479098 47.85482588 -77.33594389 46.75611501 -78.32348633 42.99731445 C-78.45166016 39.31567383 -78.45166016 39.31567383 -76.80859375 36.68505859 C-75.59163818 35.48320923 -75.59163818 35.48320923 -74.35009766 34.25708008 C-73.46708984 33.37729492 -72.58408203 32.49750977 -71.67431641 31.59106445 C-70.73458984 30.69581055 -69.79486328 29.80055664 -68.82666016 28.87817383 C-67.91013672 27.95584961 -66.99361328 27.03352539 -66.04931641 26.08325195 C-59.23620465 19.42296687 -59.23620465 19.42296687 -55.78100586 18.95043945 C-52.55867789 19.45569075 -51.43242571 20.86682354 -49.26416016 23.25317383 C-45.39902861 27.5347179 -45.39902861 27.5347179 -39.81103516 28.54614258 C-35.35166919 28.48471048 -31.7836915 27.335281 -27.70166016 25.62817383 C-27.05583984 25.38389648 -26.41001953 25.13961914 -25.74462891 24.88793945 C-21.41921501 23.13379316 -18.77408707 21.3870889 -16.45166016 17.31567383 C-16.00422189 14.03099135 -15.89757002 10.8884525 -15.87548828 7.5793457 C-15.82821542 5.81974476 -15.64831756 4.06488967 -15.45166016 2.31567383 C-10.70257787 -0.85038103 -5.58680419 -0.01817832 0 0 Z M-46.45166016 52.31567383 C-47.14904297 52.99114258 -47.84642578 53.66661133 -48.56494141 54.36254883 C-52.77901682 58.71572965 -55.87450984 63.40388172 -58.76416016 68.69067383 C-59.25263428 69.57263428 -59.25263428 69.57263428 -59.75097656 70.47241211 C-64.40662556 79.41813392 -65.99742029 88.5562995 -65.88916016 98.56567383 C-65.88086182 99.56711426 -65.87256348 100.56855469 -65.86401367 101.6003418 C-65.44679753 120.06178511 -58.58684072 135.31475406 -45.45166016 148.31567383 C-44.78779297 149.01305664 -44.12392578 149.71043945 -43.43994141 150.42895508 C-30.48195662 163.1401211 -13.16053594 167.59975903 4.47265625 167.63256836 C23.71716226 167.31541577 39.98936904 158.34280527 53.17333984 144.75317383 C65.99682255 129.93240531 70.48910647 112.56219105 69.54833984 93.31567383 C69.51740234 92.03563477 69.51740234 92.03563477 69.48583984 90.72973633 C68.45599061 73.41539612 57.36028652 58.04054152 44.83349609 46.90161133 C17.37428136 24.86052353 -21.81722658 27.38443985 -46.45166016 52.31567383 Z " fill="#F9DA84" transform="translate(386.45166015625,9.684326171875)"/>
<path d="M0 0 C1.1165522 -0.01715309 1.1165522 -0.01715309 2.25566101 -0.03465271 C3.10026382 -0.05379227 3.94486664 -0.07293182 4.81506348 -0.09265137 C5.72962814 -0.09598984 6.64419281 -0.09932831 7.58647156 -0.10276794 C8.52621323 -0.11275314 9.4659549 -0.12273834 10.43417358 -0.13302612 C12.42556853 -0.14823313 14.41704009 -0.15525112 16.40849304 -0.1547699 C19.4515312 -0.16131511 22.49127936 -0.21572234 25.53373718 -0.27268982 C27.46797081 -0.28149495 29.40221995 -0.28744712 31.33647156 -0.29026794 C32.24496353 -0.31182449 33.15345551 -0.33338104 34.08947754 -0.35559082 C40.31680438 -0.28829159 40.31680438 -0.28829159 42.80970764 1.74833679 C44.14970398 3.3818512 44.14970398 3.3818512 46.16069031 6.40113831 C46.82069031 6.73113831 47.48069031 7.06113831 48.16069031 7.40113831 C48.27745045 25.19457034 48.36564243 42.98790306 48.41975117 60.78163528 C48.44554172 69.04344228 48.4807082 77.30501136 48.53788757 85.56666565 C48.58769686 92.76686852 48.61997514 99.9668991 48.63113278 107.16726947 C48.63765587 110.98052211 48.65300365 114.79328186 48.68934059 118.60637665 C48.72326163 122.19500475 48.73375156 125.78293663 48.72622871 129.37170982 C48.72826167 131.31764984 48.75517743 133.26351389 48.78279114 135.20925903 C48.77591782 136.3674968 48.76904449 137.52573456 48.76196289 138.71907043 C48.76657186 139.72566837 48.77118082 140.73226631 48.77592945 141.76936722 C47.93576698 145.36327913 46.1148521 146.32949513 43.16069031 148.40113831 C41.76879548 150.83695425 41.17758807 152.73850472 41.10600281 155.54566956 C41.03250282 158.00791927 40.90007078 160.04543772 40.16069031 162.40113831 C38.25909776 164.06289035 36.3266625 165.12929624 34.10209656 166.31520081 C31.20837715 167.93382052 30.31070929 169.28932224 29.16069031 172.40113831 C28.6404748 176.07906195 28.38450383 179.6858338 28.16069031 183.40113831 C22.22069031 183.40113831 16.28069031 183.40113831 10.16069031 183.40113831 C10.07819031 181.70988831 9.99569031 180.01863831 9.91069031 178.27613831 C9.44181426 173.27265283 8.61147078 170.22497612 5.16069031 166.40113831 C4.12944031 165.86488831 3.09819031 165.32863831 2.03569031 164.77613831 C-2.01676774 161.42845557 -1.74234146 158.30440512 -2.35102844 153.25660706 C-2.96127611 149.68787869 -4.17174813 147.82619427 -6.83930969 145.40113831 C-7.82930969 144.74113831 -8.81930969 144.08113831 -9.83930969 143.40113831 C-10.22521305 141.06066418 -10.22521305 141.06066418 -10.240448 138.06915283 C-10.25324295 136.93771851 -10.2660379 135.80628418 -10.27922058 134.64056396 C-10.27786102 133.39326004 -10.27650146 132.14595612 -10.27510071 130.8608551 C-10.28517654 129.55186249 -10.29525238 128.24286987 -10.30563354 126.89421082 C-10.33218767 123.296959 -10.33916937 119.69992112 -10.3410809 116.10258079 C-10.34392664 113.10065211 -10.35496009 110.09877349 -10.36559719 107.09686404 C-10.39004538 100.01344865 -10.39734876 92.93014768 -10.3952179 85.84669495 C-10.39341645 78.53924396 -10.42504909 71.23245806 -10.47244889 63.92517537 C-10.5116828 57.65331478 -10.52776924 51.38167142 -10.52585167 45.10968906 C-10.52508669 41.3629244 -10.53363837 37.61675014 -10.56538582 33.87010765 C-10.59984127 29.68947859 -10.58618582 25.51033677 -10.56806946 21.3296051 C-10.58492798 20.08837387 -10.6017865 18.84714264 -10.61915588 17.56829834 C-10.52837619 9.344871 -10.52837619 9.344871 -8.52514458 6.60128212 C-6.91876221 5.28060913 -6.91876221 5.28060913 -3.83930969 3.40113831 C-1.83930969 0.40113831 -1.83930969 0.40113831 0 0 Z " fill="#518FDA" transform="translate(293.8393096923828,273.59886169433594)"/>
<path d="M0 0 C1.08538055 -0.0216774 1.08538055 -0.0216774 2.19268799 -0.04379272 C3.01404236 -0.06615997 3.83539673 -0.08852722 4.68164062 -0.11157227 C5.57119446 -0.11804779 6.46074829 -0.12452332 7.3772583 -0.13119507 C8.29243225 -0.14355194 9.2076062 -0.15590881 10.1505127 -0.16864014 C12.09061269 -0.18823565 14.03081256 -0.19944362 15.9710083 -0.20297241 C18.93104902 -0.21701711 21.88682182 -0.28426404 24.8460083 -0.35385132 C26.7314062 -0.36625499 28.61682829 -0.37547188 30.5022583 -0.38119507 C31.38371521 -0.4079129 32.26517212 -0.43463074 33.17333984 -0.4621582 C36.46148599 -0.42606444 39.13850607 -0.29876913 41.931077 1.55086517 C47.42736957 7.28349917 47.04893617 13.17756534 46.96588135 20.79116821 C46.97238231 22.14369106 46.98144888 23.49620363 46.99287415 24.84869385 C47.01587181 28.50588434 47.00128858 32.16202574 46.97840476 35.81918192 C46.95943481 39.65254024 46.97065515 43.48583059 46.97731018 47.31921387 C46.98364189 53.75339351 46.96542418 60.18715454 46.93267822 66.62124634 C46.89515471 74.05544603 46.89697869 81.48885409 46.9197194 88.92309582 C46.94067758 96.08380793 46.93339145 103.24422798 46.91340065 110.40493393 C46.90542304 113.44875324 46.90739574 116.49232492 46.91742516 119.53613663 C46.92798697 123.12010807 46.91382105 126.70315799 46.88068199 130.28698349 C46.86857938 132.22657824 46.88098776 134.16627752 46.89413452 136.10586548 C46.78154423 144.49283919 46.78154423 144.49283919 45.06319618 147.22182846 C43.69056702 148.54455566 43.69056702 148.54455566 41.2053833 150.40786743 C40.68804752 153.35648929 40.68804752 153.35648929 40.8928833 156.40786743 C40.68327174 161.93214629 40.68327174 161.93214629 38.48272705 164.12271118 C37.05952757 164.93117114 35.61339948 165.70065279 34.14678955 166.42739868 C31.18798629 167.92168363 30.3500335 169.31057867 29.2053833 172.40786743 C28.68516779 176.08579108 28.42919683 179.69256293 28.2053833 183.40786743 C22.2653833 183.40786743 16.3253833 183.40786743 10.2053833 183.40786743 C10.1228833 181.71661743 10.0403833 180.02536743 9.9553833 178.28286743 C9.48650725 173.27938195 8.65616377 170.23170525 5.2053833 166.40786743 C4.1741333 165.87161743 3.1428833 165.33536743 2.0803833 164.78286743 C-1.97207475 161.43518469 -1.69764847 158.31113425 -2.30633545 153.26333618 C-2.91658312 149.69460782 -4.12705513 147.8329234 -6.7946167 145.40786743 C-7.7846167 144.74786743 -8.7746167 144.08786743 -9.7946167 143.40786743 C-10.18052006 141.0673933 -10.18052006 141.0673933 -10.195755 138.07588196 C-10.20854996 136.94444763 -10.22134491 135.81301331 -10.23452759 134.64729309 C-10.23316803 133.39998917 -10.23180847 132.15268524 -10.23040771 130.86758423 C-10.24048355 129.55859161 -10.25055939 128.249599 -10.26094055 126.90093994 C-10.28749467 123.30368813 -10.29447637 119.70665025 -10.29638791 116.10930991 C-10.29923365 113.10738124 -10.31026709 110.10550261 -10.3209042 107.10359317 C-10.34535238 100.02017778 -10.35265577 92.9368768 -10.3505249 85.85342407 C-10.34872345 78.54597309 -10.3803561 71.23918719 -10.42775589 63.93190449 C-10.46698981 57.66004391 -10.48307625 51.38840055 -10.48115867 45.11641818 C-10.4803937 41.36965352 -10.48894538 37.62347927 -10.52069283 33.87683678 C-10.55514827 29.69620772 -10.54149283 25.5170659 -10.52337646 21.33633423 C-10.54023499 20.095103 -10.55709351 18.85387177 -10.57446289 17.57502747 C-10.48368319 9.35160013 -10.48368319 9.35160013 -8.48045158 6.60801125 C-6.87406921 5.28733826 -6.87406921 5.28733826 -3.7946167 3.40786743 C-1.7946167 0.40786743 -1.7946167 0.40786743 0 0 Z " fill="#518FD9" transform="translate(158.79461669921875,273.5921325683594)"/>
<path d="M0 0 C19.14 0 38.28 0 58 0 C58 43.89 58 87.78 58 133 C38.86 133 19.72 133 0 133 C0 89.11 0 45.22 0 0 Z " fill="#C3D3E0" transform="translate(81,283)"/>
<path d="M0 0 C18.81 0 37.62 0 57 0 C57 43.89 57 87.78 57 133 C38.19 133 19.38 133 0 133 C0 89.11 0 45.22 0 0 Z " fill="#C6D5E3" transform="translate(353,283)"/>
<path d="M0 0 C18.81 0 37.62 0 57 0 C57 43.89 57 87.78 57 133 C38.19 133 19.38 133 0 133 C0 89.11 0 45.22 0 0 Z " fill="#C5D5E3" transform="translate(216,283)"/>
<path d="M0 0 C0.74038204 -0.00436032 1.48076409 -0.00872064 2.24358195 -0.0132131 C4.74431437 -0.02423091 7.2445025 -0.01371731 9.74523163 -0.00342751 C11.54822336 -0.0068815 13.35121299 -0.01164431 15.15419817 -0.01760924 C20.12417304 -0.03018445 25.09397608 -0.02391935 30.06395173 -0.01465058 C35.41780173 -0.00788701 40.77162135 -0.0183279 46.12546539 -0.02659035 C56.61975877 -0.03995874 67.11398794 -0.03703614 77.60828388 -0.02835242 C86.13412751 -0.02158848 94.6599531 -0.02065356 103.18579865 -0.02392387 C104.39735887 -0.02438357 105.60891909 -0.02484327 106.85719326 -0.0253169 C109.31814047 -0.02627604 111.77908768 -0.02724868 114.24003488 -0.02823468 C137.33846552 -0.03679767 160.4368605 -0.02694019 183.53528529 -0.01083358 C203.37233443 0.00257042 223.20933091 0.00024258 243.04637909 -0.01358986 C266.05985809 -0.02962963 289.0733058 -0.03597361 312.08678961 -0.02675307 C314.53889052 -0.02579738 316.99099143 -0.02485427 319.44309235 -0.02392387 C320.64970143 -0.02346105 321.85631052 -0.02299822 323.09948352 -0.02252137 C331.61910757 -0.01992666 340.13871184 -0.0243128 348.65833282 -0.03136253 C359.03514044 -0.03975995 369.41187995 -0.03753454 379.78867972 -0.0215203 C385.08720756 -0.01361383 390.38562168 -0.01058626 395.68414879 -0.02046776 C400.52867318 -0.02936619 405.37297776 -0.02456247 410.21748203 -0.0085351 C411.97584373 -0.00516661 413.73422376 -0.00692734 415.4925738 -0.01416247 C417.87161515 -0.02320535 420.24989055 -0.01401062 422.62889099 0 C423.32125137 -0.0070235 424.01361174 -0.014047 424.72695273 -0.02128333 C427.52566207 0.01195614 429.40853305 0.10767585 431.77135515 1.67846239 C432.8144455 3.37752342 432.8144455 3.37752342 432.6894455 6.94002342 C431.8144455 10.37752342 431.8144455 10.37752342 428.8144455 12.37752342 C425.65721995 12.63052309 425.65721995 12.63052309 421.66291904 12.63479233 C420.55786049 12.64005144 420.55786049 12.64005144 419.43047753 12.6454168 C416.94234991 12.65477917 414.45445388 12.64979512 411.96631622 12.64494896 C410.17228772 12.64868278 408.37826084 12.65328322 406.58423656 12.6586796 C401.63903393 12.67095804 396.6938987 12.67064347 391.74868429 12.66829085 C386.42140168 12.66788391 381.09414105 12.67891003 375.76686859 12.68840599 C365.32439423 12.70504308 354.88194244 12.71051674 344.43945593 12.71163075 C335.95509897 12.71257986 327.47074948 12.71668331 318.98639488 12.723032 C294.95255333 12.74065117 270.91872968 12.74986972 246.88488162 12.74837105 C245.58828565 12.74829114 244.29168968 12.74821122 242.95580292 12.74812889 C241.65763124 12.74804713 240.35945956 12.74796537 239.02194934 12.74788113 C217.97303473 12.74706786 196.9241916 12.76621419 175.87529767 12.79440562 C154.28290132 12.82309775 132.69053988 12.83694797 111.09812397 12.83521807 C98.96735074 12.83455294 86.83665248 12.84009921 74.70589638 12.86157417 C64.37924835 12.87973765 54.05270927 12.88417318 43.72605223 12.87055533 C38.45369081 12.86400139 33.18153868 12.86399551 27.90919685 12.88126183 C23.08739306 12.89689081 18.26596628 12.89423398 13.44417226 12.87669356 C11.69521012 12.87360109 9.94622054 12.87733967 8.19729073 12.88841371 C5.82833488 12.90242611 3.46072157 12.89203602 1.09181309 12.87530136 C-0.22646856 12.8757361 -1.54475021 12.87617083 -2.90297979 12.87661874 C-6.72089232 12.2961286 -7.91741305 11.4483979 -10.1855545 8.37752342 C-10.66497676 5.56947879 -10.69059634 4.14041584 -9.10730791 1.74877489 C-6.24037025 -0.29690509 -3.39278256 -0.03441734 0 0 Z " fill="#D8E4EF" transform="translate(34.18555450439453,489.6224765777588)"/>
<path d="M0 0 C0.67874634 -0.00290688 1.35749269 -0.00581376 2.0568071 -0.00880873 C4.35378834 -0.01616517 6.65050715 -0.00913939 8.94748688 -0.002285 C10.60183395 -0.00458721 12.25618 -0.00776211 13.91052389 -0.01173949 C18.47420262 -0.02012913 23.03779826 -0.01594342 27.60147738 -0.00976706 C32.51632436 -0.00526052 37.43115658 -0.01221735 42.34600067 -0.0177269 C51.98115282 -0.02664186 61.6162739 -0.02468956 71.25142729 -0.01890162 C79.07888331 -0.01439338 86.90633059 -0.01376858 94.73378754 -0.01594925 C95.84585897 -0.01625572 96.9579304 -0.01656218 98.10370097 -0.01687793 C100.36252344 -0.01751735 102.62134591 -0.01816578 104.88016838 -0.01882312 C126.08433815 -0.02453257 147.28849066 -0.01795889 168.4926576 -0.00722238 C186.7051891 0.00171368 204.9176951 0.00016181 223.13022614 -0.00905991 C244.25611303 -0.01975169 265.38198479 -0.02398319 286.50787401 -0.01783538 C288.75860373 -0.01719825 291.00933345 -0.01656951 293.26006317 -0.01594925 C294.9213684 -0.01548642 294.9213684 -0.01548642 296.61623535 -0.01501425 C304.43850415 -0.01328402 312.26076338 -0.01620943 320.0830307 -0.02090836 C329.60971115 -0.02650508 339.13635862 -0.0250263 348.66303527 -0.01434687 C353.52800556 -0.00907381 358.39292077 -0.00706105 363.2578907 -0.01364517 C367.70513732 -0.01957314 372.15227745 -0.01638213 376.59951431 -0.00569007 C378.21455238 -0.00344256 379.82959931 -0.00462225 381.44463176 -0.00944164 C383.62783549 -0.01546039 385.81066695 -0.00934997 387.99385071 0 C389.21014994 0.0003247 390.42644917 0.00064941 391.67960596 0.00098395 C394.49692535 0.25168228 394.49692535 0.25168228 396.49692535 2.25168228 C396.87192535 5.68918228 396.87192535 5.68918228 396.49692535 9.25168228 C394.20359455 11.6798416 392.78135577 12.21655986 389.45159572 12.62772977 C388.24571129 12.62821683 387.03982686 12.62870389 385.79740047 12.6292057 C384.7838665 12.63574619 384.7838665 12.63574619 383.7498571 12.6424188 C381.47519458 12.65340763 379.20113409 12.64293661 376.92647552 12.63263321 C375.28348767 12.63608834 373.64050213 12.64085193 371.99752146 12.64681494 C367.47446156 12.65937434 362.9515908 12.6531322 358.4285301 12.64385629 C353.55391028 12.63708636 348.67932367 12.64753675 343.80471039 12.65579605 C334.25236943 12.6691573 324.70009907 12.6662451 315.14775532 12.65755813 C307.38709538 12.65079178 299.62645527 12.64986031 291.86579323 12.65312958 C290.21101476 12.65381913 290.21101476 12.65381913 288.52280642 12.65452261 C286.28194375 12.65548175 284.04108108 12.65645439 281.80021841 12.65744038 C260.7729283 12.66600118 239.74567738 12.65614912 218.71839369 12.64003928 C200.66139699 12.62663362 182.60445813 12.62896491 164.54746246 12.64279556 C143.59550716 12.658836 122.64358624 12.6651791 101.69162565 12.65595877 C99.45916435 12.65500309 97.22670303 12.65405998 94.99424171 12.65312958 C93.89572792 12.65266675 92.79721412 12.65220392 91.66541202 12.65172707 C83.91021024 12.64913271 76.15503019 12.65351774 68.39983177 12.66056824 C58.95445996 12.6689663 49.50916298 12.66673879 40.06379979 12.65072601 C35.24119886 12.6428207 30.41872286 12.63979001 25.59612274 12.64967346 C21.18647976 12.6585742 16.77707823 12.6537644 12.36745734 12.63774081 C10.76726737 12.63437331 9.16705725 12.63613086 7.5668801 12.64336817 C5.40116138 12.65241641 3.236283 12.64321124 1.07060909 12.6292057 C-0.73797403 12.62847512 -0.73797403 12.62847512 -2.58309418 12.62772977 C-5.50307465 12.25168228 -5.50307465 12.25168228 -7.39439863 10.95074332 C-9.23952421 8.12306334 -8.79965301 5.51404433 -8.50307465 2.25168228 C-5.69274874 -0.55864362 -3.94007012 0.00105185 0 0 Z " fill="#BFCEDC" transform="translate(51.503074645996094,467.74831771850586)"/>
<path d="M0 0 C4.29394384 1.31001676 5.92452032 2.93772398 8.88671875 6.17578125 C10.64509128 8.07909555 12.47151064 9.75179426 14.4375 11.4375 C17.73616916 14.28228251 20.97056639 17.18799293 24.1875 20.125 C32.09751432 27.54896854 32.09751432 27.54896854 40.6875 34.125 C40.6875 34.785 40.6875 35.445 40.6875 36.125 C39.90375 36.74375 39.12 37.3625 38.3125 38 C35.82520844 40.01352174 34.83211734 41.21142859 33.6875 44.125 C30.65023042 42.75889732 28.47834974 41.19426193 26.078125 38.89453125 C25.40523437 38.25580078 24.73234375 37.61707031 24.0390625 36.95898438 C23.34554687 36.29189453 22.65203125 35.62480469 21.9375 34.9375 C11.79946203 23.79238382 11.79946203 23.79238382 -0.69921875 16.62109375 C-4.44843101 17.34403602 -6.50963864 19.58226588 -9.125 22.1875 C-10.19076299 23.20770366 -11.25716928 24.22723571 -12.32421875 25.24609375 C-12.83774902 25.74351074 -13.3512793 26.24092773 -13.88037109 26.75341797 C-15.68244281 28.47930254 -17.54725358 30.12153923 -19.4375 31.75 C-24.11894074 35.81240725 -28.71240335 39.97097333 -33.3125 44.125 C-38.59509058 48.89533937 -43.89184135 53.64394407 -49.2578125 58.3203125 C-53.31219003 61.88138173 -57.3076293 65.5084804 -61.3125 69.125 C-70.80122041 77.69360207 -70.80122041 77.69360207 -75.25 81.5625 C-79.44553221 85.21557956 -83.54623553 88.97005549 -87.65625 92.71875 C-90.47972669 95.27648771 -93.34306002 97.78269969 -96.21875 100.28125 C-98.77669027 102.53376457 -101.2942898 104.82817092 -103.8125 107.125 C-107.57600521 110.55764761 -111.37379351 113.9405501 -115.21875 117.28125 C-117.77669027 119.53376457 -120.2942898 121.82817092 -122.8125 124.125 C-126.57600521 127.55764761 -130.37379351 130.9405501 -134.21875 134.28125 C-136.77669027 136.53376457 -139.2942898 138.82817092 -141.8125 141.125 C-145.57600521 144.55764761 -149.37379351 147.9405501 -153.21875 151.28125 C-155.77669027 153.53376457 -158.2942898 155.82817092 -160.8125 158.125 C-164.60184126 161.58075413 -168.42333698 164.9902289 -172.29296875 168.35546875 C-176.33915089 171.90076954 -180.31993187 175.51958999 -184.3125 179.125 C-186.84580914 181.41265492 -189.38012162 183.69874678 -191.92578125 185.97265625 C-193.48315307 187.37709467 -195.02329909 188.80094379 -196.54296875 190.24609375 C-197.23003906 190.88675781 -197.91710937 191.52742187 -198.625 192.1875 C-199.51638672 193.04021484 -199.51638672 193.04021484 -200.42578125 193.91015625 C-202.88758358 195.49529191 -204.43588642 195.46424522 -207.3125 195.125 C-209.6875 193.5 -209.6875 193.5 -211.3125 191.125 C-211.36230821 187.97802645 -210.95328237 185.9155578 -208.94628906 183.43945312 C-207.10479236 181.61353592 -205.20341995 179.89310323 -203.25 178.1875 C-202.56333252 177.5685083 -201.87666504 176.9495166 -201.16918945 176.31176758 C-199.22910155 174.56851685 -197.27417823 172.84387509 -195.3125 171.125 C-194.51328125 170.41601562 -193.7140625 169.70703125 -192.890625 168.9765625 C-191.66303593 167.89608121 -190.43022957 166.82148834 -189.19140625 165.75390625 C-185.17673831 162.2734145 -181.25576906 158.68589146 -177.3125 155.125 C-167.82377959 146.55639793 -167.82377959 146.55639793 -163.375 142.6875 C-160.14690488 139.87677475 -156.97511557 137.009201 -153.8125 134.125 C-150.02315874 130.66924587 -146.20166302 127.2597711 -142.33203125 123.89453125 C-138.28584911 120.34923046 -134.30506813 116.73041001 -130.3125 113.125 C-120.82377959 104.55639793 -120.82377959 104.55639793 -116.375 100.6875 C-112.17946779 97.03442044 -108.07876447 93.27994451 -103.96875 89.53125 C-101.14527331 86.97351229 -98.28193998 84.46730031 -95.40625 81.96875 C-92.84830973 79.71623543 -90.3307102 77.42182908 -87.8125 75.125 C-84.04899479 71.69235239 -80.25120649 68.3094499 -76.40625 64.96875 C-73.84830973 62.71623543 -71.3307102 60.42182908 -68.8125 58.125 C-65.04899479 54.69235239 -61.25120649 51.3094499 -57.40625 47.96875 C-54.84830973 45.71623543 -52.3307102 43.42182908 -49.8125 41.125 C-46.04899479 37.69235239 -42.25120649 34.3094499 -38.40625 30.96875 C-35.84830973 28.71623543 -33.3307102 26.42182908 -30.8125 24.125 C-27.03129399 20.67666495 -23.21990494 17.27245872 -19.35546875 13.91796875 C-16.06923918 11.03387817 -12.84177576 8.08478621 -9.609375 5.140625 C-3.92001949 0.14792526 -3.92001949 0.14792526 0 0 Z " fill="#E8EFF7" transform="translate(246.3125,47.875)"/>
<path d="M0 0 C1.85423868 1.49527391 3.69026889 3.01365577 5.5 4.5625 C6.15355469 5.10390625 6.80710937 5.6453125 7.48046875 6.203125 C19.125505 16.75560636 26.55812437 33.08577087 27.5 48.5625 C27.57734375 49.81417969 27.6546875 51.06585938 27.734375 52.35546875 C28.48360373 70.34955031 22.47710854 87.25908728 10.375 100.8125 C1.41833249 110.32934717 -8.99463712 116.64118727 -21.5 120.5625 C-22.22058594 120.80742187 -22.94117188 121.05234375 -23.68359375 121.3046875 C-34.25323623 124.31281187 -48.05457994 123.69791769 -58.5 120.5625 C-59.36496094 120.30597656 -60.22992188 120.04945313 -61.12109375 119.78515625 C-78.84551847 113.92729673 -92.23970979 102.39708867 -100.9140625 86 C-107.99412969 70.65404156 -110.68029551 51.93594251 -105.9375 35.4375 C-101.71436343 24.22994526 -96.00664048 14.98219015 -87.5 6.5625 C-86.50419922 5.51642578 -86.50419922 5.51642578 -85.48828125 4.44921875 C-62.95225697 -17.65754792 -24.92490924 -18.30325416 0 0 Z M-85.5078125 18.75390625 C-93.86663528 28.86771996 -97.86788422 40.41129394 -97.75 53.4375 C-97.75773437 54.28441406 -97.76546875 55.13132813 -97.7734375 56.00390625 C-97.72997572 70.19417756 -92.99042653 82.96022433 -83.5 93.5625 C-82.90445312 94.25085938 -82.30890625 94.93921875 -81.6953125 95.6484375 C-74.02572247 103.95450803 -64.43363976 108.98754861 -53.5 111.5625 C-52.56740356 111.82051392 -52.56740356 111.82051392 -51.6159668 112.08374023 C-35.65317051 115.69549096 -20.01979532 110.87839755 -6.5 102.5625 C6.64543062 93.40145664 14.52099897 79.11362618 17.5 63.5625 C19.23595998 47.05661981 15.49712693 31.93487201 5.27734375 18.6796875 C-4.66821329 7.1106877 -18.08298674 -1.18176668 -33.5 -2.4375 C-54.88917997 -3.90459989 -70.93947873 2.85344857 -85.5078125 18.75390625 Z " fill="#050402" transform="translate(428.5,54.4375)"/>
<path d="M0 0 C11.86137971 9.18959117 20.67250525 22.24529843 23.25 37.25 C25.19080804 54.51459305 20.89556802 70.06659401 10.25390625 83.83203125 C1.30341858 94.47369841 -11.75949115 102.56976732 -25.75 104.25 C-43.11553845 105.32318728 -58.61516499 102.701965 -72.125 90.8125 C-73.68591475 89.31142862 -75.22965191 87.7921452 -76.75 86.25 C-77.32492187 85.68539062 -77.89984375 85.12078125 -78.4921875 84.5390625 C-83.19339425 79.54555274 -85.94634328 73.44844589 -88.75 67.25 C-89.11609375 66.44820313 -89.4821875 65.64640625 -89.859375 64.8203125 C-94.78709891 50.59907419 -92.66960341 33.40239113 -86.27734375 20.2109375 C-78.71118876 6.08029342 -66.58535208 -3.86371948 -51.5 -9.25 C-33.92960318 -14.06322386 -14.84930843 -10.31030821 0 0 Z M-71.90234375 13.96484375 C-81.09589631 25.33530516 -84.90180565 37.72108316 -83.75 52.25 C-81.89364373 66.34455687 -74.97304457 77.24691497 -64.2734375 86.39453125 C-52.45841496 95.08204783 -40.06013132 97.93659853 -25.6328125 95.78515625 C-12.82832001 92.97481959 -1.31691781 86.11287826 6.32421875 75.3203125 C12.07220089 65.84879477 14.82613692 57.52072194 14.75 46.4375 C14.74141968 44.9839209 14.74141968 44.9839209 14.73266602 43.50097656 C14.54266905 35.8729504 13.2682919 29.83553394 9.25 23.25 C8.45335937 21.91775391 8.45335937 21.91775391 7.640625 20.55859375 C0.20486396 9.11502572 -10.00076764 2.79055087 -22.75 -1.75 C-41.37890802 -5.59484786 -58.8835056 0.09055833 -71.90234375 13.96484375 Z " fill="#EDC249" transform="translate(422.75,62.75)"/>
<path d="M0 0 C7.46879999 4.63580689 11.64544562 9.95452632 15.3125 17.8125 C17.43608956 27.65823342 15.99707467 36.77643811 10.52734375 45.29296875 C5.00963347 52.24554459 -2.82056734 56.26479642 -11.59375 57.30859375 C-20.88045364 57.72050399 -28.02672468 55.19368081 -35.16796875 49.171875 C-41.3001528 42.73896551 -44.15042404 35.45211289 -44.625 26.625 C-44.30891899 17.69044352 -40.69277403 10.12721201 -34.1875 4 C-24.05104746 -3.83706822 -11.75474907 -5.99428433 0 0 Z " fill="#050505" transform="translate(260,143)"/>
<path d="M0 0 C0.93585938 0.33 1.87171875 0.66 2.8359375 1 C19.07435277 7.21722701 27.00785427 17.66736088 34 33 C37.53495553 43.6048666 36.21375527 58.21109862 31.54296875 68.24609375 C23.64077265 82.35001336 14.01717149 90.54675712 -1.375 95.8125 C-13.54459176 99.03386253 -25.8981748 97.19426075 -36.98046875 91.45703125 C-49.3434303 84.0051496 -57.69456225 73.82272119 -62 60 C-65.02108184 45.71852222 -62.70765364 32.16675584 -55.01171875 19.82421875 C-42.80443882 2.68661994 -20.6505562 -7.42491908 0 0 Z M-45.5 23.921875 C-52.69154682 33.88516383 -54.4358744 44.70597664 -52.5703125 56.78125 C-49.82145221 67.50519878 -42.30578514 76.45702639 -32.99609375 82.24609375 C-23.86886493 87.12228449 -13.7397383 88.76366984 -3.65625 86.125 C8.93029793 81.65501102 16.72208509 74.65426429 23.09765625 62.9921875 C26.75774065 54.31012684 26.64284702 41.31393986 23.5 32.5 C18.24509765 21.86202695 10.28547198 14.28137504 -0.76171875 9.90625 C-17.88470345 4.63012347 -34.16792203 10.17648412 -45.5 23.921875 Z " fill="#050501" transform="translate(402,62)"/>
<path d="M0 0 C5.80136141 3.65805205 9.30391816 8.97382458 10.82421875 15.64453125 C11.31412272 22.55762064 8.63779472 27.89597231 4.25 33.125 C1.94729058 34.93188793 -0.03927313 35.92602465 -2.75 37.125 C-3.74 37.62 -3.74 37.62 -4.75 38.125 C-11.45688303 38.91537342 -16.55444238 38.56756625 -22.09765625 34.5546875 C-26.24898516 30.96275752 -29.33151907 26.90548389 -30.15625 21.42578125 C-30.39913969 13.6836724 -29.09068368 8.84110589 -23.75 3.125 C-16.94637853 -2.74863005 -8.11048025 -3.90402778 0 0 Z " fill="#E8EFF7" transform="translate(255.75,151.875)"/>
<path d="M0 0 C0.88319412 -0.00525696 1.76638824 -0.01051392 2.67634583 -0.01593018 C5.60016486 -0.0291503 8.52344091 -0.02038496 11.44726562 -0.01025391 C13.47603459 -0.01227406 15.50480286 -0.01518501 17.53356934 -0.01895142 C21.78726102 -0.0233775 26.04076384 -0.01693452 30.29443359 -0.00292969 C35.752368 0.01416228 41.20985986 0.00432263 46.66777802 -0.01364708 C50.85759833 -0.0244772 55.04731339 -0.02104211 59.23713684 -0.0132637 C61.24982251 -0.01125956 63.26251768 -0.01372844 65.27519226 -0.02070236 C68.08606354 -0.0283041 70.8962138 -0.01673058 73.70703125 0 C74.54244949 -0.00607269 75.37786774 -0.01214539 76.23860168 -0.0184021 C81.89202096 0.04407525 81.89202096 0.04407525 84.09853363 1.68933678 C85.35351562 3.38818359 85.35351562 3.38818359 85.22851562 6.95068359 C84.35351562 10.38818359 84.35351562 10.38818359 81.35351562 12.38818359 C78.50586382 12.59330357 75.7552038 12.68187846 72.90649414 12.67871094 C72.04441345 12.68542816 71.18233276 12.69214539 70.29412842 12.69906616 C67.44016786 12.71808718 64.5864419 12.7219723 61.73242188 12.72412109 C59.7508891 12.73054573 57.76935729 12.73727383 55.78782654 12.74429321 C51.63253581 12.75627593 47.47732828 12.75997297 43.32202148 12.75878906 C37.99415532 12.75858572 32.66682164 12.78589967 27.33908176 12.82033348 C23.24616539 12.84255567 19.15337817 12.84662806 15.06040764 12.84556961 C13.09597881 12.84793218 11.13154676 12.85679244 9.1671772 12.87223434 C6.42104764 12.89180154 3.67607937 12.88609322 0.92993164 12.87402344 C0.11681015 12.88526245 -0.69631134 12.89650146 -1.53407288 12.90808105 C-5.13756948 12.86777608 -7.22468491 12.70263276 -10.15516663 10.51797485 C-11.64648438 8.38818359 -11.64648438 8.38818359 -12.08398438 5.82568359 C-10.90936047 -0.71864959 -5.53056762 -0.04020195 0 0 Z " fill="#E5ECF3" transform="translate(73.646484375,241.61181640625)"/>
<path d="M0 0 C0.83901352 0.00247742 1.67802704 0.00495483 2.54246521 0.00750732 C3.42551331 0.00239639 4.3085614 -0.00271454 5.21836853 -0.00798035 C8.14751396 -0.02191996 11.07642525 -0.02091629 14.00559998 -0.01861572 C16.03579802 -0.0225003 18.06599524 -0.02683447 20.09619141 -0.03160095 C24.35581596 -0.0390726 28.61535764 -0.03876508 32.87498474 -0.0335083 C38.34077358 -0.02771288 43.80622364 -0.04464192 49.27195644 -0.06785297 C53.4660542 -0.08256621 57.66006993 -0.0834653 61.85418892 -0.08034325 C63.86967197 -0.08085769 65.88515947 -0.08611835 67.9006176 -0.09615517 C70.71635488 -0.1084554 73.53142654 -0.10176654 76.34715271 -0.09014893 C77.184142 -0.09779266 78.02113129 -0.1054364 78.88348389 -0.11331177 C84.54834448 -0.06150061 84.54834448 -0.06150061 86.7549448 1.58289814 C88.00950623 3.28216553 88.00950623 3.28216553 87.88450623 6.84466553 C87.00950623 10.28216553 87.00950623 10.28216553 84.00950623 12.28216553 C81.16185442 12.4872855 78.4111944 12.57586039 75.56248474 12.57269287 C74.70040405 12.5794101 73.83832336 12.58612732 72.95011902 12.5930481 C70.09615846 12.61206911 67.2424325 12.61595423 64.38841248 12.61810303 C62.4068797 12.62452766 60.42534789 12.63125576 58.44381714 12.63827515 C54.28852641 12.65025787 50.13331888 12.6539549 45.97801208 12.652771 C40.65014593 12.65256765 35.32281224 12.67988161 29.99507236 12.71431541 C25.90215599 12.7365376 21.80936877 12.74060999 17.71639824 12.73955154 C15.75196941 12.74191411 13.78753736 12.75077438 11.8231678 12.76621628 C9.07703824 12.78578347 6.33206997 12.78007515 3.58592224 12.76800537 C2.77280075 12.77924438 1.95967926 12.7904834 1.12191772 12.80206299 C-2.46766166 12.76191368 -4.58453254 12.57501437 -7.53433228 10.44711304 C-8.99049377 8.28216553 -8.99049377 8.28216553 -8.86549377 5.15716553 C-7.27105323 -0.08171053 -5.10489155 0.04733293 0 0 Z " fill="#E5ECF4" transform="translate(340.99049377441406,241.71783447265625)"/>
<path d="M0 0 C0.83901352 0.00247742 1.67802704 0.00495483 2.54246521 0.00750732 C3.42551331 0.00239639 4.3085614 -0.00271454 5.21836853 -0.00798035 C8.14751396 -0.02191996 11.07642525 -0.02091629 14.00559998 -0.01861572 C16.03579802 -0.0225003 18.06599524 -0.02683447 20.09619141 -0.03160095 C24.35581596 -0.0390726 28.61535764 -0.03876508 32.87498474 -0.0335083 C38.34077358 -0.02771288 43.80622364 -0.04464192 49.27195644 -0.06785297 C53.4660542 -0.08256621 57.66006993 -0.0834653 61.85418892 -0.08034325 C63.86967197 -0.08085769 65.88515947 -0.08611835 67.9006176 -0.09615517 C70.71635488 -0.1084554 73.53142654 -0.10176654 76.34715271 -0.09014893 C77.184142 -0.09779266 78.02113129 -0.1054364 78.88348389 -0.11331177 C84.54834448 -0.06150061 84.54834448 -0.06150061 86.7549448 1.58289814 C88.00950623 3.28216553 88.00950623 3.28216553 87.88450623 6.84466553 C87.00950623 10.28216553 87.00950623 10.28216553 84.00950623 12.28216553 C81.16217095 12.49242348 78.41127386 12.5862391 75.56248474 12.58856201 C74.26936371 12.60104729 74.26936371 12.60104729 72.95011902 12.61378479 C70.09617111 12.63790967 67.24245157 12.64665935 64.38841248 12.65325928 C62.40687998 12.66222278 60.4253482 12.67134457 58.44381714 12.68061829 C54.28853204 12.69711695 50.13332761 12.70481016 45.97801208 12.70770264 C40.65004211 12.71309141 35.32282852 12.75078819 29.99507236 12.7964468 C25.90215271 12.82616704 21.80941644 12.83342508 17.71639824 12.83442879 C15.7519528 12.83864009 13.78750726 12.85111066 11.8231678 12.87194633 C9.07685054 12.89876037 6.33230292 12.89406583 3.58592224 12.88153076 C2.77280075 12.89636505 1.95967926 12.91119934 1.12191772 12.92648315 C-2.82273309 12.87513251 -4.59924142 12.64660264 -7.53433228 9.91267395 C-8.99049377 7.28216553 -8.99049377 7.28216553 -8.86549377 4.59466553 C-7.06401147 -0.16639485 -4.71823367 0.04374781 0 0 Z " fill="#E5ECF4" transform="translate(205.99049377441406,241.71783447265625)"/>
<path d="M0 0 C0.88319412 -0.00525696 1.76638824 -0.01051392 2.67634583 -0.01593018 C5.60016486 -0.0291503 8.52344091 -0.02038496 11.44726562 -0.01025391 C13.47603459 -0.01227406 15.50480286 -0.01518501 17.53356934 -0.01895142 C21.78726102 -0.0233775 26.04076384 -0.01693452 30.29443359 -0.00292969 C35.752368 0.01416228 41.20985986 0.00432263 46.66777802 -0.01364708 C50.85759833 -0.0244772 55.04731339 -0.02104211 59.23713684 -0.0132637 C61.24982251 -0.01125956 63.26251768 -0.01372844 65.27519226 -0.02070236 C68.08606354 -0.0283041 70.8962138 -0.01673058 73.70703125 0 C74.54244949 -0.00607269 75.37786774 -0.01214539 76.23860168 -0.0184021 C81.88955845 0.04404804 81.88955845 0.04404804 84.10243988 1.68543053 C85.35351562 3.38818359 85.35351562 3.38818359 85.16601562 7.01318359 C84.89789063 8.12693359 84.62976563 9.24068359 84.35351562 10.38818359 C81.0706018 12.0296405 77.42935846 11.54450822 73.82055664 11.54931641 C72.93750854 11.55428131 72.05446045 11.55924622 71.14465332 11.56436157 C68.21556833 11.57899946 65.28653747 11.58578735 62.35742188 11.59130859 C60.32722471 11.59705801 58.29702756 11.60281577 56.26683044 11.60858154 C52.00723008 11.61909569 47.74764863 11.62493588 43.48803711 11.62841797 C38.02227106 11.63390834 32.55675343 11.65794625 27.09106541 11.68638992 C22.89698041 11.70498519 18.70295568 11.7102202 14.50883293 11.71175385 C12.49334286 11.71478716 10.47785402 11.72283839 8.46240425 11.73593903 C5.64669838 11.75293712 2.83160507 11.7511348 0.01586914 11.74462891 C-1.23961479 11.75845108 -1.23961479 11.75845108 -2.52046204 11.77255249 C-8.2162715 11.73119125 -8.2162715 11.73119125 -10.36067295 10.0214653 C-11.64648438 8.38818359 -11.64648438 8.38818359 -12.02148438 5.88818359 C-11.02753031 -0.73817687 -5.52138657 -0.04013521 0 0 Z " fill="#ECF3FB" transform="translate(343.646484375,445.61181640625)"/>
<path d="M0 0 C0.88319412 -0.00525696 1.76638824 -0.01051392 2.67634583 -0.01593018 C5.60016486 -0.0291503 8.52344091 -0.02038496 11.44726562 -0.01025391 C13.47603459 -0.01227406 15.50480286 -0.01518501 17.53356934 -0.01895142 C21.78726102 -0.0233775 26.04076384 -0.01693452 30.29443359 -0.00292969 C35.752368 0.01416228 41.20985986 0.00432263 46.66777802 -0.01364708 C50.85759833 -0.0244772 55.04731339 -0.02104211 59.23713684 -0.0132637 C61.24982251 -0.01125956 63.26251768 -0.01372844 65.27519226 -0.02070236 C68.08606354 -0.0283041 70.8962138 -0.01673058 73.70703125 0 C74.54244949 -0.00607269 75.37786774 -0.01214539 76.23860168 -0.0184021 C81.92271864 0.0444145 81.92271864 0.0444145 84.06728363 1.75574303 C85.35351562 3.38818359 85.35351562 3.38818359 85.72851562 5.88818359 C85.2825587 8.86122978 84.66411657 9.54436103 82.35351562 11.38818359 C79.40137052 11.68450429 76.6602037 11.79783393 73.70703125 11.77636719 C72.82383713 11.78162415 71.94064301 11.7868811 71.03068542 11.79229736 C68.10686639 11.80551749 65.18359034 11.79675215 62.25976562 11.78662109 C60.23099666 11.78864125 58.20222839 11.7915522 56.17346191 11.7953186 C51.91977023 11.79974469 47.66626741 11.7933017 43.41259766 11.77929688 C37.95466325 11.7622049 32.49717139 11.77204456 27.03925323 11.79001427 C22.84943292 11.80084439 18.65971786 11.7974093 14.46989441 11.78963089 C12.45720874 11.78762675 10.44451357 11.79009563 8.43183899 11.79706955 C5.62096771 11.80467129 2.81081745 11.79309777 0 11.77636719 C-0.83541824 11.78243988 -1.67083649 11.78851257 -2.53157043 11.79476929 C-8.21568739 11.73195269 -8.21568739 11.73195269 -10.36025238 10.02062416 C-11.64648438 8.38818359 -11.64648438 8.38818359 -12.02148438 5.88818359 C-11.02753031 -0.73817687 -5.52138657 -0.04013521 0 0 Z " fill="#ECF3FB" transform="translate(73.646484375,445.61181640625)"/>
<path d="M0 0 C0.83901352 0.00247742 1.67802704 0.00495483 2.54246521 0.00750732 C3.42551331 0.00239639 4.3085614 -0.00271454 5.21836853 -0.00798035 C8.14751396 -0.02191996 11.07642525 -0.02091629 14.00559998 -0.01861572 C16.03579802 -0.0225003 18.06599524 -0.02683447 20.09619141 -0.03160095 C24.35581596 -0.0390726 28.61535764 -0.03876508 32.87498474 -0.0335083 C38.34077358 -0.02771288 43.80622364 -0.04464192 49.27195644 -0.06785297 C53.4660542 -0.08256621 57.66006993 -0.0834653 61.85418892 -0.08034325 C63.86967197 -0.08085769 65.88515947 -0.08611835 67.9006176 -0.09615517 C70.71635488 -0.1084554 73.53142654 -0.10176654 76.34715271 -0.09014893 C77.184142 -0.09779266 78.02113129 -0.1054364 78.88348389 -0.11331177 C84.57895105 -0.06122068 84.57895105 -0.06122068 86.7236948 1.64930439 C88.00950623 3.28216553 88.00950623 3.28216553 88.38450623 5.78216553 C87.93853316 8.75531929 87.31987737 9.43795936 85.00950623 11.28216553 C82.05782032 11.58367354 79.31632004 11.7021321 76.36302185 11.68621826 C75.47982773 11.69308151 74.59663361 11.69994476 73.68667603 11.70701599 C70.76287327 11.72534019 67.83960416 11.72143885 64.91575623 11.71575928 C62.88698653 11.72031807 60.85821839 11.72562273 58.82945251 11.73164368 C54.57576731 11.7405856 50.32226974 11.73813898 46.06858826 11.72821045 C40.61056305 11.71671387 35.15318412 11.73693748 29.69524384 11.76612759 C25.50541554 11.78444951 21.3157433 11.78420524 17.12588501 11.77849007 C15.11319064 11.77833639 13.100486 11.78441879 11.08782959 11.79678154 C8.27680066 11.81161579 5.46698099 11.80107089 2.6559906 11.78387451 C1.40286324 11.79837646 1.40286324 11.79837646 0.12442017 11.81317139 C-5.48614148 11.74109206 -5.48614148 11.74109206 -8.0426178 9.41487122 C-9.29003959 6.60819226 -8.97346725 5.15547262 -7.99049377 2.28216553 C-5.38269989 -0.32562835 -3.55239077 0.03293803 0 0 Z " fill="#ECF3FB" transform="translate(205.99049377441406,445.71783447265625)"/>
<path d="M0 0 C3 0.25 3 0.25 5 2.25 C5.20430403 5.36808492 5.28311567 8.39771595 5.2746582 11.51733398 C5.27976913 12.47841064 5.28488007 13.4394873 5.29014587 14.4296875 C5.30408873 17.61855227 5.30308157 20.80720205 5.30078125 23.99609375 C5.30466562 26.2056537 5.30899975 28.4152129 5.31376648 30.62477112 C5.32123881 35.2610211 5.32093009 39.89719494 5.31567383 44.53344727 C5.30987813 50.48349866 5.3268079 56.43323887 5.3500185 62.38323879 C5.3647292 66.94792004 5.36563117 71.51252589 5.36250877 76.07722664 C5.36302334 78.27133869 5.36828622 80.46545482 5.37832069 82.65954399 C5.39061602 85.72432724 5.38393486 88.78849851 5.37231445 91.85327148 C5.37995819 92.76506668 5.38760193 93.67686188 5.39547729 94.61628723 C5.38846298 95.45052216 5.38144867 96.28475708 5.3742218 97.14427185 C5.37438954 97.86896888 5.37455729 98.5936659 5.37473011 99.34032345 C4.88715182 101.82508995 4.00361279 102.7422743 2 104.25 C-1.34192692 104.00546876 -2.60543557 103.64456443 -5 101.25 C-5.19904271 98.12645011 -5.27260863 95.09151456 -5.25878906 91.96679688 C-5.2622937 91.00411392 -5.26579834 90.04143097 -5.26940918 89.04957581 C-5.27823778 85.85589463 -5.27237333 82.66243357 -5.265625 79.46875 C-5.26697132 77.25679481 -5.26891158 75.04483991 -5.27142334 72.83288574 C-5.27437613 68.19243559 -5.27007195 63.55206232 -5.26074219 58.91162109 C-5.24934761 52.95256175 -5.25590625 46.99368255 -5.26788712 41.03462982 C-5.27510151 36.46570469 -5.27281972 31.89682252 -5.26763153 27.32789612 C-5.26629387 25.13017251 -5.2679468 22.93244506 -5.27259064 20.73472595 C-5.27764894 17.667446 -5.26995539 14.60046101 -5.25878906 11.53320312 C-5.26283752 10.61781265 -5.26688599 9.70242218 -5.27105713 8.7592926 C-5.21468683 0.43455724 -5.21468683 0.43455724 0 0 Z " fill="#000101" transform="translate(313,298.75)"/>
<path d="M0 0 C3 -0.3125 3 -0.3125 6 0 C8.70374697 2.70374697 8.25086249 4.82471605 8.28216553 8.4981842 C8.27968811 9.41200363 8.27721069 10.32582306 8.2746582 11.26733398 C8.27976913 12.22841064 8.28488007 13.1894873 8.29014587 14.1796875 C8.30408873 17.36855227 8.30308157 20.55720205 8.30078125 23.74609375 C8.30466562 25.9556537 8.30899975 28.1652129 8.31376648 30.37477112 C8.32123881 35.0110211 8.32093009 39.64719494 8.31567383 44.28344727 C8.30987813 50.23349866 8.3268079 56.18323887 8.3500185 62.13323879 C8.3647292 66.69792004 8.36563117 71.26252589 8.36250877 75.82722664 C8.36302334 78.02133869 8.36828622 80.21545482 8.37832069 82.40954399 C8.39061602 85.47432724 8.38393486 88.53849851 8.37231445 91.60327148 C8.37995819 92.51506668 8.38760193 93.42686188 8.39547729 94.36628723 C8.38846298 95.20052216 8.38144867 96.03475708 8.3742218 96.89427185 C8.37438954 97.61896888 8.37455729 98.3436659 8.37473011 99.09032345 C7.88715182 101.57508995 7.00361279 102.4922743 5 104 C1.65807308 103.75546876 0.39456443 103.39456443 -2 101 C-2.19900923 97.91199711 -2.2726164 94.91363366 -2.25878906 91.82446289 C-2.2622937 90.8731398 -2.26579834 89.92181671 -2.26940918 88.94166565 C-2.27823839 85.78525576 -2.27237266 82.62906857 -2.265625 79.47265625 C-2.26697142 77.28551694 -2.26891176 75.09837791 -2.27142334 72.91123962 C-2.27437631 68.32206377 -2.2700718 63.73296566 -2.26074219 59.14379883 C-2.24935432 53.25433944 -2.25590188 47.36506245 -2.26788712 41.47560978 C-2.27510677 36.95725627 -2.27281717 32.43894615 -2.26763153 27.92059135 C-2.26629498 25.74881405 -2.26794294 23.57703283 -2.27259064 21.40526009 C-2.2776568 18.37171083 -2.26994392 15.33845871 -2.25878906 12.30493164 C-2.26283752 11.40248718 -2.26688599 10.50004272 -2.27105713 9.57025146 C-2.26541748 8.74443069 -2.25977783 7.91860992 -2.25396729 7.06776428 C-2.25321323 6.3504416 -2.25245918 5.63311892 -2.25168228 4.89405918 C-2 3 -2 3 0 0 Z " fill="#020406" transform="translate(173,299)"/>
<path d="M0 0 C3 0.25 3 0.25 5 2.25 C5.20426709 5.33777477 5.28312009 8.33622692 5.2746582 11.42553711 C5.27976913 12.3768602 5.28488007 13.32818329 5.29014587 14.30833435 C5.30408835 17.46473415 5.3030816 20.62091675 5.30078125 23.77734375 C5.30466565 25.96448346 5.30899978 28.15162241 5.31376648 30.33876038 C5.32123873 34.92793216 5.32093015 39.51702702 5.31567383 44.10620117 C5.30987816 49.99571965 5.32680785 55.88492375 5.3500185 61.77439022 C5.36472949 66.29274852 5.36563113 70.81103065 5.36250877 75.32940865 C5.36302332 77.50119207 5.36828594 79.67297961 5.37832069 81.84473991 C5.39061659 84.87839225 5.38393453 87.91142639 5.37231445 90.94506836 C5.37995819 91.84751282 5.38760193 92.74995728 5.39547729 93.67974854 C5.38846298 94.50556931 5.38144867 95.33139008 5.3742218 96.18223572 C5.37438954 96.8995584 5.37455729 97.61688108 5.37473011 98.35594082 C4.88543894 100.82904454 3.97330749 101.72454314 2 103.25 C-0.5625 103.5625 -0.5625 103.5625 -3 103.25 C-5.70724625 100.54275375 -5.24615614 98.41807243 -5.27105713 94.7407074 C-5.26700867 93.82531693 -5.26296021 92.90992645 -5.25878906 91.96679688 C-5.2622937 91.00411392 -5.26579834 90.04143097 -5.26940918 89.04957581 C-5.27823778 85.85589463 -5.27237333 82.66243357 -5.265625 79.46875 C-5.26697132 77.25679481 -5.26891158 75.04483991 -5.27142334 72.83288574 C-5.27437613 68.19243559 -5.27007195 63.55206232 -5.26074219 58.91162109 C-5.24934761 52.95256175 -5.25590625 46.99368255 -5.26788712 41.03462982 C-5.27510151 36.46570469 -5.27281972 31.89682252 -5.26763153 27.32789612 C-5.26629387 25.13017251 -5.2679468 22.93244506 -5.27259064 20.73472595 C-5.27764894 17.667446 -5.26995539 14.60046101 -5.25878906 11.53320312 C-5.26283752 10.61781265 -5.26688599 9.70242218 -5.27105713 8.7592926 C-5.21468683 0.43455724 -5.21468683 0.43455724 0 0 Z " fill="#040404" transform="translate(392,299.75)"/>
<path d="M0 0 C3 0.25 3 0.25 5 2.25 C5.20426709 5.33777477 5.28312009 8.33622692 5.2746582 11.42553711 C5.27976913 12.3768602 5.28488007 13.32818329 5.29014587 14.30833435 C5.30408835 17.46473415 5.3030816 20.62091675 5.30078125 23.77734375 C5.30466565 25.96448346 5.30899978 28.15162241 5.31376648 30.33876038 C5.32123873 34.92793216 5.32093015 39.51702702 5.31567383 44.10620117 C5.30987816 49.99571965 5.32680785 55.88492375 5.3500185 61.77439022 C5.36472949 66.29274852 5.36563113 70.81103065 5.36250877 75.32940865 C5.36302332 77.50119207 5.36828594 79.67297961 5.37832069 81.84473991 C5.39061659 84.87839225 5.38393453 87.91142639 5.37231445 90.94506836 C5.37995819 91.84751282 5.38760193 92.74995728 5.39547729 93.67974854 C5.38846298 94.50556931 5.38144867 95.33139008 5.3742218 96.18223572 C5.37438954 96.8995584 5.37455729 97.61688108 5.37473011 98.35594082 C4.88545141 100.82898152 3.97080746 101.72177232 2 103.25 C-0.5625 103.625 -0.5625 103.625 -3 103.25 C-5.03468282 100.19797578 -5.25036417 99.60985018 -5.25396729 96.18223572 C-5.25960693 95.35641495 -5.26524658 94.53059418 -5.27105713 93.67974854 C-5.26700867 92.77730408 -5.26296021 91.87485962 -5.25878906 90.94506836 C-5.2622937 89.99199295 -5.26579834 89.03891754 -5.26940918 88.05696106 C-5.27822429 84.90118158 -5.27237853 81.74562557 -5.265625 78.58984375 C-5.2669716 76.40173805 -5.26891209 74.21363263 -5.27142334 72.02552795 C-5.27437421 67.43813226 -5.27007768 62.85081439 -5.26074219 58.26342773 C-5.24934099 52.37277764 -5.25591164 46.48230965 -5.26788712 40.59166622 C-5.27510094 36.07335529 -5.2728201 31.5550878 -5.26763153 27.03677559 C-5.26629406 24.86417176 -5.26794614 22.69156404 -5.27259064 20.51896477 C-5.27764874 17.48771528 -5.26995599 14.45676427 -5.25878906 11.42553711 C-5.26486176 10.06883408 -5.26486176 10.06883408 -5.27105713 8.6847229 C-5.21452243 0.43454354 -5.21452243 0.43454354 0 0 Z " fill="#010101" transform="translate(371,299.75)"/>
<path d="M0 0 C3 0.25 3 0.25 5 2.25 C5.20426709 5.33777477 5.28312009 8.33622692 5.2746582 11.42553711 C5.27976913 12.3768602 5.28488007 13.32818329 5.29014587 14.30833435 C5.30408835 17.46473415 5.3030816 20.62091675 5.30078125 23.77734375 C5.30466565 25.96448346 5.30899978 28.15162241 5.31376648 30.33876038 C5.32123873 34.92793216 5.32093015 39.51702702 5.31567383 44.10620117 C5.30987816 49.99571965 5.32680785 55.88492375 5.3500185 61.77439022 C5.36472949 66.29274852 5.36563113 70.81103065 5.36250877 75.32940865 C5.36302332 77.50119207 5.36828594 79.67297961 5.37832069 81.84473991 C5.39061659 84.87839225 5.38393453 87.91142639 5.37231445 90.94506836 C5.37995819 91.84751282 5.38760193 92.74995728 5.39547729 93.67974854 C5.38846298 94.50556931 5.38144867 95.33139008 5.3742218 96.18223572 C5.37438954 96.8995584 5.37455729 97.61688108 5.37473011 98.35594082 C4.88545141 100.82898152 3.97080746 101.72177232 2 103.25 C-0.5625 103.625 -0.5625 103.625 -3 103.25 C-5.03468282 100.19797578 -5.25036417 99.60985018 -5.25396729 96.18223572 C-5.25960693 95.35641495 -5.26524658 94.53059418 -5.27105713 93.67974854 C-5.26700867 92.77730408 -5.26296021 91.87485962 -5.25878906 90.94506836 C-5.2622937 89.99199295 -5.26579834 89.03891754 -5.26940918 88.05696106 C-5.27822429 84.90118158 -5.27237853 81.74562557 -5.265625 78.58984375 C-5.2669716 76.40173805 -5.26891209 74.21363263 -5.27142334 72.02552795 C-5.27437421 67.43813226 -5.27007768 62.85081439 -5.26074219 58.26342773 C-5.24934099 52.37277764 -5.25591164 46.48230965 -5.26788712 40.59166622 C-5.27510094 36.07335529 -5.2728201 31.5550878 -5.26763153 27.03677559 C-5.26629406 24.86417176 -5.26794614 22.69156404 -5.27259064 20.51896477 C-5.27764874 17.48771528 -5.26995599 14.45676427 -5.25878906 11.42553711 C-5.26486176 10.06883408 -5.26486176 10.06883408 -5.27105713 8.6847229 C-5.21452243 0.43454354 -5.21452243 0.43454354 0 0 Z " fill="#010101" transform="translate(255,299.75)"/>
<path d="M0 0 C3 0.25 3 0.25 5 2.25 C5.19900923 5.33800289 5.2726164 8.33636634 5.25878906 11.42553711 C5.2622937 12.3768602 5.26579834 13.32818329 5.26940918 14.30833435 C5.27823839 17.46474424 5.27237266 20.62093143 5.265625 23.77734375 C5.26697142 25.96448306 5.26891176 28.15162209 5.27142334 30.33876038 C5.27437631 34.92793623 5.2700718 39.51703434 5.26074219 44.10620117 C5.24935432 49.99566056 5.25590188 55.88493755 5.26788712 61.77439022 C5.27510677 66.29274373 5.27281717 70.81105385 5.26763153 75.32940865 C5.26629498 77.50118595 5.26794294 79.67296717 5.27259064 81.84473991 C5.2776568 84.87828917 5.26994392 87.91154129 5.25878906 90.94506836 C5.26283752 91.84751282 5.26688599 92.74995728 5.27105713 93.67974854 C5.26541748 94.50556931 5.25977783 95.33139008 5.25396729 96.18223572 C5.25321323 96.8995584 5.25245918 97.61688108 5.25168228 98.35594082 C5 100.25 5 100.25 3 103.25 C0.6568787 102.99438677 -1.67843403 102.65729228 -4 102.25 C-5.72051831 98.80896337 -5.14715794 94.84574161 -5.14526367 91.05859375 C-5.14862228 90.10566437 -5.1519809 89.15273499 -5.15544128 88.17092896 C-5.1649681 85.00977284 -5.16689515 81.84866959 -5.16796875 78.6875 C-5.17117973 76.49796527 -5.17454367 74.30843076 -5.17805481 72.11889648 C-5.18405013 67.52554832 -5.18589426 62.93221899 -5.18530273 58.33886719 C-5.185201 52.44035474 -5.19886337 46.54196235 -5.21607494 40.64347839 C-5.22716812 36.12088461 -5.22922278 31.59832011 -5.22869301 27.07571411 C-5.22987679 24.9003152 -5.2343207 22.72491562 -5.24202538 20.54953003 C-5.25177284 17.51340199 -5.24896825 14.47753813 -5.24291992 11.44140625 C-5.24853943 10.53536652 -5.25415894 9.62932678 -5.25994873 8.6958313 C-5.21791968 0.43482664 -5.21791968 0.43482664 0 0 Z " fill="#020303" transform="translate(120,299.75)"/>
<path d="M0 0 C3 -0.3125 3 -0.3125 6 0 C8.70724625 2.70724625 8.24615614 4.83192757 8.27105713 8.5092926 C8.26700867 9.42468307 8.26296021 10.34007355 8.25878906 11.28320312 C8.2622937 12.24588608 8.26579834 13.20856903 8.26940918 14.20042419 C8.27823778 17.39410537 8.27237333 20.58756643 8.265625 23.78125 C8.26697132 25.99320519 8.26891158 28.20516009 8.27142334 30.41711426 C8.27437613 35.05756441 8.27007195 39.69793768 8.26074219 44.33837891 C8.24934761 50.29743825 8.25590625 56.25631745 8.26788712 62.21537018 C8.27510151 66.78429531 8.27281972 71.35317748 8.26763153 75.92210388 C8.26629387 78.11982749 8.2679468 80.31755494 8.27259064 82.51527405 C8.27764894 85.582554 8.26995539 88.64953899 8.25878906 91.71679688 C8.26283752 92.63218735 8.26688599 93.54757782 8.27105713 94.4907074 C8.22852742 100.77147258 8.22852742 100.77147258 6 103 C3.5625 103.3125 3.5625 103.3125 1 103 C-0.96134715 101.48044179 -1.88334407 100.58390162 -2.37473011 98.1243515 C-2.37456237 97.41570198 -2.37439463 96.70705246 -2.3742218 95.97692871 C-2.38123611 95.16096725 -2.38825043 94.3450058 -2.39547729 93.50431824 C-2.38783356 92.61279556 -2.38018982 91.72127289 -2.37231445 90.80273438 C-2.37779045 89.39016106 -2.37779045 89.39016106 -2.38337708 87.9490509 C-2.39149529 84.83043488 -2.37786174 81.71233636 -2.36328125 78.59375 C-2.3627628 76.43046062 -2.36327992 74.26717075 -2.36479187 72.10388184 C-2.36470209 67.56771827 -2.35426065 63.03173222 -2.33618164 58.49560547 C-2.31349438 52.67454322 -2.31294978 46.85374047 -2.31969929 41.03264618 C-2.32303722 36.56489751 -2.31641248 32.09720824 -2.30657005 27.62947083 C-2.30271473 25.48281668 -2.30157121 23.33615593 -2.3031559 21.1894989 C-2.30352583 18.19195922 -2.29092635 15.19475502 -2.2746582 12.19726562 C-2.27713562 11.30574295 -2.27961304 10.41422028 -2.28216553 9.49568176 C-2.27508072 8.67972031 -2.26799591 7.86375885 -2.26069641 7.02307129 C-2.25864354 6.31442177 -2.25659067 5.60577225 -2.25447559 4.8756485 C-2 3 -2 3 0 0 Z " fill="#050506" transform="translate(231,300)"/>
<path d="M0 0 C3 -0.3125 3 -0.3125 6 0 C8.70724625 2.70724625 8.24615614 4.83192757 8.27105713 8.5092926 C8.26700867 9.42468307 8.26296021 10.34007355 8.25878906 11.28320312 C8.2622937 12.24588608 8.26579834 13.20856903 8.26940918 14.20042419 C8.27823778 17.39410537 8.27237333 20.58756643 8.265625 23.78125 C8.26697132 25.99320519 8.26891158 28.20516009 8.27142334 30.41711426 C8.27437613 35.05756441 8.27007195 39.69793768 8.26074219 44.33837891 C8.24934761 50.29743825 8.25590625 56.25631745 8.26788712 62.21537018 C8.27510151 66.78429531 8.27281972 71.35317748 8.26763153 75.92210388 C8.26629387 78.11982749 8.2679468 80.31755494 8.27259064 82.51527405 C8.27764894 85.582554 8.26995539 88.64953899 8.25878906 91.71679688 C8.26283752 92.63218735 8.26688599 93.54757782 8.27105713 94.4907074 C8.22852742 100.77147258 8.22852742 100.77147258 6 103 C3.5625 103.3125 3.5625 103.3125 1 103 C-0.96134715 101.48044179 -1.88334407 100.58390162 -2.37473011 98.1243515 C-2.37456237 97.41570198 -2.37439463 96.70705246 -2.3742218 95.97692871 C-2.38123611 95.16096725 -2.38825043 94.3450058 -2.39547729 93.50431824 C-2.38783356 92.61279556 -2.38018982 91.72127289 -2.37231445 90.80273438 C-2.37779045 89.39016106 -2.37779045 89.39016106 -2.38337708 87.9490509 C-2.39149529 84.83043488 -2.37786174 81.71233636 -2.36328125 78.59375 C-2.3627628 76.43046062 -2.36327992 74.26717075 -2.36479187 72.10388184 C-2.36470209 67.56771827 -2.35426065 63.03173222 -2.33618164 58.49560547 C-2.31349438 52.67454322 -2.31294978 46.85374047 -2.31969929 41.03264618 C-2.32303722 36.56489751 -2.31641248 32.09720824 -2.30657005 27.62947083 C-2.30271473 25.48281668 -2.30157121 23.33615593 -2.3031559 21.1894989 C-2.30352583 18.19195922 -2.29092635 15.19475502 -2.2746582 12.19726562 C-2.27713562 11.30574295 -2.27961304 10.41422028 -2.28216553 9.49568176 C-2.27508072 8.67972031 -2.26799591 7.86375885 -2.26069641 7.02307129 C-2.25864354 6.31442177 -2.25659067 5.60577225 -2.25447559 4.8756485 C-2 3 -2 3 0 0 Z " fill="#060707" transform="translate(96,300)"/>
<path d="M0 0 C24.09 0 48.18 0 73 0 C73 2.64 73 5.28 73 8 C70.13358902 9.43320549 67.67445942 9.1352151 64.47070312 9.14526367 C63.80062729 9.14862228 63.13055145 9.1519809 62.44017029 9.15544128 C60.22051145 9.16495689 58.00092797 9.16689456 55.78125 9.16796875 C54.24190235 9.17118044 52.70255501 9.17454444 51.16320801 9.17805481 C47.93513277 9.18404727 44.70708432 9.18589454 41.47900391 9.18530273 C37.33596109 9.185201 33.19308922 9.19886451 29.05008698 9.21607494 C25.87086187 9.22717397 22.69167841 9.22922261 19.51243591 9.22869301 C17.98456736 9.22987586 16.45669782 9.23431466 14.92884827 9.24202538 C12.79554126 9.25178506 10.66260947 9.24896366 8.52929688 9.24291992 C7.31399292 9.24434494 6.09868896 9.24576996 4.84655762 9.24723816 C2 9 2 9 0 7 C0 4.69 0 2.38 0 0 Z " fill="#CFDAE4" transform="translate(345,264)"/>
<path d="M0 0 C24.09 0 48.18 0 73 0 C73 2.64 73 5.28 73 8 C70.13358902 9.43320549 67.67445942 9.1352151 64.47070312 9.14526367 C63.80062729 9.14862228 63.13055145 9.1519809 62.44017029 9.15544128 C60.22051145 9.16495689 58.00092797 9.16689456 55.78125 9.16796875 C54.24190235 9.17118044 52.70255501 9.17454444 51.16320801 9.17805481 C47.93513277 9.18404727 44.70708432 9.18589454 41.47900391 9.18530273 C37.33596109 9.185201 33.19308922 9.19886451 29.05008698 9.21607494 C25.87086187 9.22717397 22.69167841 9.22922261 19.51243591 9.22869301 C17.98456736 9.22987586 16.45669782 9.23431466 14.92884827 9.24202538 C12.79554126 9.25178506 10.66260947 9.24896366 8.52929688 9.24291992 C7.31399292 9.24434494 6.09868896 9.24576996 4.84655762 9.24723816 C2 9 2 9 0 7 C0 4.69 0 2.38 0 0 Z " fill="#CEDAE4" transform="translate(74,264)"/>
<path d="M0 0 C24.09 0 48.18 0 73 0 C73 2.31 73 4.62 73 7 C70.18852878 9.81147122 68.40892831 9.25363278 64.47070312 9.25878906 C63.80062729 9.2622937 63.13055145 9.26579834 62.44017029 9.26940918 C60.22042548 9.27822732 58.00099817 9.27237724 55.78125 9.265625 C54.24190204 9.26697163 52.7025545 9.26891215 51.16320801 9.27142334 C47.93509883 9.27437471 44.70710024 9.27007661 41.47900391 9.26074219 C37.33594206 9.24934757 33.19313931 9.25590699 29.05008698 9.26788712 C25.87085 9.27510542 22.69167472 9.27281794 19.51243591 9.26763153 C17.98457305 9.26629495 16.45670464 9.26794306 14.92884827 9.27259064 C12.79551301 9.27765547 10.66260055 9.26994669 8.52929688 9.25878906 C7.31399292 9.25719788 6.09868896 9.25560669 4.84655762 9.25396729 C2 9 2 9 0 7 C0 4.69 0 2.38 0 0 Z " fill="#CFDAE4" transform="translate(209,264)"/>
<path d="M0 0 C5.00842078 3.10522088 9.12580301 6.74478644 13.375 10.8125 C14.7087958 12.07380514 16.04342189 13.33423287 17.37890625 14.59375 C18.00941895 15.18929687 18.63993164 15.78484375 19.28955078 16.3984375 C21.83201642 18.77905049 24.4472099 21.0672832 27.0859375 23.33984375 C39.92970947 34.47985005 39.92970947 34.47985005 40.3125 37.3125 C40 40 40 40 38.375 42.375 C36 44 36 44 33.3125 44.015625 C28.63308664 42.58089921 26.04122254 39.78079929 22.625 36.375 C21.29243324 35.08774763 19.95910822 33.80127972 18.625 32.515625 C17.99464844 31.90138672 17.36429687 31.28714844 16.71484375 30.65429688 C14.73777161 28.74703025 12.70469739 26.91957759 10.625 25.125 C10.04234375 24.60292969 9.4596875 24.08085937 8.859375 23.54296875 C6.94230376 21.89763471 6.94230376 21.89763471 4.453125 20.30078125 C1.72516603 18.32921091 -0.17036307 16.83661155 -2 14 C-2.1636777 9.10550871 -1.27674676 4.71007093 0 0 Z " fill="#E7EEF5" transform="translate(416,199)"/>
<path d="M0 0 C0.96035156 0.34933594 1.92070312 0.69867188 2.91015625 1.05859375 C3.73266602 3.67797852 3.73266602 3.67797852 3.91015625 7.05859375 C2.25549895 9.43165697 0.79089332 11.16178194 -1.25 13.1484375 C-1.79208603 13.69722061 -2.33417206 14.24600372 -2.89268494 14.81141663 C-4.04185083 15.96533943 -5.19987859 17.11049504 -6.3659668 18.24731445 C-8.14684799 19.99071366 -9.88730461 21.76829649 -11.62695312 23.55273438 C-12.74906457 24.67022004 -13.87334559 25.78553223 -15 26.8984375 C-15.51901382 27.43162094 -16.03802765 27.96480438 -16.57276917 28.5141449 C-19.20522233 31.03118742 -20.54259738 32.05740795 -24.24462891 32.06542969 C-27.09226644 31.05773643 -28.57818802 30.21247296 -30.703125 28.109375 C-31.31091797 27.50802734 -31.91871094 26.90667969 -32.54492188 26.28710938 C-33.15787109 25.65482422 -33.77082031 25.02253906 -34.40234375 24.37109375 C-35.03462891 23.75814453 -35.66691406 23.14519531 -36.31835938 22.51367188 C-39.88535172 18.9084481 -42.06640444 16.38713078 -42.08984375 11.05859375 C-40.96484375 9.12109375 -40.96484375 9.12109375 -39.08984375 8.05859375 C-34.98912165 8.43816472 -32.96900359 9.68309497 -30.02734375 12.49609375 C-27.47783614 14.91433958 -25.25505163 16.55070502 -22.08984375 18.05859375 C-21.58122803 17.5080835 -21.0726123 16.95757324 -20.54858398 16.39038086 C-18.22940318 13.90477309 -15.87929321 11.4507004 -13.52734375 8.99609375 C-12.72748047 8.12919922 -11.92761719 7.26230469 -11.10351562 6.36914062 C-4.3359375 -0.61941964 -4.3359375 -0.61941964 0 0 Z " fill="#040702" transform="translate(409.08984375,95.94140625)"/>
<path d="M0 0 C0.69104324 -0.00175232 1.38208649 -0.00350464 2.09407043 -0.00531006 C4.3889107 -0.00972801 6.68367451 -0.0067908 8.97851562 -0.00341797 C10.56652847 -0.00409102 12.15454122 -0.00506106 13.74255371 -0.00631714 C17.07496112 -0.00779403 20.40734178 -0.00563983 23.73974609 -0.00097656 C28.02075073 0.00472073 32.30169268 0.00144168 36.58269501 -0.00454903 C39.86310299 -0.00815487 43.143496 -0.00701595 46.42390442 -0.00442123 C48.00283312 -0.00375203 49.58176317 -0.00458017 51.16069031 -0.00690079 C53.36367415 -0.0094277 55.56655511 -0.00558622 57.76953125 0 C59.65363708 0.00119339 59.65363708 0.00119339 61.57580566 0.00241089 C64.38476562 0.12939453 64.38476562 0.12939453 65.38476562 1.12939453 C65.38476562 3.43939453 65.38476562 5.74939453 65.38476562 8.12939453 C41.29476562 8.12939453 17.20476562 8.12939453 -7.61523438 8.12939453 C-7.61523438 0.00482348 -7.61523438 0.00482348 0 0 Z " fill="#D9E5F0" transform="translate(352.615234375,426.87060546875)"/>
<path d="M0 0 C0.69104324 -0.00175232 1.38208649 -0.00350464 2.09407043 -0.00531006 C4.3889107 -0.00972801 6.68367451 -0.0067908 8.97851562 -0.00341797 C10.56652847 -0.00409102 12.15454122 -0.00506106 13.74255371 -0.00631714 C17.07496112 -0.00779403 20.40734178 -0.00563983 23.73974609 -0.00097656 C28.02075073 0.00472073 32.30169268 0.00144168 36.58269501 -0.00454903 C39.86310299 -0.00815487 43.143496 -0.00701595 46.42390442 -0.00442123 C48.00283312 -0.00375203 49.58176317 -0.00458017 51.16069031 -0.00690079 C53.36367415 -0.0094277 55.56655511 -0.00558622 57.76953125 0 C59.65363708 0.00119339 59.65363708 0.00119339 61.57580566 0.00241089 C64.38476562 0.12939453 64.38476562 0.12939453 65.38476562 1.12939453 C65.38476562 3.43939453 65.38476562 5.74939453 65.38476562 8.12939453 C41.29476562 8.12939453 17.20476562 8.12939453 -7.61523438 8.12939453 C-7.61523438 0.00482348 -7.61523438 0.00482348 0 0 Z " fill="#D9E5F0" transform="translate(216.615234375,426.87060546875)"/>
<path d="M0 0 C0.69104324 -0.00175232 1.38208649 -0.00350464 2.09407043 -0.00531006 C4.3889107 -0.00972801 6.68367451 -0.0067908 8.97851562 -0.00341797 C10.56652847 -0.00409102 12.15454122 -0.00506106 13.74255371 -0.00631714 C17.07496112 -0.00779403 20.40734178 -0.00563983 23.73974609 -0.00097656 C28.02075073 0.00472073 32.30169268 0.00144168 36.58269501 -0.00454903 C39.86310299 -0.00815487 43.143496 -0.00701595 46.42390442 -0.00442123 C48.00283312 -0.00375203 49.58176317 -0.00458017 51.16069031 -0.00690079 C53.36367415 -0.0094277 55.56655511 -0.00558622 57.76953125 0 C59.65363708 0.00119339 59.65363708 0.00119339 61.57580566 0.00241089 C64.38476562 0.12939453 64.38476562 0.12939453 65.38476562 1.12939453 C65.38476562 3.43939453 65.38476562 5.74939453 65.38476562 8.12939453 C41.29476562 8.12939453 17.20476562 8.12939453 -7.61523438 8.12939453 C-7.61523438 0.00482348 -7.61523438 0.00482348 0 0 Z " fill="#D9E5F0" transform="translate(81.615234375,426.87060546875)"/>
<path d="M0 0 C2 2 2 2 2.125 5.625 C2.08375 6.73875 2.0425 7.8525 2 9 C2.9075 8.9175 3.815 8.835 4.75 8.75 C8 9 8 9 10.4375 10.5625 C12 13 12 13 11.75 16.75 C11.5025 17.8225 11.255 18.895 11 20 C7.62902617 21.49821059 5.79557881 22 2 22 C2.061875 22.928125 2.12375 23.85625 2.1875 24.8125 C2 28 2 28 0.875 29.875 C-1.88090884 31.52854531 -3.85075452 31.39365568 -7 31 C-8.875 29.875 -8.875 29.875 -10 28 C-10.1875 24.8125 -10.1875 24.8125 -10 22 C-11.093125 21.9175 -12.18625 21.835 -13.3125 21.75 C-17 21 -17 21 -19 19.25 C-20 17 -20 17 -19.9375 14.4375 C-18.78464398 11.44007435 -17.82976458 10.49348686 -15 9 C-12.25 8.8125 -12.25 8.8125 -10 9 C-10.061875 8.071875 -10.12375 7.14375 -10.1875 6.1875 C-10 3 -10 3 -8.9375 1.125 C-5.93267901 -0.61973477 -3.39189869 -0.30835443 0 0 Z " fill="#3BAADC" transform="translate(457,304)"/>
<path d="M0 0 C6.27 0 12.54 0 19 0 C18.9071875 2.289375 18.9071875 2.289375 18.8125 4.625 C18.83454026 12.43827386 21.4277583 15.4277583 27 21 C15.12 21 3.24 21 -9 21 C-7.35 19.35 -5.7 17.7 -4 16 C-0.07318745 11.23172761 -0.35870268 5.95446446 0 0 Z " fill="#28579D" transform="translate(169,242)"/>
<path d="M0 0 C6.27 0 12.54 0 19 0 C18.9175 1.69125 18.835 3.3825 18.75 5.125 C18.75 10.2915903 19.50780667 13.02277982 23 17 C24.32 18.32 25.64 19.64 27 21 C15.12 21 3.24 21 -9 21 C-7.35 19.35 -5.7 17.7 -4 16 C-0.07318745 11.23172761 -0.35870268 5.95446446 0 0 Z " fill="#28579D" transform="translate(304,242)"/>
<path d="M0 0 C0.66 0 1.32 0 2 0 C2.21914062 0.51949219 2.43828125 1.03898437 2.6640625 1.57421875 C5.5844659 7.99673191 8.59810234 11.6770398 15.375 14.3125 C16.24125 14.539375 17.1075 14.76625 18 15 C18 15.66 18 16.32 18 17 C17.33613281 17.268125 16.67226562 17.53625 15.98828125 17.8125 C9.48880862 20.69693749 5.93688523 23.47055285 3 30 C2.67 30.99 2.34 31.98 2 33 C1.34 33 0.68 33 0 33 C-0.43699219 31.98679688 -0.43699219 31.98679688 -0.8828125 30.953125 C-4.05323594 24.05396456 -6.794889 20.82830913 -13.875 17.75 C-14.57625 17.5025 -15.2775 17.255 -16 17 C-16 16.34 -16 15.68 -16 15 C-14.80375 14.649375 -13.6075 14.29875 -12.375 13.9375 C-6.50387328 11.74103238 -3.23762235 7.64401139 -0.625 2.0625 C-0.41875 1.381875 -0.2125 0.70125 0 0 Z " fill="#EF435F" transform="translate(85,108)"/>
<path d="M0 0 C2 2 2 2 2.3125 4.9375 C2 8 2 8 0.875 9.875 C-1.88090884 11.52854531 -3.85075452 11.39365568 -7 11 C-8.875 9.875 -8.875 9.875 -10 8 C-10.4375 5 -10.4375 5 -10 2 C-6.94783427 -1.63912068 -4.35383535 -1.23043173 0 0 Z " fill="#88D146" transform="translate(488,272)"/>
<path d="M0 0 C2 2 2 2 2.3125 4.9375 C2 8 2 8 0.875 9.875 C-1.88090884 11.52854531 -3.85075452 11.39365568 -7 11 C-8.875 9.875 -8.875 9.875 -10 8 C-10.4375 5 -10.4375 5 -10 2 C-6.94783427 -1.63912068 -4.35383535 -1.23043173 0 0 Z " fill="#F5C84C" transform="translate(124,74)"/>
</svg>
