<?xml version="1.0" encoding="UTF-8"?>
<svg version="1.1" xmlns="http://www.w3.org/2000/svg" width="512" height="512">
<path d="M0 0 C0.99422974 0.00215515 1.98845947 0.0043103 3.01281738 0.00653076 C17.48109955 0.05686686 31.66189071 0.35398296 45.875 3.3125 C46.85130371 3.51117676 47.82760742 3.70985352 48.83349609 3.91455078 C97.21339984 14.03634541 141.2005519 35.95291013 176.875 70.3125 C177.8640332 71.26068604 177.8640332 71.26068604 178.87304688 72.22802734 C188.36130305 81.37247479 197.1012044 90.66984009 204.875 101.3125 C205.73306152 102.46355017 206.59113451 103.61459177 207.44921875 104.765625 C213.48736829 112.95680614 218.84595521 121.47054105 223.875 130.3125 C224.23948242 130.94430176 224.60396484 131.57610352 224.97949219 132.22705078 C246.4740329 169.78084014 256.35126533 212.44304389 256.1875 255.4375 C256.18476578 256.9278476 256.18476578 256.9278476 256.18197632 258.44830322 C256.13719978 272.942192 255.67610213 287.05386097 252.875 301.3125 C252.71402832 302.20807617 252.55305664 303.10365234 252.38720703 304.02636719 C244.49797508 347.63313051 224.80850867 388.77106217 195.875 422.3125 C195.24078125 423.05757813 194.6065625 423.80265625 193.953125 424.5703125 C182.14198485 438.07529833 169.39139772 450.74668743 154.875 461.3125 C153.72505169 462.16899066 152.57531411 463.02576433 151.42578125 463.8828125 C143.23410474 469.9234414 134.71854922 475.28255071 125.875 480.3125 C125.24319824 480.67698242 124.61139648 481.04146484 123.96044922 481.41699219 C97.93166464 496.31500327 68.51361377 505.96041257 38.875 510.3125 C37.67254639 510.48910156 36.47009277 510.66570312 35.23120117 510.84765625 C23.51493596 512.45161689 11.87584274 512.71324553 0.0625 512.6875 C-0.92433777 512.68662384 -1.91117554 512.68574768 -2.92791748 512.68484497 C-67.88219852 512.49532667 -130.29571624 487.41579016 -177.125 442.3125 C-177.78435547 441.68037598 -178.44371094 441.04825195 -179.12304688 440.39697266 C-188.61130305 431.25252521 -197.3512044 421.95515991 -205.125 411.3125 C-205.98306152 410.16144983 -206.84113451 409.01040823 -207.69921875 407.859375 C-213.73736829 399.66819386 -219.09595521 391.15445895 -224.125 382.3125 C-224.48948242 381.68069824 -224.85396484 381.04889648 -225.22949219 380.39794922 C-240.15973018 354.31285999 -249.63885054 324.97664886 -254.125 295.3125 C-254.38990234 293.62882324 -254.38990234 293.62882324 -254.66015625 291.91113281 C-256.3170586 280.29802257 -256.52373513 268.78070055 -256.5 257.0625 C-256.49945618 256.05048523 -256.49891235 255.03847046 -256.49835205 253.99578857 C-256.4576051 237.46132605 -255.53386907 221.54185136 -252.125 205.3125 C-251.91601074 204.29720215 -251.70702148 203.2819043 -251.49169922 202.23583984 C-242.71380189 160.92383315 -223.71113066 122.2919774 -196.125 90.3125 C-195.49078125 89.56742187 -194.8565625 88.82234375 -194.203125 88.0546875 C-182.39198485 74.54970167 -169.64139772 61.87831257 -155.125 51.3125 C-153.97505169 50.45600934 -152.82531411 49.59923567 -151.67578125 48.7421875 C-143.48410474 42.7015586 -134.96854922 37.34244929 -126.125 32.3125 C-125.49319824 31.94801758 -124.86139648 31.58353516 -124.21044922 31.20800781 C-98.17975097 16.30890142 -68.76448404 6.66904478 -39.125 2.3125 C-37.32675781 2.04651001 -37.32675781 2.04651001 -35.4921875 1.77514648 C-23.66616559 0.14661384 -11.92341476 -0.04652724 0 0 Z M-15.37109375 145.59375 C-30.14356179 162.79571657 -30.59767523 183.35082176 -30.3125 204.8125 C-30.29741005 206.81118771 -30.28372935 208.80988658 -30.27148438 210.80859375 C-30.23885682 215.64351126 -30.18731831 220.4778778 -30.125 225.3125 C-31.04837158 225.29678955 -31.97174316 225.2810791 -32.9230957 225.26489258 C-36.35039889 225.21375168 -39.77729642 225.17614465 -43.20483398 225.14770508 C-44.68797199 225.13262232 -46.17106544 225.11215311 -47.65405273 225.08618164 C-49.78640745 225.04977384 -51.91817235 225.03276927 -54.05078125 225.01953125 C-55.33380127 225.0038208 -56.61682129 224.98811035 -57.9387207 224.97192383 C-61.04595843 225.02811718 -61.04595843 225.02811718 -62.79888916 226.57450867 C-64.4248103 228.70542922 -64.50938405 229.80198128 -64.52905273 232.4609375 C-64.54173691 233.29189941 -64.55442108 234.12286133 -64.56748962 234.97900391 C-64.56455399 235.87280762 -64.56161835 236.76661133 -64.55859375 237.6875 C-64.5638356 238.60837402 -64.56907745 239.52924805 -64.57447815 240.47802734 C-64.58090098 242.42479443 -64.57955798 244.37160031 -64.57104492 246.31835938 C-64.56253144 249.30148167 -64.59129783 252.28269181 -64.62304688 255.265625 C-64.62465884 257.15624942 -64.62408145 259.04687725 -64.62109375 260.9375 C-64.63232773 261.83130371 -64.64356171 262.72510742 -64.65513611 263.64599609 C-64.64575516 264.47695801 -64.63637421 265.30791992 -64.62670898 266.1640625 C-64.62654282 266.89447754 -64.62637665 267.62489258 -64.62620544 268.37744141 C-64.25146616 270.44812578 -64.25146616 270.44812578 -62.5282135 272.0534668 C-59.28018853 273.75509309 -56.82969242 273.65196643 -53.171875 273.60546875 C-52.18154266 273.59910149 -52.18154266 273.59910149 -51.17120361 273.59260559 C-49.07204609 273.57587435 -46.97386504 273.53823551 -44.875 273.5 C-43.44793058 273.48494584 -42.02084604 273.47125871 -40.59375 273.45898438 C-37.10385183 273.42599001 -33.6145213 273.37424743 -30.125 273.3125 C-30.13191345 274.14325656 -30.13191345 274.14325656 -30.13896656 274.99079609 C-30.24934205 288.46091129 -30.33178668 301.93094738 -30.38406086 315.40141773 C-30.41018795 321.91565069 -30.44564377 328.42955801 -30.50219727 334.94360352 C-30.55640453 341.22650554 -30.58639707 347.50909377 -30.59938622 353.79221153 C-30.60864629 356.19290803 -30.62672843 358.59358677 -30.65365028 360.99415016 C-30.68978922 364.34910222 -30.69495152 367.70274691 -30.69262695 371.05786133 C-30.71060333 372.05695526 -30.72857971 373.05604919 -30.74710083 374.0854187 C-30.72821433 376.59375406 -30.67057281 378.86457969 -30.125 381.3125 C-26.15289749 384.98625097 -21.81912888 384.7230956 -16.6484375 384.640625 C-15.8413736 384.63875183 -15.03430969 384.63687866 -14.20278931 384.63494873 C-12.50331466 384.62824761 -10.80385493 384.61437177 -9.10449219 384.59375 C-6.50180746 384.56252169 -3.89972878 384.55276825 -1.296875 384.546875 C0.35677823 384.53770705 2.0104253 384.52733195 3.6640625 384.515625 C4.83130356 384.50925018 4.83130356 384.50925018 6.02212524 384.50274658 C9.22568508 384.4602587 11.8147587 384.33258043 14.875 383.3125 C16.04917134 380.96415731 15.99829052 379.58892522 15.99525452 376.97189331 C15.99662918 376.06041534 15.99800385 375.14893738 15.99942017 374.20983887 C15.99582489 373.20714966 15.99222961 372.20446045 15.98852539 371.17138672 C15.98867142 370.11770905 15.98881744 369.06403137 15.9889679 367.97842407 C15.9882692 364.4829912 15.98047881 360.9876111 15.97265625 357.4921875 C15.97079192 355.07365956 15.96936809 352.65513124 15.96836853 350.23660278 C15.96454456 343.86121585 15.95471529 337.48585159 15.94366455 331.11047363 C15.93344785 324.60880846 15.92887035 318.10713963 15.92382812 311.60546875 C15.91309293 298.84113614 15.8962093 286.07681928 15.875 273.3125 C17.06577148 273.33344727 18.25654297 273.35439453 19.48339844 273.37597656 C23.90384889 273.44840962 28.32424696 273.49431172 32.74511719 273.53222656 C34.65796735 273.55233452 36.57075611 273.57962507 38.48339844 273.61425781 C41.23387811 273.66281249 43.98354477 273.68547658 46.734375 273.703125 C47.58868103 273.72377014 48.44298706 273.74441528 49.32318115 273.76568604 C54.19634007 273.78502447 54.19634007 273.78502447 58.3949585 271.47767639 C60.37563463 268.58011359 60.70342307 266.2223295 61.140625 262.74609375 C61.30820312 261.45509766 61.47578125 260.16410156 61.6484375 258.83398438 C61.76590332 257.82597778 61.76590332 257.82597778 61.88574219 256.79760742 C62.12169017 254.77832611 62.38262972 252.76359121 62.6484375 250.74804688 C65.13588425 238.30263813 65.13588425 238.30263813 62.63230896 226.69900513 C60.39971444 224.93750285 59.22464275 224.94821729 56.40356445 224.97192383 C55.05250359 224.97226372 55.05250359 224.97226372 53.67414856 224.97261047 C52.70531235 224.98809433 51.73647614 225.00357819 50.73828125 225.01953125 C49.24641548 225.02589851 49.24641548 225.02589851 47.72441101 225.03239441 C44.54516625 225.04919847 41.36655344 225.08685424 38.1875 225.125 C36.03321227 225.14004459 33.87891462 225.15373338 31.72460938 225.16601562 C26.44119033 225.19910756 21.15814031 225.24932408 15.875 225.3125 C15.96929302 220.49243988 16.07554484 215.67283792 16.19238281 210.85327148 C16.230418 209.21727514 16.26531288 207.58120239 16.296875 205.94506836 C16.62345118 189.22334719 16.62345118 189.22334719 18.875 181.3125 C19.143125 180.343125 19.41125 179.37375 19.6875 178.375 C21.32878211 175.52435213 22.74342585 175.21717698 25.875 174.3125 C26.81601562 173.97347656 27.75703125 173.63445312 28.7265625 173.28515625 C35.42082305 171.36837479 42.72092393 171.95216407 49.62304688 171.921875 C51.3159082 171.88707031 51.3159082 171.88707031 53.04296875 171.8515625 C54.57860474 171.83923584 54.57860474 171.83923584 56.14526367 171.82666016 C58.94608779 171.48099051 58.94608779 171.48099051 61.20849609 169.77514648 C63.50554382 166.38072509 63.43156632 163.33043439 63.37109375 159.37109375 C63.3732766 158.22496361 63.3732766 158.22496361 63.37550354 157.05567932 C63.37384707 155.4443886 63.36231383 153.83308165 63.34155273 152.22192383 C63.31255511 149.754689 63.32095572 147.28959816 63.33398438 144.82226562 C63.32774786 143.25519789 63.31935759 141.68813693 63.30859375 140.12109375 C63.31152939 139.38354355 63.31446503 138.64599335 63.31748962 137.88609314 C63.25420916 133.89498495 63.25420916 133.89498495 61.53540039 130.38696289 C42.33343603 117.96116592 -0.84654544 130.84186094 -15.37109375 145.59375 Z " fill="#000000" transform="translate(256.125,-0.3125)"/>
</svg>
