<?xml version="1.0" encoding="UTF-8"?>
<svg version="1.1" xmlns="http://www.w3.org/2000/svg" width="512" height="512">
<path d="M0 0 C4.08638173 2.34749589 5.68112052 4.53748699 7 9 C6.94210938 11.58574183 6.75362017 13.96347377 6.42211914 16.515625 C6.27973989 17.72644745 6.27973989 17.72644745 6.13448429 18.96173096 C5.77275207 21.97672477 5.38720425 24.98817142 5 28 C4.84275829 29.24467041 4.68551659 30.48934082 4.52350998 31.77172852 C3.2440809 41.89745424 1.920523 52.01727372 0.58963275 62.13634491 C0.12634156 65.66107829 -0.33542139 69.18601124 -0.79719871 72.71094322 C-1.88532661 81.01689214 -2.97590172 89.3225171 -4.06811523 97.62792969 C-5.19387391 106.18872579 -6.31565567 114.75003647 -7.43550545 123.31160736 C-8.40069082 130.68975581 -9.36817919 138.06759968 -10.33756012 145.44519806 C-10.91509215 149.84069842 -11.49177561 154.23630575 -12.06628609 158.63220215 C-12.60454037 162.74982861 -13.14566955 166.86706705 -13.68904877 170.98402023 C-13.88801644 172.49521821 -14.08596374 174.00655093 -14.28282738 175.51802444 C-14.55112388 177.57667983 -14.8230684 179.63482089 -15.09596252 181.69287109 C-15.32297521 183.42154922 -15.32297521 183.42154922 -15.55457401 185.18515015 C-16 188 -16 188 -17 191 C-16.26247151 190.99631283 -15.52494303 190.99262566 -14.76506519 190.98882675 C3.17882893 190.90049774 21.12267968 190.83430114 39.0667448 190.79275131 C47.74436436 190.77212415 56.42183881 190.74400068 65.09936523 190.69824219 C72.66251513 190.65837905 80.22555995 190.6325683 87.78881198 190.62364602 C91.79371925 190.61843035 95.79832589 190.60616871 99.80313683 190.57707977 C103.57308771 190.54991874 107.34261429 190.54155626 111.11265373 190.54756927 C112.49576371 190.54646933 113.87888796 190.53851909 115.2619133 190.5231781 C117.15181444 190.50324392 119.04194352 190.51045317 120.93193054 190.51898193 C122.51787537 190.51345118 122.51787537 190.51345118 124.13585949 190.50780869 C127.72660167 191.12486365 129.39753205 192.5027983 132 195 C133.89526807 198.79053615 133.55763867 202.87648421 133 207 C131.53400279 210.77986057 129.50095954 214.11920212 127.375 217.5625 C126.17209302 219.59701568 124.97030829 221.63219524 123.76953125 223.66796875 C123.1451416 224.71130371 122.52075195 225.75463867 121.87744141 226.82958984 C118.84123532 231.95679039 115.95690255 237.16687597 113.0625 242.375 C111.88858449 244.47427363 110.71410219 246.57323041 109.5390625 248.671875 C108.35931619 250.78121711 107.17962876 252.89059215 106 255 C98.65789261 268.1291297 91.30171411 281.24965906 83.89208984 294.34082031 C78.15088304 304.48992675 72.4578339 314.66585758 66.76611328 324.84277344 C63.26405868 331.10328908 59.75786247 337.36148612 56.25244141 343.62011719 C53.32187215 348.85275048 50.39230956 354.08594222 47.46484375 359.3203125 C41.2994112 370.34170521 35.1126603 381.35045319 28.89208984 392.34082031 C22.55715696 403.53949514 16.2798583 414.77038025 10 426 C2.66429743 439.11767663 -4.67897127 452.23054004 -12.09033203 465.30566406 C-14.98607471 470.41891508 -17.86213013 475.54228828 -20.71484375 480.6796875 C-21.33617187 481.79666016 -21.9575 482.91363281 -22.59765625 484.06445312 C-23.78705125 486.20460655 -24.97345832 488.34642446 -26.15625 490.49023438 C-35.24442839 506.82961893 -35.24442839 506.82961893 -40 510 C-43.76904461 510.6820176 -47.45628171 510.83098707 -50.88671875 508.984375 C-53.5498242 506.84357352 -54.91352869 505.25941392 -56 502 C-55.95331519 499.44118991 -55.84314897 496.92994622 -55.66712952 494.379776 C-55.59405047 493.24588616 -55.59405047 493.24588616 -55.51949507 492.08908945 C-54.97502883 484.01475925 -54.17011238 475.97109571 -53.32592773 467.92358398 C-53.15797451 466.29551436 -52.99035163 464.66741063 -52.82302856 463.03927612 C-52.37394971 458.67850244 -51.92033251 454.31821215 -51.46581149 449.95800281 C-50.98932059 445.37926875 -50.51712622 440.80009154 -50.04444885 436.22096252 C-49.15145142 427.57617922 -48.25466832 418.93179314 -47.35647684 410.28754812 C-46.33294265 400.43516991 -45.313702 390.58234896 -44.29479682 380.72949111 C-42.20126111 360.4858361 -40.1024152 340.24273463 -38 320 C-39.08310093 319.99780016 -39.08310093 319.99780016 -40.1880827 319.99555588 C-57.7566086 319.95850616 -75.3249235 319.89951596 -92.89329052 319.81609726 C-101.38923141 319.7762858 -109.8850794 319.74390405 -118.38110352 319.72900391 C-125.78614572 319.71599826 -133.19098367 319.68906159 -140.59591085 319.64538693 C-144.51690909 319.62274743 -148.43765519 319.60709079 -152.35872459 319.60811615 C-156.05000316 319.60886131 -159.74072383 319.5909693 -163.43185806 319.55883217 C-165.43115112 319.54626223 -167.43053773 319.55340843 -169.42985535 319.56114197 C-170.62312439 319.54722916 -171.81639343 319.53331635 -173.04582214 319.51898193 C-174.08099566 319.51529476 -175.11616919 319.51160759 -176.1827116 319.50780869 C-179.73834593 318.86691512 -181.41099651 317.47005944 -184 315 C-186.50723628 310.78328445 -185.92835808 307.70834606 -185 303 C-183.67163086 300.0793457 -183.67163086 300.0793457 -181.96484375 297.17578125 C-181.32869141 296.07943359 -180.69253906 294.98308594 -180.03710938 293.85351562 C-179.33733017 292.67312337 -178.63745778 291.49278636 -177.9375 290.3125 C-177.21168283 289.0690636 -176.48709555 287.82490857 -175.76367188 286.58007812 C-174.26108937 283.99670586 -172.75328338 281.41649365 -171.24169922 278.83837891 C-167.77800806 272.92071967 -164.39322682 266.95826196 -161 261 C-159.67011169 258.6700922 -158.33902129 256.34087228 -157.0078125 254.01171875 C-156.67814987 253.43473236 -156.34848724 252.85774597 -156.00883484 252.26327515 C-153.99095518 248.73196265 -151.97067673 245.2020332 -149.94869995 241.67306519 C-148.2567216 238.71996984 -146.56562536 235.76637011 -144.875 232.8125 C-144.54244202 232.23149536 -144.20988403 231.65049072 -143.86724854 231.05187988 C-139.15330102 222.81214849 -134.49632005 214.54203158 -129.875 206.25 C-124.77785402 197.10554429 -119.55001254 188.04640908 -114.24951172 179.01855469 C-110.07710687 171.89414138 -106.01487056 164.71422053 -102 157.5 C-96.86368611 148.27068598 -91.59787465 139.12763027 -86.25 130.01953125 C-82.07756041 122.8947181 -78.01504756 115.71453859 -74 108.5 C-68.86368611 99.27068598 -63.59787465 90.12763027 -58.25 81.01953125 C-54.07755831 73.89471453 -50.01519379 66.71445985 -46 59.5 C-40.24235545 49.15865439 -34.33435602 38.91428396 -28.3359375 28.7109375 C-26.13696616 24.96543686 -23.9767684 21.20189005 -21.8515625 17.4140625 C-21.35809326 16.54056152 -20.86462402 15.66706055 -20.35620117 14.76708984 C-19.4416839 13.14453382 -18.53497272 11.51754101 -17.63793945 9.88525391 C-13.31825018 2.25644878 -9.06590229 -1.62890077 0 0 Z " fill="#000000" transform="translate(282,1)"/>
</svg>
