<?xml version="1.0" encoding="UTF-8"?>
<svg version="1.1" xmlns="http://www.w3.org/2000/svg" width="512" height="512">
<path d="M0 0 C0.66547852 0.18191895 1.33095703 0.36383789 2.01660156 0.55126953 C23.50700857 6.54224249 42.16078269 18.54110288 58 34 C58.85078125 34.77730469 59.7015625 35.55460937 60.578125 36.35546875 C80.67944592 55.2241615 92.32838678 82.21384363 97 109 C97.27650391 110.5159375 97.27650391 110.5159375 97.55859375 112.0625 C101.66779667 148.71804462 92.58442108 184.72789463 69.60839844 213.75830078 C47.73574091 240.84674587 16.92721273 259.75069519 -18 264 C-21.3 264 -24.6 264 -28 264 C-28 273.9 -28 283.8 -28 294 C-23.06337402 293.97905273 -18.12674805 293.95810547 -13.04052734 293.93652344 C3.25226733 293.87030676 19.54506723 293.82588217 35.8379612 293.79275131 C45.71837853 293.77212593 55.59866839 293.74400574 65.47900391 293.69824219 C74.0906916 293.65837375 82.70228697 293.63256701 91.31406438 293.62364602 C95.87398861 293.61843129 100.43364873 293.60617526 104.99348831 293.57707977 C109.28626289 293.54991055 113.57866479 293.54155802 117.87151718 293.54756927 C119.44609859 293.54646971 121.02069258 293.53852461 122.59519958 293.5231781 C124.74805484 293.50322547 126.89950988 293.50807854 129.05239868 293.51898193 C130.25626032 293.51529476 131.46012196 293.51160759 132.70046425 293.50780869 C137.57174322 294.23445673 140.72165798 296.47590703 143.85668945 300.21362305 C145.41390166 304.00872509 145.37263522 307.55070041 145.29296875 311.58203125 C145.28872391 312.39621017 145.28447906 313.2103891 145.28010559 314.04924011 C145.26337753 316.63733668 145.22573712 319.22464071 145.1875 321.8125 C145.17244553 323.57225434 145.15875846 325.33202095 145.14648438 327.09179688 C145.11349336 331.39483437 145.0617524 335.69728303 145 340 C146.07741455 339.98179199 147.1548291 339.96358398 148.26489258 339.94482422 C152.36360755 340.00537129 155.83183541 340.8608709 159.6875 342.125 C160.73514526 342.46494995 160.73514526 342.46494995 161.80395508 342.81176758 C182.80023281 349.85377353 199.03817218 363.43035359 209.13183594 383.2109375 C218.15515215 401.80566787 220.83526095 424.64956391 214.390625 444.55078125 C209.99293153 455.45854341 205.01665675 465.26291712 197 474 C196.33613281 474.75539063 195.67226563 475.51078125 194.98828125 476.2890625 C181.76292906 490.51670571 162.49523583 499.5871021 143.08203125 500.3359375 C121.46103031 500.65044965 101.80944194 496.4354433 85 482 C84.36191406 481.50371094 83.72382813 481.00742187 83.06640625 480.49609375 C66.84215303 467.37121054 58.42876857 447.30083916 56 427 C54.63134118 405.548905 60.62109812 383.6962468 74.90649414 367.2980957 C87.54880097 353.37816731 103.33524108 343.48103479 122 340 C124.31 340 126.62 340 129 340 C129 330.1 129 320.2 129 310 C77.19 310 25.38 310 -28 310 C-28 319.9 -28 329.8 -28 340 C-24.37 340.33 -20.74 340.66 -17 341 C-1.60154447 344.35655989 11.18107157 352.89384339 22 364 C23.12535156 365.12921875 23.12535156 365.12921875 24.2734375 366.28125 C39.54520747 382.4307079 44.47364447 403.08251378 44.21484375 424.65234375 C43.5633983 447.63096916 31.87273027 466.81403855 15.6328125 482.25 C-2.0519382 497.49342148 -23.42194189 501.35508584 -46.11669922 500.21875 C-63.58941624 498.8931315 -79.25325317 490.73646504 -92 479 C-92.63035156 478.46117187 -93.26070312 477.92234375 -93.91015625 477.3671875 C-107.06643246 465.43962957 -115.99303527 445.37610926 -117.14208984 427.83032227 C-117.75763125 412.39335618 -117.20656358 395.18934031 -108 382 C-105 380 -105 380 -101.6171875 379.703125 C-97.06580995 378.81840798 -95.92245479 377.37023561 -93.125 373.75 C-92.36445313 372.79609375 -91.60390625 371.8421875 -90.8203125 370.859375 C-88.46005479 367.15184571 -88.05870313 364.37952362 -87.875 360.0625 C-86.4514742 355.0801597 -82.37635894 352.42587413 -78.02539062 349.81518555 C-75.97901811 348.74841175 -73.91488794 347.76398071 -71.8125 346.8125 C-71.0714502 346.47154297 -70.33040039 346.13058594 -69.56689453 345.77929688 C-61.00498596 341.95096673 -53.42665386 340 -44 340 C-44 330.1 -44 320.2 -44 310 C-97.79 310 -151.58 310 -207 310 C-207 319.9 -207 329.8 -207 340 C-204.69 340 -202.38 340 -200 340 C-185.16928097 342.76597459 -171.09975342 349.84362526 -160 360 C-159.31808594 360.59039062 -158.63617188 361.18078125 -157.93359375 361.7890625 C-143.20633405 375.33468297 -134.97322961 395.6984041 -133.796875 415.40234375 C-133.47970847 439.32198606 -140.96813918 459.97951168 -157.5390625 477.625 C-174.25873952 493.76081529 -194.77723442 500.68818537 -217.7277832 500.46850586 C-237.07312944 499.90902027 -254.66252714 493.15526018 -269 480 C-269.75539063 479.33613281 -270.51078125 478.67226563 -271.2890625 477.98828125 C-285.24191049 465.01836585 -294.65157769 445.74798468 -295.43359375 426.66796875 C-295.4572833 424.50794201 -295.45811186 422.3475583 -295.4375 420.1875 C-295.42847656 419.04748535 -295.41945313 417.9074707 -295.41015625 416.73291016 C-294.9932317 396.3817806 -286.59297194 377.15626682 -272.5078125 362.38671875 C-259.28768988 349.76054366 -241.6660454 339.75498031 -223 340 C-223.0314209 338.36587158 -223.0314209 338.36587158 -223.06347656 336.69873047 C-223.13611865 332.63978322 -223.18188718 328.58089294 -223.21972656 324.52148438 C-223.2397871 322.76780521 -223.26704251 321.01419247 -223.30175781 319.26074219 C-223.35052302 316.73355682 -223.37302392 314.20725909 -223.390625 311.6796875 C-223.41127014 310.90132538 -223.43191528 310.12296326 -223.45318604 309.3210144 C-223.45531917 304.09406182 -222.53824301 301.09019684 -219 297 C-214.9356775 293.9679611 -211.96457245 293.62812272 -206.94487 293.63923645 C-206.24639397 293.63667318 -205.54791794 293.6341099 -204.82827598 293.63146895 C-202.49424852 293.62653833 -200.16087189 293.6430114 -197.8269043 293.65942383 C-196.15131139 293.66027026 -194.47571738 293.65979464 -192.80012512 293.65809631 C-188.25501405 293.65723556 -183.71014048 293.6748743 -179.1650846 293.69581819 C-174.41384571 293.7145716 -169.66260137 293.71633438 -164.91133118 293.71989441 C-155.91578948 293.72921879 -146.92035717 293.75383792 -137.92486364 293.78394288 C-127.68312 293.81747462 -117.44137114 293.83396982 -107.19958627 293.84902918 C-86.13299482 293.88038711 -65.06650815 293.93375957 -44 294 C-44.33 284.43 -44.66 274.86 -45 265 C-48.114375 264.608125 -51.22875 264.21625 -54.4375 263.8125 C-80.13787383 260.26686316 -104.3504538 250.14641929 -124 233 C-125.43085938 231.78570312 -125.43085938 231.78570312 -126.890625 230.546875 C-151.54683348 209.17100388 -168.26794205 176.59080742 -171 144 C-171.94790281 126.319552 -172.18891497 107.52562922 -165 91 C-162 89 -162 89 -159.5625 88.89453125 C-156.46617971 87.81365115 -156.28030635 87.17992509 -154.875 84.32421875 C-154.22935395 82.78715603 -153.60505643 81.24098877 -153 79.6875 C-152.66355469 78.91470703 -152.32710937 78.14191406 -151.98046875 77.34570312 C-151.11996861 75.216423 -150.39035709 73.26395356 -150 71 C-151.32959805 68.86435285 -151.32959805 68.86435285 -153 67 C-152.78431723 55.42053141 -141.60270502 44.91686638 -134 37 C-133.16855469 36.10539062 -132.33710938 35.21078125 -131.48046875 34.2890625 C-98.67675294 -0.00354818 -45.43394299 -13.03467907 0 0 Z " fill="#010101" transform="translate(295,8)"/>
<path d="M0 0 C9.05023552 8.00129876 16.80136739 16.58881559 23 27 C23.37995117 27.63776367 23.75990234 28.27552734 24.15136719 28.93261719 C40.41419074 56.77918315 45.48790016 88.97148196 37.39794922 120.33398438 C31.54965002 141.02864011 20.84840567 161.17627573 5 176 C4.34 176 3.68 176 3 176 C2.88785156 175.09121094 2.88785156 175.09121094 2.7734375 174.1640625 C1.25337015 164.47735878 -3.01269546 156.7695496 -10.69140625 150.5859375 C-20.47523694 143.86472725 -31.94124074 140.16164366 -43.3203125 137.109375 C-46 136 -46 136 -47.375 133.875 C-47.58125 133.25625 -47.7875 132.6375 -48 132 C-46.98292969 131.25169922 -46.98292969 131.25169922 -45.9453125 130.48828125 C-31.81928989 119.5905048 -21.29583488 104.81655633 -18 87 C-17.66243587 82.3608607 -17.60797618 77.74990943 -17.66381836 73.10253906 C-17.68746774 71.00286415 -17.68434823 68.90446275 -17.67773438 66.8046875 C-17.71812177 46.49386883 -23.29192346 28.43554812 -37.390625 13.390625 C-51.23763129 0.70444558 -67.74900187 -2.73805298 -85.84570312 -2.13183594 C-100.18858202 -1.25409856 -113.75001992 7.38191793 -123.5625 17.4375 C-139.92799295 37.00742514 -140.46541304 62.79857724 -139 87 C-136.56378946 104.69536749 -124.76760188 120.08214104 -110.87109375 130.63671875 C-110.25363281 131.08660156 -109.63617188 131.53648437 -109 132 C-109.99779269 134.73665063 -110.56819006 135.79228501 -113.23974609 137.07739258 C-114.15836426 137.34704834 -115.07698242 137.6167041 -116.0234375 137.89453125 C-117.03921875 138.20640381 -118.055 138.51827637 -119.1015625 138.83959961 C-120.18179688 139.16065674 -121.26203125 139.48171387 -122.375 139.8125 C-136.33696174 144.2342681 -148.65602739 148.97665401 -156.33984375 162.328125 C-158.4982576 166.8446636 -159.57652845 171.02420928 -160 176 C-164.10817665 174.4354374 -166.51342664 171.47925064 -169.25 168.1875 C-169.73307617 167.6085498 -170.21615234 167.02959961 -170.71386719 166.43310547 C-187.87067414 145.42767084 -197.39044778 119.57779411 -197.31567383 92.57885742 C-197.3125199 90.20249235 -197.33602053 87.8273834 -197.36132812 85.45117188 C-197.39309107 77.18817719 -196.90998916 69.79189877 -194.54760742 61.7902832 C-193.90747855 58.52856549 -194.16612262 56.20584572 -195 53 C-196.93704708 51.10709491 -196.93704708 51.10709491 -199 50 C-197.21440518 43.04634211 -194.7441867 37.12685097 -191 31 C-189.3603125 31.0309375 -189.3603125 31.0309375 -187.6875 31.0625 C-184.05615809 31.18544452 -184.05615809 31.18544452 -181 30 C-180.30249547 28.34600192 -179.64203981 26.67630758 -179 25 C-160.79057014 -2.52499082 -133.33313038 -20.54812118 -101.27099609 -27.57861328 C-64.84282656 -34.33791457 -28.0481678 -23.81067482 0 0 Z " fill="#7FD060" transform="translate(337,48)"/>
<path d="M0 0 C31.38308248 -1.21744717 60.82202897 11.34426717 83.80859375 32.4296875 C91.31699786 39.56192306 97.68690345 47.0761564 103 56 C103.37995117 56.63776367 103.75990234 57.27552734 104.15136719 57.93261719 C120.41419074 85.77918315 125.48790016 117.97148196 117.39794922 149.33398438 C111.54965002 170.02864011 100.84840567 190.17627573 85 205 C84.34 205 83.68 205 83 205 C82.88785156 204.09121094 82.88785156 204.09121094 82.7734375 203.1640625 C81.12424838 192.65452399 76.41148891 185.39273157 68 179 C68.47832275 178.30777344 68.47832275 178.30777344 68.96630859 177.6015625 C72.47210715 172.30030268 74.6907351 167.03671098 76.625 161 C76.92349854 160.0706665 77.22199707 159.14133301 77.52954102 158.18383789 C84.45162011 136.08606573 86.07395204 111.56514785 80 89 C79.81195801 88.29294922 79.62391602 87.58589844 79.43017578 86.85742188 C70.25301965 53.71160736 48.65512661 26.58445016 18.9296875 9.64453125 C12.81082633 6.25868628 6.66330754 3.17577389 0 1 C0 0.67 0 0.34 0 0 Z " fill="#4EBF22" transform="translate(257,19)"/>
<path d="M0 0 C3.57536813 2.7880851 6.81298077 5.77907631 10 9 C10.62390625 9.59039062 11.2478125 10.18078125 11.890625 10.7890625 C15.99821766 14.98916851 18.66126824 19.74725476 21.3125 24.9375 C21.65039551 25.59371338 21.98829102 26.24992676 22.33642578 26.92602539 C28.91737248 40.41280097 29.52623185 58.85061621 25.4375 73.1875 C18.92191384 90.53904308 18.92191384 90.53904308 14 93 C13.59910156 92.10539062 13.19820313 91.21078125 12.78515625 90.2890625 C8.26431384 80.54905813 2.92040327 72.34295041 -6 66 C-5.16349338 62.15729773 -3.612101 58.85646351 -1.9375 55.31640625 C1.69187095 46.34883553 0.60097905 36.73537131 -2.67578125 27.859375 C-6.98952459 18.54474337 -14.26560371 12.10938548 -23.375 7.625 C-32.57509254 4.2988127 -43.81951864 4.17464107 -52.84716797 8.05517578 C-62.67884394 12.93456015 -68.71726267 20.06404938 -73 30 C-76.4386597 40.3159791 -74.32670776 52.37350963 -70 62 C-69.63589266 63.32526025 -69.29132003 64.65686132 -69 66 C-69.49628906 66.40089844 -69.99257812 66.80179687 -70.50390625 67.21484375 C-79.30405108 74.57891181 -84.69141783 82.37745872 -89 93 C-92.40502358 89.95533529 -94.18759392 87.02479211 -96.0625 82.875 C-96.54847656 81.82054687 -97.03445312 80.76609375 -97.53515625 79.6796875 C-101.10624285 70.70911796 -102.55176684 62.9374898 -102.5 53.25 C-102.49863037 52.10490967 -102.49726074 50.95981934 -102.49584961 49.7800293 C-102.35581768 42.0420296 -101.44569761 35.90617458 -98.19140625 28.83203125 C-96.8003625 25.52545184 -96.2709823 22.57008422 -96 19 C-97.43750191 17.31201173 -97.43750191 17.31201173 -99 16 C-98.63552041 12.17720239 -96.53684005 9.79532993 -94.1875 6.875 C-93.50042969 6.00617188 -92.81335938 5.13734375 -92.10546875 4.2421875 C-90.12008166 2.12787917 -88.66272798 1.06509119 -86 0 C-85.01 0.66 -84.02 1.32 -83 2 C-78.27355054 2 -75.70625891 0.98258907 -71.875 -1.75 C-50.83359631 -16.75375005 -20.75584348 -13.71127242 0 0 Z " fill="#21A3FA" transform="translate(296,374)"/>
<path d="M0 0 C1.35605347 0.82250244 1.35605347 0.82250244 2.73950195 1.66162109 C3.75334961 2.26619141 4.76719727 2.87076172 5.81176758 3.49365234 C6.85655273 4.13431641 7.90133789 4.77498047 8.9777832 5.43505859 C11.04327428 6.67876724 13.10967622 7.92096446 15.17700195 9.16162109 C16.18972168 9.77021973 17.20244141 10.37881836 18.24584961 11.00585938 C27.82605345 17.4036141 27.82605345 17.4036141 38.75512695 19.50537109 C46.92320972 17.26512651 54.31913791 12.08453835 61.38793945 7.57177734 C62.26281006 7.02231445 63.13768066 6.47285156 64.0390625 5.90673828 C65.75664215 4.82161499 67.46079798 3.71486945 69.14892578 2.58447266 C74.09181419 -0.54387447 77.43265375 -1.88659839 83.26782227 -0.76489258 C91.01000452 1.43607787 98.03805979 5.88676343 102.2902832 12.81005859 C105.08969293 19.17235343 104.47495586 25.98742971 104.2902832 32.81005859 C83.39322887 45.16705524 62.78591814 52.98413151 38.2277832 52.99755859 C37.07600586 53.00980469 35.92422852 53.02205078 34.73754883 53.03466797 C13.89573641 53.06973552 -4.46325642 47.50095644 -22.7097168 37.81005859 C-23.47606445 37.42237305 -24.24241211 37.0346875 -25.03198242 36.63525391 C-27.12147878 35.48686375 -28.93409544 34.40152865 -30.7097168 32.81005859 C-31.5612793 29.72412109 -31.5612793 29.72412109 -31.3347168 26.43505859 C-31.25608398 25.28908203 -31.17745117 24.14310547 -31.09643555 22.96240234 C-30.11870559 14.99242176 -27.77884828 10.092861 -21.7097168 4.81005859 C-15.11954384 0.76608883 -7.6476645 -3.35838515 0 0 Z " fill="#21A4FC" transform="translate(221.709716796875,204.18994140625)"/>
<path d="M0 0 C0.9688916 0.01160156 1.9377832 0.02320313 2.93603516 0.03515625 C20.41260338 0.43428526 36.23624367 7.11882896 48.57421875 19.59375 C62.5311264 34.81169525 67.17779884 51.63422717 66.3203125 71.78515625 C65.53340958 82.21948897 61.74818293 92.57284432 56.125 101.375 C55.135 102.035 54.145 102.695 53.125 103.375 C52.65191406 102.48039062 52.17882812 101.58578125 51.69140625 100.6640625 C46.88477934 91.79596496 41.70123583 83.09249056 33.125 77.375 C33.69834231 73.92287576 34.62502449 71.23875049 36.1875 68.125 C39.6780669 59.58397917 39.6958147 48.55604506 36.5625 39.875 C31.6698182 29.81591994 24.45860293 22.80899273 14.125 18.5 C4.8384685 15.77442749 -7.00001506 15.8632289 -15.73828125 20.12109375 C-25.36374335 25.76967388 -31.26303894 33.03894769 -35.18359375 43.5703125 C-37.34833737 52.35158887 -36.48180626 61.15408124 -32.875 69.375 C-32.44574219 70.41527344 -32.44574219 70.41527344 -32.0078125 71.4765625 C-31.32053818 73.1194754 -30.60148946 74.7490474 -29.875 76.375 C-30.5040625 76.87386719 -31.133125 77.37273437 -31.78125 77.88671875 C-40.43636121 85.14710571 -46.59492363 93.43594531 -49.875 104.375 C-58.47848652 97.24639688 -62.41681044 84.18122623 -63.875 73.375 C-64.93035178 53.38420183 -60.72845134 36.32016635 -47.2421875 20.8359375 C-34.74063525 7.83927427 -18.13438605 -0.27992036 0 0 Z " fill="#0180F8" transform="translate(78.875,362.625)"/>
<path d="M0 0 C0.94617188 -0.00773437 1.89234375 -0.01546875 2.8671875 -0.0234375 C17.43192532 0.01690803 30.58862408 5.32571883 42 14.25 C43.010625 14.971875 44.02125 15.69375 45.0625 16.4375 C56.89936724 26.69835375 64.91439897 42.76399201 66.1640625 58.28808594 C67.01595105 73.85634925 64.04329828 90.78245731 54 103.25 C53.34 103.25 52.68 103.25 52 103.25 C51.6596875 102.49976563 51.319375 101.74953125 50.96875 100.9765625 C46.32191467 91.16383045 40.75083532 82.81312649 32 76.25 C32.52400391 75.16332031 32.52400391 75.16332031 33.05859375 74.0546875 C33.51363281 73.08789062 33.96867187 72.12109375 34.4375 71.125 C34.88996094 70.17367187 35.34242188 69.22234375 35.80859375 68.2421875 C39.3819818 59.26771127 39.35893537 48.73973386 35.8125 39.8125 C33.72716285 35.30221366 31.34942689 31.88652063 28 28.25 C28 27.59 28 26.93 28 26.25 C27.19755859 25.84974609 27.19755859 25.84974609 26.37890625 25.44140625 C24.6138536 24.55743079 22.85120029 23.66866109 21.08984375 22.77734375 C20.04957031 22.25269531 19.00929688 21.72804688 17.9375 21.1875 C16.89464844 20.66027344 15.85179687 20.13304687 14.77734375 19.58984375 C6.95051649 15.81403257 -3.14154991 16.04350293 -11.5078125 18.12109375 C-22.2289259 22.30260217 -28.99690462 28.94107418 -34 39.25 C-35.9084087 43.95216165 -36.41873576 48.34220306 -36.4375 53.375 C-36.44209229 54.11838623 -36.44668457 54.86177246 -36.45141602 55.62768555 C-36.3304182 61.70046765 -34.81451432 66.41669199 -31.99609375 71.83203125 C-31 74.25 -31 74.25 -31.12109375 76.3828125 C-32.23577918 78.75089976 -33.5400715 79.73874123 -35.625 81.3125 C-40.68652442 85.53043702 -43.72913657 90.5943045 -47 96.25 C-47.43699219 96.99636719 -47.87398438 97.74273437 -48.32421875 98.51171875 C-49.23202866 100.08207062 -50.11910693 101.66439247 -51 103.25 C-59.14684634 96.61182891 -62.53646645 84.23455108 -64 74.25 C-65.70063788 55.7864431 -62.44341268 38.74124377 -50.453125 24.01171875 C-37.32421021 8.73738732 -20.21395417 -0.16523668 0 0 Z " fill="#0180F8" transform="translate(431,362.75)"/>
<path d="M0 0 C1.21816406 0.16435547 1.21816406 0.16435547 2.4609375 0.33203125 C3.358125 0.44804688 4.2553125 0.5640625 5.1796875 0.68359375 C7.49059673 1.08460447 9.69655196 1.60609816 11.9609375 2.20703125 C21.93164818 4.53647162 32.47817644 3.80538568 42.1875 0.80078125 C45.26629599 0.03789375 47.67594769 -0.20844634 50.8359375 0.14453125 C53.109375 1.75390625 53.109375 1.75390625 55.2109375 3.89453125 C60.00170625 8.4668021 64.52129759 11.03965128 70.8359375 13.14453125 C72.07577037 27.94380615 68.71826437 39.19857196 59.6484375 51.08203125 C51.46340784 60.34073601 40.12604037 69.30187716 27.35546875 70.34765625 C14.47895514 70.57062618 3.98434727 65.32180064 -5.640625 56.75390625 C-15.34961882 46.4972256 -22.71731744 34.70336342 -22.5390625 20.26953125 C-22.46347795 17.88658615 -22.33090752 15.5236177 -22.1640625 13.14453125 C-21.32875 12.81582031 -21.32875 12.81582031 -20.4765625 12.48046875 C-14.22426192 9.88238439 -8.1731981 6.69334877 -3.7265625 1.44921875 C-2.1640625 0.14453125 -2.1640625 0.14453125 0 0 Z " fill="#FDE3BF" transform="translate(234.1640625,105.85546875)"/>
<path d="M0 0 C3.57536813 2.7880851 6.81298077 5.77907631 10 9 C10.62390625 9.59039062 11.2478125 10.18078125 11.890625 10.7890625 C15.99821766 14.98916851 18.66126824 19.74725476 21.3125 24.9375 C21.65039551 25.59371338 21.98829102 26.24992676 22.33642578 26.92602539 C28.91737248 40.41280097 29.52623185 58.85061621 25.4375 73.1875 C18.92191384 90.53904308 18.92191384 90.53904308 14 93 C13.59910156 92.10539062 13.19820313 91.21078125 12.78515625 90.2890625 C8.26431384 80.54905813 2.92040327 72.34295041 -6 66 C-5.16349338 62.15729773 -3.612101 58.85646351 -1.9375 55.31640625 C1.69187095 46.34883553 0.60097905 36.73537131 -2.67578125 27.859375 C-6.69937226 19.17126697 -13.31504227 12.29465566 -22.22265625 8.69921875 C-24.51081015 7.86599021 -26.79985803 7.03521208 -29.08984375 6.20703125 C-32.6443268 4.73275573 -34.50727552 2.90817856 -37 0 C-42.402064 -4.85448637 -46.78775758 -7.81981488 -54 -9 C-54 -9.33 -54 -9.66 -54 -10 C-35.72679465 -14.66307937 -15.45851656 -10.2118679 0 0 Z " fill="#0180F9" transform="translate(296,374)"/>
<path d="M0 0 C3.3125 0.8125 3.3125 0.8125 6.875 2.375 C14.98823126 5.52411271 23.97378928 4.45443586 31.99609375 1.56640625 C34.85036114 0.6374457 37.30285195 -0.00863203 40.3125 -0.1875 C49.08832826 4.6005485 53.94502826 13.7707869 57.3125 22.8125 C57.71645244 25.13464943 58.07088034 27.46789438 58.3125 29.8125 C41.80853376 41.17693323 24.73275108 45.08363282 4.875 41.75 C-4.41936313 39.7349358 -13.2195038 35.77236071 -20.6875 29.8125 C-19.26624506 18.51597369 -14.50005681 9.13140311 -5.6875 1.8125 C-2.6875 -0.1875 -2.6875 -0.1875 0 0 Z " fill="#FB4654" transform="translate(239.6875,450.1875)"/>
<path d="M0 0 C1.49763784 0.5705287 2.99225779 1.14953746 4.4765625 1.75390625 C16.00612658 6.09321491 26.52149188 4.14217662 37.6875 -0.1875 C43.01628003 0.1526349 46.21618718 4.16432332 49.625 8 C53.15127258 12.88886622 56.27839503 18.07493813 57.625 24 C57.851875 24.99 58.07875 25.98 58.3125 27 C57.48478183 30.61186111 56.71022446 31.04709994 53.75 33.125 C48.90979741 36.02609169 43.93820396 38.13499081 38.625 40 C37.89152344 40.30035156 37.15804687 40.60070312 36.40234375 40.91015625 C23.0167643 45.84651917 6.04805038 43.92601817 -6.66015625 38.08984375 C-17.49216262 32.88283738 -17.49216262 32.88283738 -20.375 30 C-19.95123952 19.82974836 -15.00605453 10.23239581 -7.609375 3.359375 C-5.12483934 1.39335113 -3.23404938 0 0 0 Z " fill="#FAB23F" transform="translate(61.375,450)"/>
<path d="M0 0 C3.3125 0.875 3.3125 0.875 5.27734375 1.62109375 C15.11058129 5.33745296 25.37455367 4.94060419 35 0.6875 C37.95194737 -0.3496707 39.36731256 -0.1558156 42.3125 0.875 C50.37854695 5.75708105 55.90034818 15.96052588 58.3125 24.875 C58.62890625 27.484375 58.62890625 27.484375 58.3125 29.875 C54.06405081 34.67810783 47.11566725 36.93803846 41.25 39.1875 C40.59 39.44200928 39.93 39.69651855 39.25 39.95874023 C24.14278303 45.45006403 7.89995475 43.99962309 -6.6875 37.875 C-16.17214912 33.39035088 -16.17214912 33.39035088 -19.6875 29.875 C-20.35170074 21.9727143 -16.58156285 14.69490399 -11.94140625 8.5703125 C-4.46562346 -0.20770342 -4.46562346 -0.20770342 0 0 Z " fill="#7ED060" transform="translate(412.6875,450.125)"/>
<path d="M0 0 C1.02222656 0.76828125 2.04445313 1.5365625 3.09765625 2.328125 C5.78264314 4.617935 7.84529651 6.92025715 9.9375 9.75 C8.99390625 9.76417969 8.0503125 9.77835937 7.078125 9.79296875 C-4.52459916 10.22399364 -14.60658207 12.41966581 -23.3125 20.7265625 C-29.97434733 28.42932348 -33.46198315 36.67842062 -33.5 46.875 C-33.50459229 47.61838623 -33.50918457 48.36177246 -33.51391602 49.12768555 C-33.3929182 55.20046765 -31.87701432 59.91669199 -29.05859375 65.33203125 C-28.0625 67.75 -28.0625 67.75 -28.18359375 69.8828125 C-29.29827918 72.25089976 -30.6025715 73.23874123 -32.6875 74.8125 C-37.74902442 79.03043702 -40.79163657 84.0943045 -44.0625 89.75 C-44.49949219 90.49636719 -44.93648438 91.24273437 -45.38671875 92.01171875 C-46.29452866 93.58207062 -47.18160693 95.16439247 -48.0625 96.75 C-56.20934634 90.11182891 -59.59896645 77.73455108 -61.0625 67.75 C-62.76313788 49.2864431 -59.50591268 32.24124377 -47.515625 17.51171875 C-36.47164318 4.66302247 -16.20995817 -12.37776831 0 0 Z " fill="#21A3FA" transform="translate(428.0625,369.25)"/>
<path d="M0 0 C5.040567 3.76429257 9.479106 7.25364298 13.18359375 12.36328125 C12.21679688 12.3890625 11.25 12.41484375 10.25390625 12.44140625 C-1.38030428 12.94824314 -11.18560408 15.01149208 -19.81640625 23.36328125 C-27.23117106 32.30562492 -30.4965585 41.43558931 -30.14453125 53.02734375 C-29.70454537 57.50053349 -28.61430679 61.26536381 -26.81640625 65.36328125 C-26.38714844 66.40355469 -26.38714844 66.40355469 -25.94921875 67.46484375 C-25.26194443 69.10775665 -24.54289571 70.73732865 -23.81640625 72.36328125 C-24.44546875 72.86214844 -25.07453125 73.36101562 -25.72265625 73.875 C-34.37776746 81.13538696 -40.53632988 89.42422656 -43.81640625 100.36328125 C-52.41989277 93.23467813 -56.35821669 80.16950748 -57.81640625 69.36328125 C-58.87175803 49.37248308 -54.66985759 32.3084476 -41.18359375 16.82421875 C-32.19414012 7.47874715 -13.20928031 -7.67640562 0 0 Z " fill="#21A3FA" transform="translate(72.81640625,366.63671875)"/>
<path d="M0 0 C10.47577929 7.07945315 17.59393154 18.56050077 20.25 30.875 C20.27652824 32.54145553 20.28112078 34.20862391 20.25 35.875 C12.82406095 30.34700567 12.82406095 30.34700567 9.4375 27.5625 C4.63615114 23.8586023 -0.96206362 24.44626397 -6.75 24.875 C-8.92691516 25.32830437 -11.09430246 25.82964454 -13.25 26.375 C-21.73933632 28.47731206 -28.70124788 28.49404036 -37.1875 26.375 C-44.48498971 24.55931506 -52.00347445 23.0737858 -59 26.4375 C-59.9075 27.241875 -60.815 28.04625 -61.75 28.875 C-62.45382813 29.47699219 -63.15765625 30.07898438 -63.8828125 30.69921875 C-65.86258375 32.39961462 -67.81370203 34.12545158 -69.75 35.875 C-71.86796402 30.15788143 -68.85724811 24.25037542 -66.75 18.875 C-65.00231922 15.64704315 -62.99366566 12.77405221 -60.75 9.875 C-60.028125 8.84375 -59.30625 7.8125 -58.5625 6.75 C-54.80026595 2.40896071 -49.70134062 -0.34281813 -44.75 -3.125 C-43.59177734 -3.78435547 -43.59177734 -3.78435547 -42.41015625 -4.45703125 C-28.7231595 -11.07826216 -12.52497811 -7.2576243 0 0 Z " fill="#6B7EA7" transform="translate(283.75,67.125)"/>
<path d="M0 0 C6.26540516 3.71057976 11.21537874 9.19832349 13.51171875 16.12890625 C14.66857119 24.05638984 13.24190551 30.6362701 8.51171875 37.12890625 C3.31351752 42.1908643 -2.38550573 45.38366183 -9.73828125 45.56640625 C-16.58181331 45.41903544 -21.31811892 43.05416334 -26.30859375 38.44921875 C-31.88987941 32.38260391 -33.08123742 26.36755409 -32.9296875 18.234375 C-32.07645033 12.2315117 -29.0776644 7.49977606 -24.63671875 3.43359375 C-17.69249763 -1.73763474 -8.22748106 -2.88026417 0 0 Z " fill="#FCE2BF" transform="translate(441.48828125,394.87109375)"/>
<path d="M0 0 C7.26217378 3.19579726 10.67566557 8.27320613 14.13671875 15.1953125 C14.8373385 24.07432047 13.99434387 30.66402276 8.51171875 37.8828125 C3.8113159 43.02315453 -1.89204439 45.34567435 -8.80078125 45.7578125 C-15.38056623 45.44059114 -21.13479217 42.99145007 -25.75390625 38.2578125 C-31.205701 31.27104642 -32.82997865 25.00713111 -31.86328125 16.1953125 C-29.84682232 8.85693347 -24.28660159 3.96220117 -17.99609375 0.02734375 C-12.43206474 -2.143239 -5.65482622 -1.58921446 0 0 Z " fill="#FCE2BF" transform="translate(88.86328125,394.8046875)"/>
<path d="M0 0 C4.70244068 4.1968019 8.06539903 10.61178346 8.4375 16.9375 C7.84222715 24.69171209 4.46816154 31.37394187 -1.28515625 36.53125 C-7.40158501 41.20622739 -13.67918629 41.87225583 -21.125 40.9375 C-27.76452988 39.09511736 -32.28431181 34.51168799 -36.125 28.9375 C-39.14134611 22.92498401 -38.83089386 16.49859767 -38.125 9.9375 C-35.96667244 3.56290464 -30.84931393 -0.77358007 -25.125 -4.0625 C-16.16368696 -7.080085 -7.66241706 -5.05719526 0 0 Z " fill="#FDE3BF" transform="translate(274.125,399.0625)"/>
<path d="M0 0 C0.45818115 0.4012207 0.9163623 0.80244141 1.38842773 1.21582031 C6.02566824 5.24529808 6.02566824 5.24529808 11.0625 8.75 C11.67222656 9.13671875 12.28195312 9.5234375 12.91015625 9.921875 C15.52049154 11.26851526 18.20041628 12.12637104 21 13 C22.23983287 27.7992749 18.88232687 39.05404071 9.8125 50.9375 C2.02550402 59.74595883 -8.21190131 67.7078697 -20 70 C-21.91561254 70.06688591 -23.83335592 70.08531719 -25.75 70.0625 C-26.73484375 70.05347656 -27.7196875 70.04445313 -28.734375 70.03515625 C-29.48203125 70.02355469 -30.2296875 70.01195312 -31 70 C-31 69.34 -31 68.68 -31 68 C-29.65769471 67.11690441 -28.31382199 66.23614952 -26.96484375 65.36328125 C-14.36717934 56.62255585 -6.33932724 44.59357077 -2 30 C-1.67 29.01 -1.34 28.02 -1 27 C-0.84970012 24.93637009 -0.75155552 22.86876085 -0.68359375 20.80078125 C-0.64169922 19.59228516 -0.59980469 18.38378906 -0.55664062 17.13867188 C-0.51732422 15.87603516 -0.47800781 14.61339844 -0.4375 13.3125 C-0.39431641 12.03826172 -0.35113281 10.76402344 -0.30664062 9.45117188 C-0.2004514 6.30089148 -0.09840467 3.15053161 0 0 Z " fill="#FBCFA1" transform="translate(284,106)"/>
<path d="M0 0 C7.92737668 2.29637414 15.16034721 6.61149097 19.53515625 13.734375 C20.91015625 16.859375 20.91015625 16.859375 21.53515625 20.734375 C21.71046875 21.75273437 21.88578125 22.77109375 22.06640625 23.8203125 C22.43542125 27.48530239 22.51797445 30.17389269 21.53515625 33.734375 C17.82905373 37.13533435 12.75954117 40.734375 7.53515625 40.734375 C7.4371875 39.68378906 7.33921875 38.63320312 7.23828125 37.55078125 C6.43337789 29.70460947 5.63815405 22.63942008 1.53515625 15.734375 C1.17550781 15.10144531 0.81585938 14.46851563 0.4453125 13.81640625 C-2.60634589 8.99745748 -6.49366463 6.41116376 -11.46484375 3.734375 C-7.73113715 -0.2402159 -5.16106459 -0.86161345 0 0 Z " fill="#0180F8" transform="translate(304.46484375,203.265625)"/>
<path d="M0 0 C12.53994781 0.30517572 23.10359998 5.19611021 32 14 C39.35391565 22.62426576 43.27267596 31.7264773 44 43 C42.77004051 42.0843974 41.54107614 41.16745797 40.3125 40.25 C39.57128906 39.7034375 38.83007812 39.156875 38.06640625 38.59375 C36 37 36 37 33.75 34.75 C29.27559366 31.90265051 24.19729956 31.6299757 19 31 C19.66 30.67 20.32 30.34 21 30 C16.46359957 20.03722411 11.96177574 11.72232384 4 4 C2.66666667 2.66666667 1.33333333 1.33333333 0 0 Z " fill="#476496" transform="translate(260,60)"/>
<path d="M0 0 C1.13566406 0.32484375 2.27132812 0.6496875 3.44140625 0.984375 C7.98493075 2.11600751 12.27248936 2.30573727 16.9375 2.25 C17.72366699 2.24613281 18.50983398 2.24226562 19.31982422 2.23828125 C24.78900582 2.15666859 29.73395836 1.56030863 35 0 C37.475 2.97 37.475 2.97 40 6 C37.84233301 11.32253036 33.47984344 13.072491 28.6875 15.8125 C27.83220703 16.32748047 26.97691406 16.84246094 26.09570312 17.37304688 C25.26361328 17.85451172 24.43152344 18.33597656 23.57421875 18.83203125 C22.81713623 19.27264893 22.06005371 19.7132666 21.2800293 20.16723633 C18.39089288 21.22247183 16.91325613 20.91005066 14 20 C11.91943359 19.01611328 11.91943359 19.01611328 9.8984375 17.8203125 C9.16109375 17.38589844 8.42375 16.95148438 7.6640625 16.50390625 C6.90867188 16.04886719 6.15328125 15.59382812 5.375 15.125 C4.611875 14.67769531 3.84875 14.23039063 3.0625 13.76953125 C-0.4345548 11.68970392 -3.08666472 9.91333528 -6 7 C-4.02 4.69 -2.04 2.38 0 0 Z " fill="#F9CD9F" transform="translate(241,188)"/>
<path d="M0 0 C9.01970318 5.68293437 13.73265231 14.93137916 16.65234375 24.87109375 C17 27 17 27 16 30 C13.93359375 31.38671875 13.93359375 31.38671875 11.4375 32.6875 C10.61121094 33.12449219 9.78492188 33.56148438 8.93359375 34.01171875 C8.29550781 34.33785156 7.65742188 34.66398437 7 35 C6.70609375 33.63681641 6.70609375 33.63681641 6.40625 32.24609375 C4.67214974 24.95838791 2.54899253 18.43064678 -1 11.8125 C-1.33193359 11.18980225 -1.66386719 10.56710449 -2.00585938 9.92553711 C-3.95102874 6.44076046 -6.03317141 3.66882126 -9 1 C-5.60618273 -1.13684791 -3.81623618 -1.08871603 0 0 Z " fill="#DF1D2A" transform="translate(281,451)"/>
<path d="M0 0 C8.06604695 4.88208105 13.58784818 15.08552588 16 24 C16.375 26.5859375 16.375 26.5859375 16 29 C14.06640625 30.80078125 14.06640625 30.80078125 11.5625 32.3125 C10.73878906 32.82425781 9.91507812 33.33601563 9.06640625 33.86328125 C7 35 7 35 6 35 C5.91363281 34.41734375 5.82726562 33.8346875 5.73828125 33.234375 C3.98945258 23.03020037 0.22450851 14.11481522 -5.86328125 5.7421875 C-7 4 -7 4 -7 2 C-7.99 1.67 -8.98 1.34 -10 1 C-6.22904255 -0.8316079 -4.00226733 -1.40079357 0 0 Z " fill="#4EBD22" transform="translate(455,451)"/>
<path d="M0 0 C7.93792328 5.00135051 13.92712283 13.87934046 16 23 C16.5625 26.0625 16.5625 26.0625 16 29 C13.48749509 31.49938478 10.65053557 34 7 34 C6.63648437 32.81664062 6.27296875 31.63328125 5.8984375 30.4140625 C3.12903132 21.62723853 0.34281298 13.61189921 -5 6 C-5.66 5.01 -6.32 4.02 -7 3 C-7.99 2.34 -8.98 1.68 -10 1 C-6.16536773 -0.86253567 -4.08865016 -1.18061327 0 0 Z " fill="#F89600" transform="translate(103,451)"/>
<path d="M0 0 C7.8647119 3.11876507 11.26338198 7.52676396 15 15 C15.70565262 23.9427899 14.85781324 30.53781239 9.25 37.75 C6.20496841 41.15462075 3.29177196 42.54079753 -1 44 C0.00035857 41.91981512 1.02869146 39.95591949 2.2890625 38.01953125 C6.93914455 30.33737815 7.57989262 21.74757144 6 13 C4.71109217 9.70158457 3.25803196 6.95372902 1.3125 4.00390625 C0 2 0 2 0 0 Z " fill="#F8CCA0" transform="translate(88,395)"/>
<path d="M0 0 C6.43696222 2.51198526 11.17713945 7.22710258 14.17578125 13.43359375 C16.23460543 19.84424534 15.74393771 26.19638295 13 32.3125 C10.38206383 36.99486584 6.9274878 40.72181004 2 43 C1.01 42.67 0.02 42.34 -1 42 C-0.49339844 41.22076172 -0.49339844 41.22076172 0.0234375 40.42578125 C0.46945312 39.72839844 0.91546875 39.03101563 1.375 38.3125 C2.03628906 37.28576172 2.03628906 37.28576172 2.7109375 36.23828125 C6.80694417 29.12612422 6.83519207 21.99164172 6 14 C4.97343737 11.10494567 3.78007201 8.67140084 2.19140625 6.05078125 C1.00969362 4.01668575 0.45088485 2.29588492 0 0 Z " fill="#F6CB9E" transform="translate(440,395)"/>
<path d="M0 0 C6.69335946 2.16549865 10.58007568 5.75319002 13.875 11.8125 C16.94410193 18.53671361 16.84083111 23.13463684 14.4375 30.0625 C12.30930145 34.95282857 9.44968375 38.97495512 5 42 C2.27734375 42.68359375 2.27734375 42.68359375 0 43 C0.33773438 42.41992188 0.67546875 41.83984375 1.0234375 41.2421875 C5.89426743 32.71119636 8.03610335 25.93660559 7 16 C5.76208497 11.53618818 4.17315102 7.54553548 1.36328125 3.84375 C0 2 0 2 0 0 Z " fill="#F5CA9E" transform="translate(266,395)"/>
<path d="M0 0 C1.13566406 0.32484375 2.27132812 0.6496875 3.44140625 0.984375 C7.98493075 2.11600751 12.27248936 2.30573727 16.9375 2.25 C17.72366699 2.24613281 18.50983398 2.24226562 19.31982422 2.23828125 C24.78900582 2.15666859 29.73395836 1.56030863 35 0 C37.475 2.97 37.475 2.97 40 6 C38.9024777 8.99324263 38.32317108 9.84610901 35.375 11.25 C34.59125 11.4975 33.8075 11.745 33 12 C32.01 10.35 31.02 8.7 30 7 C29.2575 7.165 28.515 7.33 27.75 7.5 C19.72776516 8.56963131 12.09771085 8.37047337 4.25390625 6.33984375 C1.55348071 5.93267387 -0.38623939 6.23638045 -3 7 C-3.66 7.66 -4.32 8.32 -5 9 C-5 4.61031544 -2.87194899 3.23094261 0 0 Z " fill="#F3B480" transform="translate(241,188)"/>
</svg>
