<?xml version="1.0" encoding="UTF-8"?>
<svg version="1.1" xmlns="http://www.w3.org/2000/svg" width="512" height="512">
<path d="M0 0 C1.00039307 0.27287842 1.00039307 0.27287842 2.02099609 0.55126953 C34.51393339 9.61172227 63.62950796 32.74758491 80.15527344 62.04833984 C98.29057806 95.41254875 102.28080306 133.3244664 91.62109375 169.765625 C90.48534917 173.53618458 89.27019009 177.27272089 88 181 C88.98355469 180.7834375 89.96710938 180.566875 90.98046875 180.34375 C119.43287729 174.47648474 147.21668553 178.59238386 172 194 C189.92091705 206.45980919 204.00301997 224.42190677 208.4921875 246.09375 C211.2143827 267.03371304 208.39610918 287.3408828 195.98046875 304.84765625 C194.04979707 307.29514253 192.05425215 309.65588405 190 312 C189.46246094 312.65742188 188.92492187 313.31484375 188.37109375 313.9921875 C185.90686223 316.99044308 183.80126244 319.14101605 180.5 321.1875 C177.72885701 323.65777961 177.72885701 323.65777961 178.06591797 326.28442383 C178.24783691 327.20763428 178.42975586 328.13084473 178.6171875 329.08203125 C178.8224707 330.15364502 179.02775391 331.22525879 179.23925781 332.3293457 C179.49030273 333.54066162 179.74134766 334.75197754 180 336 C180.2772714 337.36738033 180.55427914 338.73481414 180.83105469 340.10229492 C181.9028528 345.3503165 183.00837939 350.59115932 184.11914062 355.83105469 C184.59586681 358.08458302 185.06772898 360.33908859 185.5390625 362.59375 C185.75932602 363.62187805 185.75932602 363.62187805 185.98403931 364.67077637 C186.65545295 367.89335953 187 370.68395316 187 374 C184.23344582 372.70891619 181.95037933 371.2935196 179.6015625 369.34765625 C178.96412109 368.82381348 178.32667969 368.2999707 177.66992188 367.76025391 C176.99509766 367.19999512 176.32027344 366.63973633 175.625 366.0625 C174.19093202 364.88310725 172.75602006 363.70474005 171.3203125 362.52734375 C170.59875977 361.93550293 169.87720703 361.34366211 169.13378906 360.73388672 C165.38053428 357.68404513 161.57396354 354.69991339 157.72241211 351.77514648 C154.48187715 349.28911028 151.85374535 346.69916315 149.1875 343.625 C147.38953475 341.85542008 147.38953475 341.85542008 145 341 C141.67151248 341.2421417 138.63963522 341.81422932 135.39746094 342.56152344 C109.69364113 348.30142365 82.44848334 342.65105378 60.1875 329.0703125 C55.49404201 326.02186552 51.18648994 322.70991928 47 319 C46.31550781 318.40960938 45.63101562 317.81921875 44.92578125 317.2109375 C31.52506717 304.83699719 22.01481545 285.20120621 21 267 C20.82546164 261.20229089 20.69202335 255.6782796 22 250 C20.89785156 250.45890625 19.79570312 250.9178125 18.66015625 251.390625 C-9.87304972 263.02195521 -42.05350983 266.52511779 -72 258 C-72.66692871 257.81808105 -73.33385742 257.63616211 -74.02099609 257.44873047 C-104.39339681 248.97957612 -132.59732538 227.90960876 -149 201 C-149.68320313 199.91589844 -150.36640625 198.83179688 -151.0703125 197.71484375 C-161.84540779 179.8724331 -169.11363993 158.67791562 -169.1328125 137.703125 C-169.13376923 137.0288446 -169.13472595 136.35456421 -169.13571167 135.65985107 C-169.13638776 134.24133205 -169.13457362 132.82280983 -169.13037109 131.40429688 C-169.12504851 129.26945781 -169.13031819 127.13483235 -169.13671875 125 C-169.14008175 117.28796008 -168.89586675 109.6689459 -168 102 C-168.33 102.33 -168.66 102.66 -169 103 C-170.34267413 103.08631874 -171.68974322 103.10706473 -173.03515625 103.09765625 C-173.84404297 103.09443359 -174.65292969 103.09121094 -175.48632812 103.08789062 C-176.33646484 103.07951172 -177.18660156 103.07113281 -178.0625 103.0625 C-178.91650391 103.05798828 -179.77050781 103.05347656 -180.65039062 103.04882812 C-182.76695663 103.03700373 -184.88348685 103.01906769 -187 103 C-187.01417969 103.6398584 -187.02835938 104.2797168 -187.04296875 104.93896484 C-187.19648982 109.14708695 -187.68653268 111.54823828 -190.125 115.0625 C-195.20543536 118.65234308 -203.14978263 117.77061041 -209 117 C-213.56809056 114.83485023 -215.19756723 112.74324413 -217 108 C-217.04587633 106.33396484 -217.05364451 104.66580312 -217 103 C-218.78857422 103.03480469 -218.78857422 103.03480469 -220.61328125 103.0703125 C-222.17968124 103.08907178 -223.746088 103.10727181 -225.3125 103.125 C-226.09818359 103.14175781 -226.88386719 103.15851563 -227.69335938 103.17578125 C-228.45068359 103.18222656 -229.20800781 103.18867188 -229.98828125 103.1953125 C-230.68477783 103.20578613 -231.38127441 103.21625977 -232.09887695 103.22705078 C-234 103 -234 103 -237 101 C-237.7199328 98.02427775 -238.20618284 95.97492385 -238 93 C-235.84109542 89.99295434 -234.51231053 89.17077018 -231 88 C-229.10964962 87.89657739 -227.21588944 87.85146122 -225.32275391 87.83886719 C-224.15789459 87.82925964 -222.99303528 87.8196521 -221.7928772 87.80975342 C-220.53349335 87.80550354 -219.2741095 87.80125366 -217.9765625 87.796875 C-216.68309906 87.79117493 -215.38963562 87.78547485 -214.05697632 87.77960205 C-211.31825366 87.76910327 -208.57956026 87.76325325 -205.84082031 87.75976562 C-202.33809477 87.75428262 -198.83575828 87.73025458 -195.33315468 87.70179367 C-191.98513144 87.67864743 -188.6371616 87.67671649 -185.2890625 87.671875 C-184.03372711 87.6595282 -182.77839172 87.6471814 -181.48501587 87.63446045 C-180.31385223 87.63746155 -179.1426886 87.64046265 -177.93603516 87.64355469 C-176.90805817 87.63990906 -175.88008118 87.63626343 -174.82095337 87.63250732 C-170.58732737 88.18403241 -167.97641747 90.02358253 -165 93 C-164.731875 92.1028125 -164.46375 91.205625 -164.1875 90.28125 C-154.59883217 59.74891296 -135.08625965 33.26100143 -108 16 C-106.89140625 15.29230469 -105.7828125 14.58460938 -104.640625 13.85546875 C-73.9513783 -4.63586308 -34.48402332 -9.8168553 0 0 Z " fill="#2A92FA" transform="translate(292,127)"/>
<path d="M0 0 C16.15166365 13.66074149 29.07785889 30.7335299 31.875 52.25 C33.54172912 74.54360429 29.58920673 94.67056145 14.78515625 112.0703125 C14.15480469 112.78960937 13.52445313 113.50890625 12.875 114.25 C12.33746094 114.90742188 11.79992187 115.56484375 11.24609375 116.2421875 C8.78186223 119.24044308 6.67626244 121.39101605 3.375 123.4375 C0.60385701 125.90777961 0.60385701 125.90777961 0.94091797 128.53442383 C1.12283691 129.45763428 1.30475586 130.38084473 1.4921875 131.33203125 C1.6974707 132.40364502 1.90275391 133.47525879 2.11425781 134.5793457 C2.4908252 136.39631958 2.4908252 136.39631958 2.875 138.25 C3.1522714 139.61738033 3.42927914 140.98481414 3.70605469 142.35229492 C4.7778528 147.6003165 5.88337939 152.84115932 6.99414062 158.08105469 C7.47086681 160.33458302 7.94272898 162.58908859 8.4140625 164.84375 C8.56090485 165.5291687 8.70774719 166.2145874 8.85903931 166.92077637 C9.53045295 170.14335953 9.875 172.93395316 9.875 176.25 C7.10844582 174.95891619 4.82537933 173.5435196 2.4765625 171.59765625 C1.83912109 171.07381348 1.20167969 170.5499707 0.54492188 170.01025391 C-0.12990234 169.44999512 -0.80472656 168.88973633 -1.5 168.3125 C-2.93406798 167.13310725 -4.36897994 165.95474005 -5.8046875 164.77734375 C-6.52624023 164.18550293 -7.24779297 163.59366211 -7.99121094 162.98388672 C-11.74446572 159.93404513 -15.55103646 156.94991339 -19.40258789 154.02514648 C-22.64312285 151.53911028 -25.27125465 148.94916315 -27.9375 145.875 C-29.73546525 144.10542008 -29.73546525 144.10542008 -32.125 143.25 C-35.45348752 143.4921417 -38.48536478 144.06422932 -41.72753906 144.81152344 C-67.43135887 150.55142365 -94.67651666 144.90105378 -116.9375 131.3203125 C-121.63095799 128.27186552 -125.93851006 124.95991928 -130.125 121.25 C-131.15173828 120.36441406 -131.15173828 120.36441406 -132.19921875 119.4609375 C-145.66707921 107.02499562 -154.98230119 87.49957212 -156.125 69.25 C-156.18945312 68.41597656 -156.25390625 67.58195312 -156.3203125 66.72265625 C-157.20301998 45.27286439 -147.90006264 25.80031063 -134.078125 9.89453125 C-99.98435635 -26.25232931 -39.13935726 -30.15453626 0 0 Z " fill="#ABFEAB" transform="translate(469.125,324.75)"/>
<path d="M0 0 C13.21550634 11.13528775 21.84726444 26.6857507 23.40625 44.0078125 C24.4013163 60.21776348 22.6158037 75.27615219 15.40625 90.0078125 C15.02210938 90.82636719 14.63796875 91.64492187 14.2421875 92.48828125 C10.94680194 99.00829256 6.7604752 104.82546538 2.53125 110.7578125 C-5.66813427 122.30880905 -12.49174663 133.08034233 -15.51171875 147.08203125 C-16.88246833 150.78849852 -18.28934681 151.87315551 -21.59375 154.0078125 C-24.81884766 154.5224762 -24.81884766 154.5224762 -28.5078125 154.54125977 C-29.18326111 154.54987534 -29.85870972 154.55849091 -30.55462646 154.56736755 C-32.77639625 154.58997946 -34.99689988 154.58329907 -37.21875 154.57421875 C-38.76904677 154.5794562 -40.31934034 154.58573313 -41.86962891 154.59300232 C-45.11441065 154.60339737 -48.3587536 154.59885787 -51.60351562 154.58422852 C-55.75670735 154.56703377 -59.90851647 154.5905473 -64.06155396 154.62571812 C-67.26156742 154.64770291 -70.46125051 154.64624833 -73.66131592 154.6379528 C-75.19229652 154.63713401 -76.72330156 154.64398379 -78.25421143 154.65872383 C-80.39689584 154.67619384 -82.53710174 154.6616133 -84.6796875 154.63891602 C-85.8970459 154.63795425 -87.1144043 154.63699249 -88.36865234 154.63600159 C-92.52175646 153.82705409 -93.97831878 152.26743687 -96.59375 149.0078125 C-97.55798237 146.45908132 -98.30511265 144.12528367 -98.96875 141.5078125 C-102.28645079 129.96672834 -107.88124945 120.8324055 -114.96875 111.2578125 C-128.07982571 93.53166819 -135.74737232 76.22060332 -135.84375 53.9453125 C-135.864375 52.78064453 -135.885 51.61597656 -135.90625 50.41601562 C-135.9814351 33.54635908 -130.74985353 18.47033052 -118.91015625 6.25 C-118.14574219 5.51007812 -117.38132812 4.77015625 -116.59375 4.0078125 C-115.86027344 3.28851563 -115.12679687 2.56921875 -114.37109375 1.828125 C-105.62731747 -6.34506976 -95.92419146 -11.28117183 -84.59375 -14.9921875 C-83.61792969 -15.31445312 -82.64210937 -15.63671875 -81.63671875 -15.96875 C-53.78105388 -23.46700444 -22.72356961 -17.45334413 0 0 Z " fill="#FEEA85" transform="translate(146.59375,28.9921875)"/>
<path d="M0 0 C8.91 0 17.82 0 27 0 C28.52374682 3.80936706 29.27886467 5.94732215 29.625 9.8125 C29.73714844 10.99779297 29.73714844 10.99779297 29.8515625 12.20703125 C29.90054688 12.79871094 29.94953125 13.39039063 30 14 C30.52207031 14.17015625 31.04414063 14.3403125 31.58203125 14.515625 C32.31808594 14.75796875 33.05414063 15.0003125 33.8125 15.25 C35.04419922 15.64251953 35.04419922 15.64251953 36.30078125 16.04296875 C39 17 39 17 41.73046875 18.30078125 C44.55525512 19.58767264 46.92110943 20.56460133 50 21 C52.72444091 19.77678163 54.62467528 18.35788645 56.83203125 16.35546875 C59 15 59 15 61.8046875 14.8828125 C66.35859311 16.47500933 68.99727034 19.26768896 72.3125 22.6875 C72.94478516 23.30044922 73.57707031 23.91339844 74.22851562 24.54492188 C77.01496092 27.36123261 78.79279373 29.41494701 80.12890625 33.1875 C79.96714225 36.71689642 78.95089974 37.71603641 76.625 40.3125 C74.79829705 43.02349325 73.76939783 44.7941428 74.3984375 48.08349609 C75.71070339 52.01775717 77.43748016 55.7161663 79.2578125 59.4375 C81 63 81 63 81 65 C81.88751953 65.07347656 81.88751953 65.07347656 82.79296875 65.1484375 C83.58316406 65.22320312 84.37335938 65.29796875 85.1875 65.375 C86.35345703 65.47941406 86.35345703 65.47941406 87.54296875 65.5859375 C90 66 90 66 95 68 C95 76.91 95 85.82 95 95 C84.875 98.375 84.875 98.375 81 98 C80.82984375 98.52207031 80.6596875 99.04414062 80.484375 99.58203125 C80.12085938 100.68611328 80.12085938 100.68611328 79.75 101.8125 C79.48832031 102.63363281 79.22664062 103.45476562 78.95703125 104.30078125 C78 107 78 107 76.69921875 109.73046875 C75.41254911 112.55476836 74.43903182 114.92234259 74 118 C75.18100624 120.75426005 76.57856843 122.67897172 78.546875 124.9296875 C80.39565926 127.56370808 80.35875106 128.82886523 80 132 C77.87993596 135.1431664 75.0779852 137.66395321 72.375 140.3125 C71.66214844 141.05306641 70.94929687 141.79363281 70.21484375 142.55664062 C64.92664851 147.82057809 64.92664851 147.82057809 60.69140625 148.640625 C57.91281976 147.97924882 56.64299653 147.34159533 54.5625 145.4375 C51.92905843 143.42806958 51.26763542 143.01049551 47.8125 142.875 C43.23294484 144.22634415 38.93727102 146.00896277 34.57421875 147.94140625 C32 149 32 149 30 149 C29.92652344 150.01320312 29.92652344 150.01320312 29.8515625 151.046875 C29.77679688 151.93890625 29.70203125 152.8309375 29.625 153.75 C29.55539062 154.63171875 29.48578125 155.5134375 29.4140625 156.421875 C28.99616748 159.02386288 28.39354867 160.77433233 27 163 C23.0113168 164.9943416 17.94765918 164.18485036 13.5625 164.1875 C12.49966797 164.19974609 11.43683594 164.21199219 10.34179688 164.22460938 C9.32279297 164.22654297 8.30378906 164.22847656 7.25390625 164.23046875 C5.85120483 164.23663208 5.85120483 164.23663208 4.42016602 164.24291992 C2 164 2 164 -1 162 C-2.38547885 157.55188368 -3.29267956 153.68287298 -3 149 C-3.556875 148.81824219 -4.11375 148.63648438 -4.6875 148.44921875 C-5.450625 148.19785156 -6.21375 147.94648438 -7 147.6875 C-7.81984375 147.41808594 -8.6396875 147.14867187 -9.484375 146.87109375 C-11.78152924 146.07565059 -14.00496241 145.17971977 -16.25 144.25 C-20.02395954 142.99201349 -21.37876737 142.57056607 -25 144 C-25.969375 144.680625 -26.93875 145.36125 -27.9375 146.0625 C-31.60905349 148.38531956 -32.73425811 148.75924212 -37 148 C-40.14731849 145.80429472 -42.75648169 143.17151238 -45.4375 140.4375 C-46.55415039 139.38079102 -46.55415039 139.38079102 -47.69335938 138.30273438 C-52.95679346 133.02958019 -52.95679346 133.02958019 -53.16015625 128.18359375 C-52.05610328 125.15395344 -51.23763179 123.82906732 -49 121.625 C-47.4419283 119.67585428 -47.4419283 119.67585428 -47 117 C-48.23509075 111.60858346 -50.81822468 106.58522455 -53.27807617 101.66064453 C-54 100 -54 100 -54 98 C-55.01320313 97.92652344 -55.01320313 97.92652344 -56.046875 97.8515625 C-56.93890625 97.77679688 -57.8309375 97.70203125 -58.75 97.625 C-59.63171875 97.55539063 -60.5134375 97.48578125 -61.421875 97.4140625 C-64.02386288 96.99616748 -65.77433233 96.39354867 -68 95 C-69.9290958 91.1418084 -69.18480401 86.3684909 -69.1875 82.125 C-69.19974609 81.11824219 -69.21199219 80.11148438 -69.22460938 79.07421875 C-69.22654297 78.10355469 -69.22847656 77.13289063 -69.23046875 76.1328125 C-69.23457764 75.24480957 -69.23868652 74.35680664 -69.24291992 73.44189453 C-68.98201758 70.81923603 -68.41968558 69.20978503 -67 67 C-64.9765625 66.171875 -64.9765625 66.171875 -62.625 65.75 C-61.85414063 65.60046875 -61.08328125 65.4509375 -60.2890625 65.296875 C-58 65 -58 65 -54 65 C-53.81824219 64.43152344 -53.63648438 63.86304688 -53.44921875 63.27734375 C-52.22372748 59.51288594 -50.9786994 55.84423014 -49.3125 52.25 C-47.65719094 48.20517934 -47.65719094 48.20517934 -48 44 C-49.25335836 42.2528944 -50.55746246 40.63054266 -52.00390625 39.0390625 C-53.65813457 35.65275982 -53.02505429 33.5764668 -52 30 C-50.0537256 27.2322721 -47.7527817 24.95831726 -45.3125 22.625 C-44.69955078 21.99722656 -44.08660156 21.36945312 -43.45507812 20.72265625 C-40.63881782 17.95716628 -38.57151993 16.20171292 -34.8125 14.875 C-31.281363 15.03193942 -30.2848915 16.04826904 -27.6875 18.375 C-24.97650675 20.20170295 -23.2058572 21.23060217 -19.91650391 20.6015625 C-15.98224283 19.28929661 -12.2838337 17.56251984 -8.5625 15.7421875 C-5 14 -5 14 -3 14 C-2.92652344 12.98679687 -2.92652344 12.98679687 -2.8515625 11.953125 C-2.77679688 11.06109375 -2.70203125 10.1690625 -2.625 9.25 C-2.55539062 8.36828125 -2.48578125 7.4865625 -2.4140625 6.578125 C-2 4 -2 4 0 0 Z " fill="#9A8179" transform="translate(406,11)"/>
<path d="M0 0 C8.91 0 17.82 0 27 0 C30.375 10.125 30.375 10.125 30 14 C30.52207031 14.17015625 31.04414062 14.3403125 31.58203125 14.515625 C32.31808594 14.75796875 33.05414063 15.0003125 33.8125 15.25 C35.04419922 15.64251953 35.04419922 15.64251953 36.30078125 16.04296875 C39 17 39 17 41.73046875 18.30078125 C44.55476836 19.58745089 46.92234259 20.56096818 50 21 C52.75426005 19.81899376 54.67897172 18.42143157 56.9296875 16.453125 C59.56370808 14.60434074 60.82886523 14.64124894 64 15 C67.1431664 17.12006404 69.66395321 19.9220148 72.3125 22.625 C73.42334961 23.69427734 73.42334961 23.69427734 74.55664062 24.78515625 C79.82057809 30.07335149 79.82057809 30.07335149 80.640625 34.30859375 C79.97924882 37.08718024 79.34159533 38.35700347 77.4375 40.4375 C75.42806958 43.07094157 75.01049551 43.73236458 74.875 47.1875 C76.22634415 51.76705516 78.00896277 56.06272898 79.94140625 60.42578125 C81 63 81 63 81 65 C82.01320312 65.07347656 82.01320312 65.07347656 83.046875 65.1484375 C83.93890625 65.22320312 84.8309375 65.29796875 85.75 65.375 C86.63171875 65.44460938 87.5134375 65.51421875 88.421875 65.5859375 C91.02386288 66.00383252 92.77433233 66.60645133 95 68 C96.9943416 71.9886832 96.18485036 77.05234082 96.1875 81.4375 C96.19974609 82.50033203 96.21199219 83.56316406 96.22460938 84.65820312 C96.22654297 85.67720703 96.22847656 86.69621094 96.23046875 87.74609375 C96.23457764 88.68122803 96.23868652 89.6163623 96.24291992 90.57983398 C96 93 96 93 94 96 C91.9765625 96.73046875 91.9765625 96.73046875 89.625 97.1875 C88.85414063 97.34605469 88.08328125 97.50460937 87.2890625 97.66796875 C85 98 85 98 81 98 C80.81824219 98.556875 80.63648438 99.11375 80.44921875 99.6875 C80.19785156 100.450625 79.94648438 101.21375 79.6875 102 C79.28337891 103.22976563 79.28337891 103.22976563 78.87109375 104.484375 C78.07565059 106.78152924 77.17971977 109.00496241 76.25 111.25 C74.99201349 115.02395954 74.57056607 116.37876737 76 120 C76.680625 120.969375 77.36125 121.93875 78.0625 122.9375 C80.38531956 126.60905349 80.75924212 127.73425811 80 132 C77.80429472 135.14731849 75.17151238 137.75648169 72.4375 140.4375 C71.73302734 141.18193359 71.02855469 141.92636719 70.30273438 142.69335938 C65.02958019 147.95679346 65.02958019 147.95679346 60.18359375 148.16015625 C57.15395344 147.05610328 55.82906732 146.23763179 53.625 144 C51.67585428 142.4419283 51.67585428 142.4419283 49 142 C43.60858346 143.23509075 38.58522455 145.81822468 33.66064453 148.27807617 C32 149 32 149 30 149 C29.92652344 150.01320313 29.92652344 150.01320313 29.8515625 151.046875 C29.77679688 151.93890625 29.70203125 152.8309375 29.625 153.75 C29.55539063 154.63171875 29.48578125 155.5134375 29.4140625 156.421875 C29 159 29 159 27 163 C18.09 163 9.18 163 0 163 C-1.52374682 159.19063294 -2.27886467 157.05267785 -2.625 153.1875 C-2.73714844 152.00220703 -2.73714844 152.00220703 -2.8515625 150.79296875 C-2.90054688 150.20128906 -2.94953125 149.60960937 -3 149 C-3.52207031 148.82984375 -4.04414062 148.6596875 -4.58203125 148.484375 C-5.68611328 148.12085938 -5.68611328 148.12085938 -6.8125 147.75 C-7.63363281 147.48832031 -8.45476562 147.22664062 -9.30078125 146.95703125 C-12 146 -12 146 -14.73046875 144.69921875 C-17.55525512 143.41232736 -19.92110943 142.43539867 -23 142 C-25.72444091 143.22321837 -27.62467528 144.64211355 -29.83203125 146.64453125 C-32 148 -32 148 -34.8046875 148.1171875 C-39.35859311 146.52499067 -41.99727034 143.73231104 -45.3125 140.3125 C-46.26092773 139.39307617 -46.26092773 139.39307617 -47.22851562 138.45507812 C-50.01737446 135.63632799 -51.79222244 133.59489995 -53.11328125 129.8125 C-52.97438043 126.36392791 -52.11397525 125.26086765 -49.875 122.6875 C-47.50652147 119.5225052 -47.50652147 119.5225052 -47.125 115.73828125 C-47.91719038 113.3740881 -48.88045272 111.22763162 -50 109 C-50.73324796 107.35598089 -51.46252 105.71018182 -52.1875 104.0625 C-52.53167969 103.33160156 -52.87585937 102.60070312 -53.23046875 101.84765625 C-54 100 -54 100 -54 98 C-54.88751953 97.92652344 -54.88751953 97.92652344 -55.79296875 97.8515625 C-56.58316406 97.77679688 -57.37335937 97.70203125 -58.1875 97.625 C-58.96480469 97.55539062 -59.74210937 97.48578125 -60.54296875 97.4140625 C-63 97 -63 97 -68 95 C-68 86.09 -68 77.18 -68 68 C-57.875 64.625 -57.875 64.625 -54 65 C-53.82984375 64.47792969 -53.6596875 63.95585937 -53.484375 63.41796875 C-53.24203125 62.68191406 -52.9996875 61.94585937 -52.75 61.1875 C-52.48832031 60.36636719 -52.22664063 59.54523438 -51.95703125 58.69921875 C-51 56 -51 56 -49.69921875 53.26953125 C-48.41232736 50.44474488 -47.43539867 48.07889057 -47 45 C-48.22321837 42.27555909 -49.64211355 40.37532472 -51.64453125 38.16796875 C-53 36 -53 36 -53.11328125 33.1953125 C-51.53052596 28.65252713 -48.77405696 26.00629175 -45.375 22.6875 C-44.77042969 22.05521484 -44.16585937 21.42292969 -43.54296875 20.77148438 C-40.45722757 17.70219171 -38.51690698 16.14838144 -34.2578125 14.92578125 C-30.83372417 15.00378806 -29.9013557 15.19665882 -27.5 17.5 C-24.88285817 19.5682931 -24.30088606 19.98820055 -20.8125 20.125 C-16.23294484 18.77365585 -11.93727102 16.99103723 -7.57421875 15.05859375 C-5 14 -5 14 -3 14 C-2.92652344 13.11248047 -2.92652344 13.11248047 -2.8515625 12.20703125 C-2.77679688 11.41683594 -2.70203125 10.62664062 -2.625 9.8125 C-2.55539063 9.03519531 -2.48578125 8.25789063 -2.4140625 7.45703125 C-2 5 -2 5 0 0 Z " fill="#9A8179" transform="translate(79,338)"/>
<path d="M0 0 C3.73365769 1.8114568 6.61776853 4.16286452 8.4921875 7.96875 C11.43700199 18.4488251 9.1130989 28.91902526 4.15625 38.33203125 C-1.26735232 46.9676699 -8.73552802 53.77792026 -17.84375 58.33203125 C-18.50375 58.33203125 -19.16375 58.33203125 -19.84375 58.33203125 C-19.84375 79.12203125 -19.84375 99.91203125 -19.84375 121.33203125 C-32.71375 121.33203125 -45.58375 121.33203125 -58.84375 121.33203125 C-58.84375 100.54203125 -58.84375 79.75203125 -58.84375 58.33203125 C-60.82375 57.67203125 -62.80375 57.01203125 -64.84375 56.33203125 C-76.77191468 49.47419594 -83.8067549 39.82574393 -87.9921875 26.828125 C-89.71671289 19.74807808 -90.38884938 13.24005784 -86.59375 6.76953125 C-84.69272902 4.04121411 -82.69415141 2.06392072 -79.84375 0.33203125 C-74.03021623 -0.65618046 -68.32743042 -0.3735548 -63.390625 3.0234375 C-52.82716131 11.95970097 -47.91636959 25.52071678 -46.4453125 38.9765625 C-46.19557775 42.09149724 -46.01333288 45.21170634 -45.84375 48.33203125 C-39.90375 47.83703125 -39.90375 47.83703125 -33.84375 47.33203125 C-33.76125 45.80578125 -33.67875 44.27953125 -33.59375 42.70703125 C-32.350055 29.43527225 -27.84338485 15.41295309 -18.84375 5.33203125 C-13.06133552 0.86688372 -7.37064242 -2.6702963 0 0 Z " fill="#FE8849" transform="translate(129.84375,61.66796875)"/>
<path d="M0 0 C7.3918683 6.9042488 13.90416416 16.07193119 14.59375 26.4609375 C14.96581983 40.8088804 12.32850056 51.95071004 2.35546875 62.87109375 C-7.83162951 71.96008025 -18.89767558 74.8670953 -32.26171875 74.31640625 C-43.08525192 73.48095457 -52.60688834 67.71835784 -59.61328125 59.5859375 C-68.01320812 48.35637425 -70.42924823 36.65113761 -68.64453125 22.87109375 C-65.75345756 11.71277954 -59.36976145 2.95365822 -49.64453125 -3.12890625 C-33.86888142 -12.16449516 -14.46244348 -11.64258744 0 0 Z " fill="#FEFEFE" transform="translate(446.64453125,60.12890625)"/>
<path d="M0 0 C8.45289717 7.20118845 14.56961198 16.75304235 15.546875 28.00390625 C16.17922366 41.18205227 13.14357455 52.31017697 4.359375 62.46484375 C-4.33374536 70.87706396 -14.09944055 74.77067618 -26.0625 75 C-37.86248312 74.6941689 -47.47303381 71.27682048 -56.1875 63.125 C-62.56557663 56.39537584 -67.60556977 48.14751148 -67.9375 38.6875 C-67.98648438 37.71039063 -68.03546875 36.73328125 -68.0859375 35.7265625 C-68.47882793 22.76117832 -65.14148389 13.70779756 -56.5625 4 C-40.07945537 -10.52077742 -18.5844281 -13.5272298 0 0 Z " fill="#FEFEFE" transform="translate(118.9375,386.3125)"/>
<path d="M0 0 C28.72613288 -0.79261324 53.63632569 1.84468546 75.58203125 22.4296875 C89.61947454 37.35155775 94.70292335 55.24383892 94.25 75.36328125 C93.76792267 86.92590589 91.09961908 97.57968009 86 108 C85.42378906 109.22783203 85.42378906 109.22783203 84.8359375 110.48046875 C81.54055194 117.00048006 77.3542252 122.81765288 73.125 128.75 C64.92561573 140.30099655 58.10200337 151.07252983 55.08203125 165.07421875 C53.70282238 168.8035597 52.45902208 170.04960032 49 172 C46.23866047 172.28614917 43.91854388 172.38589883 41.1875 172.25 C40.49462891 172.23195312 39.80175781 172.21390625 39.08789062 172.1953125 C37.39132336 172.14851064 35.69547524 172.07677624 34 172 C34.29519531 171.47148437 34.59039062 170.94296875 34.89453125 170.3984375 C36.21722834 167.52869894 36.91278955 164.68878702 37.6875 161.625 C41.39642375 148.61029284 48.01276404 138.31176963 55.79418945 127.39526367 C63.99598535 115.86310148 70.22009457 104.71172173 74 91 C74.24621094 90.113125 74.49242187 89.22625 74.74609375 88.3125 C78.884161 70.0479273 76.25454916 51.1499031 66.90234375 34.99609375 C57.73530252 20.5584744 45.56003991 12.36625936 30 6 C29.18402344 5.66097656 28.36804688 5.32195313 27.52734375 4.97265625 C18.82795427 1.88874569 9.13461574 1.74060858 0 1 C0 0.67 0 0.34 0 0 Z " fill="#FCDB35" transform="translate(76,11)"/>
<path d="M0 0 C14.85 0 29.7 0 45 0 C45.66 7.26 46.32 14.52 47 22 C47.7364474 26.8148591 48.50328443 31.54308365 49.4375 36.3125 C49.64181641 37.42560547 49.84613281 38.53871094 50.05664062 39.68554688 C50.98499067 44.57601394 52.00810589 49.28041944 53.66015625 53.98046875 C55.80354122 60.27268657 55.80354122 60.27268657 55 63 C52.67163097 65.05760976 50.07086541 66.53515769 47.375 68.0625 C45.94489999 68.9068538 44.51520633 69.75189625 43.0859375 70.59765625 C42.05098145 71.19924561 42.05098145 71.19924561 40.99511719 71.81298828 C38.2570985 73.44199548 35.63053597 75.20343521 33 77 C12.78088377 56.24366088 0 29.15570506 0 0 Z " fill="#77E9FE" transform="translate(138,263)"/>
<path d="M0 0 C4.62035806 0.14001085 7.26572241 2.56475785 10.73046875 5.30078125 C14.60887935 8.20458265 18.80955202 10.57847063 23 13 C22.51500408 17.20526946 21.73877771 21.21234963 20.6953125 25.31640625 C16.3982544 42.29897219 14.46948207 58.529491 13 76 C-1.85 76 -16.7 76 -32 76 C-32 60.84932908 -32 60.84932908 -29.9375 53.6875 C-29.71489502 52.88554199 -29.49229004 52.08358398 -29.26293945 51.25732422 C-23.82400305 32.47973471 -13.91504304 13.91504304 0 0 Z " fill="#77E9FE" transform="translate(170,173)"/>
<path d="M0 0 C1.69575238 1.64276012 3.3528967 3.30892064 5 5 C5.59296875 5.59683594 6.1859375 6.19367188 6.796875 6.80859375 C24.37596957 25.4072758 34 51.77933966 34 77 C19.15 77 4.3 77 -11 77 C-11.66 70.4 -12.32 63.8 -13 57 C-13.40603457 53.44661073 -13.8173735 49.91412686 -14.3125 46.375 C-14.43149658 45.52236572 -14.55049316 44.66973145 -14.6730957 43.79125977 C-15.70667452 36.92466268 -17.35177155 30.32218415 -19.37426758 23.68310547 C-20.41937216 20.25119178 -21 17.62959154 -21 14 C-18.63767277 12.31992249 -16.40724993 10.93532089 -13.875 9.5625 C-8.79982681 6.74459861 -4.36044908 3.85105083 0 0 Z " fill="#2DCEFB" transform="translate(340,172)"/>
<path d="M0 0 C15.18 0 30.36 0 46 0 C43.67261585 20.94645734 43.67261585 20.94645734 40.3125 30.3125 C39.77641113 31.84003906 39.77641113 31.84003906 39.22949219 33.3984375 C34.92877834 45.35037696 31.49255373 54.38367617 20.07421875 61.07421875 C15.91274496 63.68108861 12.6139741 66.94666928 9.15625 70.41015625 C7 72 7 72 5.140625 72 C2.0286967 70.54625247 -0.85746714 68.77791377 -3.75 66.9375 C-4.35199219 66.56044922 -4.95398438 66.18339844 -5.57421875 65.79492188 C-7.05249143 64.86806837 -8.52666089 63.93467611 -10 63 C-9.58063145 57.86273522 -8.54187081 53.20904784 -7.125 48.25 C-5.46884307 42.31882218 -4.28733743 36.40196165 -3.375 30.3125 C-3.26430176 29.58514648 -3.15360352 28.85779297 -3.03955078 28.10839844 C-1.70971543 18.76991123 -0.93934386 9.39343865 0 0 Z " fill="#2DCEFB" transform="translate(329,263)"/>
<path d="M0 0 C5.45498799 0.54035258 9.50821527 2.49831398 14.25 5.0625 C15.00361816 5.46807129 15.75723633 5.87364258 16.53369141 6.29150391 C22.57634611 9.62139511 27.91482096 13.3158334 33 18 C33.91265625 18.82113281 34.8253125 19.64226562 35.765625 20.48828125 C50.77162365 34.65377998 59.78021409 53.30646597 60.40478516 73.94799805 C60.64332827 94.83476152 54.89228046 112.14745911 41 128 C40.46246094 128.65742188 39.92492187 129.31484375 39.37109375 129.9921875 C36.90686223 132.99044308 34.80126244 135.14101605 31.5 137.1875 C28.72885701 139.65777961 28.72885701 139.65777961 29.06591797 142.28442383 C29.24783691 143.20763428 29.42975586 144.13084473 29.6171875 145.08203125 C29.8224707 146.15364502 30.02775391 147.22525879 30.23925781 148.3293457 C30.49030273 149.54066162 30.74134766 150.75197754 31 152 C31.2772714 153.36738033 31.55427914 154.73481414 31.83105469 156.10229492 C32.9028528 161.3503165 34.00837939 166.59115932 35.11914062 171.83105469 C35.59586681 174.08458302 36.06772898 176.33908859 36.5390625 178.59375 C36.68590485 179.2791687 36.83274719 179.9645874 36.98403931 180.67077637 C37.65545295 183.89335953 38 186.68395316 38 190 C34.38617054 188.39004754 31.46936816 186.2021408 28.375 183.75 C26.93253906 182.62851562 26.93253906 182.62851562 25.4609375 181.484375 C21.01411586 176.99520267 20.32692417 170.47551664 18.984375 164.4609375 C18.80489319 163.65766022 18.62541138 162.85438293 18.44049072 162.02676392 C18.06543469 160.33794452 17.69240135 158.64867478 17.32128906 156.95898438 C16.93933882 155.23139406 16.55127859 153.50514366 16.15722656 151.78027344 C15.58626229 149.28076094 15.03333248 146.77786324 14.484375 144.2734375 C14.3053363 143.50357513 14.12629761 142.73371277 13.9418335 141.94052124 C12.80344534 136.60526747 12.80344534 136.60526747 13.77807617 133.60400391 C15.46193244 131.39362715 17.42127717 129.76927332 19.5625 128 C29.05897298 119.61350439 35.45287654 109.78409459 40 98 C40.51300659 96.71561035 40.51300659 96.71561035 41.03637695 95.40527344 C43.94094464 87.58473625 44.66702384 80.55764629 44.5625 72.25 C44.55226807 71.02079834 44.54203613 69.79159668 44.53149414 68.52514648 C44.30539278 58.81559814 43.01508774 50.86792915 39 42 C38.50371094 40.88109375 38.00742187 39.7621875 37.49609375 38.609375 C29.71898774 22.79280278 17.09516375 10.65670132 1.80078125 2.09375 C1.20652344 1.7328125 0.61226563 1.371875 0 1 C0 0.67 0 0.34 0 0 Z " fill="#43F043" transform="translate(441,311)"/>
<path d="M0 0 C17.16 0 34.32 0 52 0 C52 15.51 52 31.02 52 47 C46.39 47.66 40.78 48.32 35 49 C31.54630081 49.75564807 28.24979614 50.51964549 24.875 51.5 C24.10414063 51.71269531 23.33328125 51.92539062 22.5390625 52.14453125 C20.35536869 52.74987494 18.17721829 53.37181899 16 54 C14.64849222 54.38560852 13.29693426 54.77104119 11.9453125 55.15625 C10.97335938 55.4346875 10.00140625 55.713125 9 56 C6.1706667 48.02368803 4.3126196 40.06490874 2.8125 31.75 C2.64588867 30.82815918 2.47927734 29.90631836 2.30761719 28.95654297 C0.58876386 19.11813714 0 10.11678552 0 0 Z " fill="#77E9FE" transform="translate(197,263)"/>
<path d="M0 0 C2.09736236 5.93682495 3.79136202 11.834071 5.0625 18 C5.31628418 19.22396484 5.31628418 19.22396484 5.57519531 20.47265625 C7.96103893 32.36969534 9 43.81843496 9 56 C-8.16 56 -25.32 56 -43 56 C-43 40.49 -43 24.98 -43 9 C-39.019375 8.443125 -35.03875 7.88625 -30.9375 7.3125 C-21.77128633 5.967069 -13.22947608 4.2229387 -4.5625 0.953125 C-2 0 -2 0 0 0 Z " fill="#77E9FE" transform="translate(306,193)"/>
<path d="M0 0 C0.53625 0.17015625 1.0725 0.3403125 1.625 0.515625 C6.90458647 2.14812871 12.21906257 3.65367911 17.5625 5.0625 C18.76003906 5.38347656 19.95757812 5.70445312 21.19140625 6.03515625 C28.38443926 7.47843745 35.71384859 8.14280572 43 9 C43 24.51 43 40.02 43 56 C25.84 56 8.68 56 -9 56 C-9 46.96973284 -8.6864532 38.91426908 -7.25 30.125 C-7.07170654 28.99964844 -6.89341309 27.87429687 -6.7097168 26.71484375 C-3.45918977 6.91837954 -3.45918977 6.91837954 0 0 Z " fill="#77E9FE" transform="translate(206,193)"/>
<path d="M0 0 C17.16 0 34.32 0 52 0 C50.82433234 22.33768554 50.82433234 22.33768554 49.75 29.125 C49.6264917 29.93485352 49.5029834 30.74470703 49.37573242 31.57910156 C48.0051302 39.94115955 45.63496536 47.95971044 43 56 C38.69251694 55.25447409 34.66023459 53.95530757 30.5 52.625 C19.2183242 49.29067025 19.2183242 49.29067025 0 47 C0 31.49 0 15.98 0 0 Z " fill="#77E9FE" transform="translate(263,263)"/>
<path d="M0 0 C1.00797134 -0.0112793 2.01594269 -0.02255859 3.05445862 -0.03417969 C4.15431091 -0.02608276 5.25416321 -0.01798584 6.38734436 -0.00964355 C7.55032547 -0.01665283 8.71330658 -0.02366211 9.91152954 -0.03088379 C13.7618639 -0.04851112 17.61146521 -0.03682259 21.46180725 -0.02331543 C24.13455115 -0.02600915 26.80727268 -0.02988432 29.48001099 -0.03491211 C35.08461975 -0.04218789 40.68901763 -0.03260391 46.29359436 -0.0135498 C52.76823881 0.00820848 59.24237921 0.00117537 65.71701139 -0.02085543 C71.27980065 -0.0390243 76.8424384 -0.04156025 82.40524775 -0.03110075 C85.72595119 -0.02487249 89.04636656 -0.02558733 92.36706352 -0.0372467 C96.07078576 -0.0473956 99.77353817 -0.03193184 103.47718811 -0.00964355 C104.57501617 -0.01774048 105.67284424 -0.0258374 106.80393982 -0.03417969 C114.2036395 0.04839267 114.2036395 0.04839267 118.18179321 2.3527832 C119.9969635 4.50793457 119.9969635 4.50793457 120.5594635 7.50793457 C119.87046892 11.18257236 118.87354853 12.18483284 115.9969635 14.50793457 C113.60783291 15.00850582 113.60783291 15.00850582 110.90454102 15.00914001 C109.36300606 15.02389122 109.36300606 15.02389122 107.79032898 15.03894043 C106.66863312 15.02927246 105.54693726 15.01960449 104.39125061 15.00964355 C102.61269936 15.01774803 102.61269936 15.01774803 100.79821777 15.02601624 C97.55018789 15.03637883 94.30281977 15.02880348 91.05483317 15.01230502 C87.65562069 14.99844937 84.25643879 15.00491506 80.85720825 15.00843811 C75.1500444 15.01113948 69.44309096 14.99766993 63.73597717 14.9744873 C57.13639145 14.94786509 50.53715722 14.94613467 43.93753618 14.95787567 C37.58899367 14.96865109 31.24057838 14.96246912 24.89204597 14.94832039 C22.18993182 14.94255976 19.48791074 14.94264379 16.78579521 14.94738579 C13.01473947 14.95028602 9.24426436 14.93384738 5.47328186 14.9119873 C3.78770172 14.91873978 3.78770172 14.91873978 2.06806946 14.92562866 C1.04319931 14.91572403 0.01832916 14.9058194 -1.03759766 14.89561462 C-1.92930696 14.89318473 -2.82101625 14.89075483 -3.73974705 14.8882513 C-6.49465263 14.42532479 -7.38280729 13.75869314 -9.0030365 11.50793457 C-9.4405365 8.07043457 -9.4405365 8.07043457 -9.0030365 4.50793457 C-6.23751009 0.97426508 -4.45293271 0.00767711 0 0 Z " fill="#2BBA35" transform="translate(352.00303649902344,393.4920654296875)"/>
<path d="M0 0 C1.16485931 -0.00960754 2.32971863 -0.01921509 3.52987671 -0.02911377 C4.78926056 -0.03336365 6.04864441 -0.03761353 7.34619141 -0.04199219 C8.63965485 -0.04769226 9.93311829 -0.05339233 11.26577759 -0.05926514 C14.00450025 -0.06976392 16.74319365 -0.07561394 19.48193359 -0.07910156 C22.98465914 -0.08458457 26.48699563 -0.1086126 29.98959923 -0.13707352 C33.33762246 -0.16021976 36.68559231 -0.1621507 40.03369141 -0.16699219 C41.28902679 -0.17933899 42.54436218 -0.19168579 43.83773804 -0.20440674 C45.00890167 -0.20140564 46.18006531 -0.19840454 47.38671875 -0.1953125 C48.41469574 -0.19895813 49.44267273 -0.20260376 50.50180054 -0.20635986 C54.07186063 0.25872083 56.75973874 1.59811765 59.32275391 4.16113281 C59.79952631 11.55110507 59.79952631 11.55110507 58.06665039 13.76831055 C55.8981915 15.50022402 54.83685078 15.51249658 52.09228516 15.45410156 C51.28984375 15.44443359 50.48740234 15.43476563 49.66064453 15.42480469 C48.82726562 15.39966797 47.99388672 15.37453125 47.13525391 15.34863281 C46.29027344 15.33509766 45.44529297 15.3215625 44.57470703 15.30761719 C42.49045006 15.2722908 40.40652114 15.2184842 38.32275391 15.16113281 C38.30857422 15.80099121 38.29439453 16.44084961 38.27978516 17.10009766 C38.12626409 21.30821976 37.63622122 23.70937109 35.19775391 27.22363281 C30.11731855 30.81347589 22.17297127 29.93174322 16.32275391 29.16113281 C11.75466335 26.99598304 10.12518668 24.90437694 8.32275391 20.16113281 C8.27687758 18.49509766 8.2691094 16.82693594 8.32275391 15.16113281 C7.13037109 15.18433594 5.93798828 15.20753906 4.70947266 15.23144531 C3.14307267 15.25020459 1.57666591 15.26840462 0.01025391 15.28613281 C-0.77542969 15.30289063 -1.56111328 15.31964844 -2.37060547 15.33691406 C-3.12792969 15.34335938 -3.88525391 15.34980469 -4.66552734 15.35644531 C-5.71027222 15.37215576 -5.71027222 15.37215576 -6.77612305 15.38818359 C-8.67724609 15.16113281 -8.67724609 15.16113281 -11.67724609 13.16113281 C-12.3971789 10.18541056 -12.88342894 8.13605667 -12.67724609 5.16113281 C-9.2550153 0.39445421 -5.56845332 0.03704398 0 0 Z " fill="#8F9BD0" transform="translate(66.67724609375,214.8388671875)"/>
<path d="M0 0 C7.59 0 15.18 0 23 0 C23 9.22306732 21.92212693 17.11689939 20 26 C19.80664062 26.91394531 19.61328125 27.82789063 19.4140625 28.76953125 C15.99472266 42.86875721 9.89732703 56.85785969 2 69 C-2.29183459 67.35442612 -6.04580299 65.32599824 -10 63 C-9.58063145 57.86273522 -8.54187081 53.20904784 -7.125 48.25 C-2.74250334 32.55500968 -1.50134488 16.16832944 0 0 Z " fill="#76E9FE" transform="translate(329,263)"/>
<path d="M0 0 C12.70591418 20.41056426 22.48786212 44.59906116 21 69 C13.41 69 5.82 69 -2 69 C-2.268125 66.133125 -2.53625 63.26625 -2.8125 60.3125 C-4.3158776 45.17724601 -5.92820786 30.27781411 -10.37426758 15.68310547 C-11.41937216 12.25119178 -12 9.62959154 -12 6 C-9.8828125 4.296875 -9.8828125 4.296875 -7.125 2.75 C-5.76761719 1.96882812 -5.76761719 1.96882812 -4.3828125 1.171875 C-2 0 -2 0 0 0 Z " fill="#76E9FE" transform="translate(331,180)"/>
<path d="M0 0 C0.85086685 -0.00700928 1.7017337 -0.01401855 2.5783844 -0.02124023 C5.38990965 -0.03883937 8.20042747 -0.02718979 11.01196289 -0.01367188 C12.96725152 -0.01636649 14.92253884 -0.02024866 16.87782288 -0.02526855 C20.97597002 -0.03116641 25.0737684 -0.02259227 29.171875 -0.00390625 C34.42232796 0.01886832 39.67196238 0.00577142 44.92238522 -0.01819611 C48.9604762 -0.03265914 52.99837356 -0.02804549 57.03647041 -0.01768494 C58.97214416 -0.01501827 60.90783554 -0.01828529 62.84348869 -0.02760315 C65.55107962 -0.03777534 68.25735097 -0.02225797 70.96484375 0 C71.76344818 -0.00809692 72.56205261 -0.01619385 73.38485718 -0.02453613 C77.11254626 0.03216453 79.34469158 0.39314665 82.5483551 2.36242676 C84.54711914 4.51757812 84.54711914 4.51757812 85.10961914 7.51757812 C84.40202677 11.29140412 83.63278102 12.24776936 80.54711914 14.51757812 C77.53471002 14.90695406 74.88988606 15.05468047 71.87890625 15.01928711 C70.56852638 15.02739159 70.56852638 15.02739159 69.23167419 15.03565979 C66.34559194 15.04816201 63.46050423 15.03164754 60.57446289 15.01367188 C58.56954394 15.01382681 56.56462469 15.01531495 54.55970764 15.01808167 C50.35900626 15.01946628 46.15864606 15.0068959 41.95800781 14.98413086 C36.56846153 14.95572786 31.17948145 14.95848773 25.78989315 14.97122097 C21.65067186 14.97816886 17.51158192 14.97039935 13.3723774 14.95796394 C11.38481716 14.95344208 9.39724286 14.95311904 7.40968132 14.95702934 C4.63480487 14.9599333 1.8607147 14.94347445 -0.9140625 14.92163086 C-2.15080719 14.92838333 -2.15080719 14.92838333 -3.41253662 14.93527222 C-9.00387727 14.86198091 -9.00387727 14.86198091 -11.1599493 13.20819187 C-13.33168304 10.36847241 -12.87436343 7.9496505 -12.45288086 4.51757812 C-9.19540548 -0.24205427 -5.32611035 -0.05386406 0 0 Z " fill="#2BBA35" transform="translate(371.452880859375,419.482421875)"/>
<path d="M0 0 C0.85086685 -0.00700928 1.7017337 -0.01401855 2.5783844 -0.02124023 C5.38990965 -0.03883937 8.20042747 -0.02718979 11.01196289 -0.01367188 C12.96725152 -0.01636649 14.92253884 -0.02024866 16.87782288 -0.02526855 C20.97597002 -0.03116641 25.0737684 -0.02259227 29.171875 -0.00390625 C34.42232796 0.01886832 39.67196238 0.00577142 44.92238522 -0.01819611 C48.9604762 -0.03265914 52.99837356 -0.02804549 57.03647041 -0.01768494 C58.97214416 -0.01501827 60.90783554 -0.01828529 62.84348869 -0.02760315 C65.55107962 -0.03777534 68.25735097 -0.02225797 70.96484375 0 C71.76344818 -0.00809692 72.56205261 -0.01619385 73.38485718 -0.02453613 C77.11254626 0.03216453 79.34469158 0.39314665 82.5483551 2.36242676 C84.54711914 4.51757812 84.54711914 4.51757812 85.10961914 7.51757812 C84.40202677 11.29140412 83.63278102 12.24776936 80.54711914 14.51757812 C77.53471002 14.90695406 74.88988606 15.05468047 71.87890625 15.01928711 C70.56852638 15.02739159 70.56852638 15.02739159 69.23167419 15.03565979 C66.34559194 15.04816201 63.46050423 15.03164754 60.57446289 15.01367188 C58.56954394 15.01382681 56.56462469 15.01531495 54.55970764 15.01808167 C50.35900626 15.01946628 46.15864606 15.0068959 41.95800781 14.98413086 C36.56846153 14.95572786 31.17948145 14.95848773 25.78989315 14.97122097 C21.65067186 14.97816886 17.51158192 14.97039935 13.3723774 14.95796394 C11.38481716 14.95344208 9.39724286 14.95311904 7.40968132 14.95702934 C4.63480487 14.9599333 1.8607147 14.94347445 -0.9140625 14.92163086 C-2.15080719 14.92838333 -2.15080719 14.92838333 -3.41253662 14.93527222 C-9.00387727 14.86198091 -9.00387727 14.86198091 -11.1599493 13.20819187 C-13.33168304 10.36847241 -12.87436343 7.9496505 -12.45288086 4.51757812 C-9.19540548 -0.24205427 -5.32611035 -0.05386406 0 0 Z " fill="#2BBA35" transform="translate(371.452880859375,341.482421875)"/>
<path d="M0 0 C4.88586661 0.55479045 7.6403419 4.54817616 10.94848633 7.92431641 C11.68905273 8.63716797 12.42961914 9.35001953 13.19262695 10.08447266 C18.45656442 15.3726679 18.45656442 15.3726679 19.27661133 19.60791016 C18.61523515 22.38649665 17.97758166 23.65631988 16.07348633 25.73681641 C14.06405591 28.37025798 13.64648183 29.03168099 13.51098633 32.48681641 C14.86233047 37.06637157 16.6449491 41.36204539 18.57739258 45.72509766 C19.63598633 48.29931641 19.63598633 48.29931641 19.63598633 50.29931641 C20.31145508 50.34830078 20.98692383 50.39728516 21.68286133 50.44775391 C22.57489258 50.52251953 23.46692383 50.59728516 24.38598633 50.67431641 C25.26770508 50.74392578 26.14942383 50.81353516 27.05786133 50.88525391 C29.65984921 51.30314893 31.41031866 51.90576773 33.63598633 53.29931641 C35.63032793 57.28799961 34.82083669 62.35165723 34.82348633 66.73681641 C34.83573242 67.79964844 34.84797852 68.86248047 34.8605957 69.95751953 C34.8625293 70.97652344 34.86446289 71.99552734 34.86645508 73.04541016 C34.87056396 73.98054443 34.87467285 74.91567871 34.87890625 75.87915039 C34.63598633 78.29931641 34.63598633 78.29931641 32.63598633 81.29931641 C30.61254883 82.02978516 30.61254883 82.02978516 28.26098633 82.48681641 C27.49012695 82.64537109 26.71926758 82.80392578 25.92504883 82.96728516 C23.63598633 83.29931641 23.63598633 83.29931641 19.63598633 83.29931641 C19.45422852 83.85619141 19.2724707 84.41306641 19.08520508 84.98681641 C18.83383789 85.74994141 18.5824707 86.51306641 18.32348633 87.29931641 C18.05407227 88.11916016 17.7846582 88.93900391 17.50708008 89.78369141 C16.71163692 92.08084565 15.81570609 94.30427881 14.88598633 96.54931641 C13.62799981 100.32327595 13.20655239 101.67808377 14.63598633 105.29931641 C15.31661133 106.26869141 15.99723633 107.23806641 16.69848633 108.23681641 C19.02130588 111.9083699 19.39522844 113.03357452 18.63598633 117.29931641 C16.44028105 120.44663489 13.80749871 123.0557981 11.07348633 125.73681641 C10.36901367 126.48125 9.66454102 127.22568359 8.9387207 127.99267578 C3.75453285 133.16730753 3.75453285 133.16730753 0.54663086 133.54589844 C-1.39135742 133.27197266 -1.39135742 133.27197266 -4.36401367 132.29931641 C-4.36401367 129.29931641 -4.36401367 129.29931641 -3.07885742 127.67358398 C-2.19907227 126.8173645 -2.19907227 126.8173645 -1.30151367 125.94384766 C-0.66987305 125.321875 -0.03823242 124.69990234 0.61254883 124.05908203 C1.2802832 123.41648437 1.94801758 122.77388672 2.63598633 122.11181641 C3.3037207 121.45761719 3.97145508 120.80341797 4.65942383 120.12939453 C6.31177074 118.51245505 7.97070234 116.90291149 9.63598633 115.29931641 C9.27166504 114.65696045 8.90734375 114.01460449 8.53198242 113.3527832 C7.20511986 111.01331501 5.88563326 108.68121919 4.63598633 106.29931641 C4.18610352 105.55423828 3.7362207 104.80916016 3.27270508 104.04150391 C2.26797392 99.71437955 4.06929719 96.56628868 5.82348633 92.61181641 C6.14124023 91.8403125 6.45899414 91.06880859 6.78637695 90.27392578 C9.21935782 84.57706875 9.21935782 84.57706875 12.63598633 82.29931641 C16.26598633 81.63931641 19.89598633 80.97931641 23.63598633 80.29931641 C23.63598633 71.38931641 23.63598633 62.47931641 23.63598633 53.29931641 C17.20098633 51.81431641 17.20098633 51.81431641 10.63598633 50.29931641 C8.12426758 47.40869141 8.12426758 47.40869141 6.94848633 44.04931641 C6.52825195 42.88142578 6.10801758 41.71353516 5.67504883 40.51025391 C5.3321582 39.45064453 4.98926758 38.39103516 4.63598633 37.29931641 C4.12165039 36.29771484 4.12165039 36.29771484 3.59692383 35.27587891 C2.82348633 33.67431641 2.82348633 33.67431641 2.63598633 30.29931641 C4.62531691 26.36891393 7.01546077 22.83383015 9.63598633 19.29931641 C4.93831658 13.6380221 -0.11124739 8.44702737 -5.36401367 3.29931641 C-3.63576441 1.1162647 -2.81114429 0.35592925 0 0 Z " fill="#6E5A54" transform="translate(140.364013671875,352.70068359375)"/>
<path d="M0 0 C4.61837711 1.56153013 7.23395158 4.33927143 10.58203125 7.79296875 C11.53045898 8.71239258 11.53045898 8.71239258 12.49804688 9.65039062 C15.28449217 12.46670136 17.06232498 14.52041576 18.3984375 18.29296875 C18.2366735 21.82236517 17.22043099 22.82150516 14.89453125 25.41796875 C13.0678283 28.128962 12.03892908 29.89961155 12.66796875 33.18896484 C13.98023464 37.12322592 15.70701141 40.82163505 17.52734375 44.54296875 C19.26953125 48.10546875 19.26953125 48.10546875 19.26953125 50.10546875 C19.86121094 50.15445313 20.45289063 50.2034375 21.0625 50.25390625 C21.85269531 50.32867187 22.64289063 50.4034375 23.45703125 50.48046875 C24.23433594 50.55007812 25.01164062 50.6196875 25.8125 50.69140625 C28.26953125 51.10546875 28.26953125 51.10546875 33.26953125 53.10546875 C33.26953125 62.01546875 33.26953125 70.92546875 33.26953125 80.10546875 C23.14453125 83.48046875 23.14453125 83.48046875 19.26953125 83.10546875 C19.099375 83.62753906 18.92921875 84.14960937 18.75390625 84.6875 C18.5115625 85.42355469 18.26921875 86.15960938 18.01953125 86.91796875 C17.62701172 88.14966797 17.62701172 88.14966797 17.2265625 89.40625 C16.26953125 92.10546875 16.26953125 92.10546875 14.96875 94.8359375 C13.68208036 97.66023711 12.70856307 100.02781134 12.26953125 103.10546875 C13.45053749 105.8597288 14.84809968 107.78444047 16.81640625 110.03515625 C18.66519051 112.66917683 18.62828231 113.93433398 18.26953125 117.10546875 C16.14946721 120.24863515 13.34751645 122.76942196 10.64453125 125.41796875 C9.57525391 126.52881836 9.57525391 126.52881836 8.484375 127.66210938 C3.19957516 132.92266702 3.19957516 132.92266702 -1.12890625 133.7734375 C-3.73046875 133.10546875 -3.73046875 133.10546875 -5.73046875 130.10546875 C-0.78046875 125.15546875 4.16953125 120.20546875 9.26953125 115.10546875 C5.25394862 106.90673871 5.25394862 106.90673871 2.26953125 104.10546875 C2.63109138 99.34956246 4.20997509 95.23944503 6.01953125 90.85546875 C6.509375 89.6334375 6.99921875 88.41140625 7.50390625 87.15234375 C9.26953125 84.10546875 9.26953125 84.10546875 11.41015625 82.80859375 C15.34737878 81.84042428 19.3115684 80.98501605 23.26953125 80.10546875 C23.26953125 71.19546875 23.26953125 62.28546875 23.26953125 53.10546875 C16.83453125 51.62046875 16.83453125 51.62046875 10.26953125 50.10546875 C7.71886466 46.38149553 6.59049897 44.20865168 5.26953125 40.10546875 C4.87507813 39.28304687 4.480625 38.460625 4.07421875 37.61328125 C2.91482753 34.92521124 2.30034749 33.04181635 2.26953125 30.10546875 C4.09997085 26.02457367 6.48942142 22.59553503 9.26953125 19.10546875 C4.5718615 13.44417444 -0.47770247 8.25317971 -5.73046875 3.10546875 C-3.92602811 0.5993012 -3.13918901 0.12125623 0 0 Z " fill="#6E5B55" transform="translate(467.73046875,25.89453125)"/>
<path d="M0 0 C0.73528427 -0.00686325 1.47056854 -0.0137265 2.22813416 -0.02079773 C4.66017943 -0.03910808 7.09158219 -0.03522229 9.52368164 -0.02954102 C11.21375235 -0.03410097 12.90382119 -0.03940598 14.59388733 -0.04542542 C18.13721241 -0.05436494 21.68031222 -0.05192411 25.22363281 -0.04199219 C29.76462865 -0.03050423 34.30484669 -0.05070656 38.84574032 -0.07990932 C42.33648113 -0.09825573 45.82703504 -0.09798197 49.31781197 -0.0922718 C50.99196018 -0.09211838 52.66612089 -0.09818003 54.34022331 -0.11056328 C56.68173873 -0.12544184 59.02181101 -0.11482084 61.36328125 -0.09765625 C62.05484314 -0.10732422 62.74640503 -0.11699219 63.45892334 -0.12695312 C66.76179628 -0.07625232 68.49691533 0.21771639 71.17262268 2.21665955 C73.49188044 5.44032327 73.36761348 7.53833796 72.74633789 11.40405273 C70.00563837 14.28353636 68.32467934 15.31591075 64.36938477 15.91871643 C62.43675781 15.9280143 62.43675781 15.9280143 60.46508789 15.9375 C59.39339355 15.95042336 59.39339355 15.95042336 58.30004883 15.96360779 C55.94843884 15.98623156 53.59802394 15.97953681 51.24633789 15.97045898 C49.60636034 15.97569591 47.96638581 15.98197264 46.32641602 15.98924255 C42.89332888 15.99963983 39.46065641 15.99509478 36.02758789 15.98046875 C31.63228774 15.96327417 27.23829405 15.98678672 22.84313965 16.02195835 C19.45783865 16.04393777 16.07285008 16.0424898 12.6875 16.03419304 C11.06720547 16.03337395 9.4468879 16.04022936 7.82666016 16.05496407 C5.55948977 16.07242343 3.2946647 16.05786089 1.02758789 16.03515625 C-0.26083008 16.03419449 -1.54924805 16.03323273 -2.87670898 16.03224182 C-7.14077717 15.23902942 -8.65413083 13.81995275 -11.25366211 10.40405273 C-11.25366211 6.96298665 -11.0573489 4.62549877 -9.14451599 1.71836853 C-6.27667601 -0.27504165 -3.36981884 -0.02187146 0 0 Z " fill="#8E9AD0" transform="translate(59.253662109375,191.595947265625)"/>
<path d="M0 0 C7.74648003 2.58216001 11.27233774 4.01396732 17 9 C17.64710938 9.55300781 18.29421875 10.10601562 18.9609375 10.67578125 C25.75901871 16.94989968 36.51369272 29.756581 37.1484375 39.2109375 C35.20604385 42.23684325 31.92203414 42.71311792 28.625 43.625 C27.89982178 43.83664795 27.17464355 44.0482959 26.42749023 44.26635742 C17.37419355 46.84570992 9.49630169 48 0 48 C0 32.16 0 16.32 0 0 Z " fill="#77E9FE" transform="translate(263,140)"/>
<path d="M0 0 C13.51927104 0 24.69045363 2.74820365 37 8 C35.12439854 21.56009162 23.11084945 34.26371369 12.875 42.5625 C9 45 9 45 0 48 C0 32.16 0 16.32 0 0 Z " fill="#77E9FE" transform="translate(263,324)"/>
<path d="M0 0 C0 15.84 0 31.68 0 48 C-11.50093645 45.69981271 -20.2578549 37.55043389 -27.0078125 28.2265625 C-28.75566577 25.52533472 -30.39472107 22.78790214 -32 20 C-32.51949219 19.15695312 -33.03898438 18.31390625 -33.57421875 17.4453125 C-36.97281521 11.76546636 -36.97281521 11.76546636 -37.07421875 8.91015625 C-35.29797223 5.75166699 -32.10988903 5.30241439 -28.8125 4.375 C-28.09723145 4.16335205 -27.38196289 3.9517041 -26.64501953 3.73364258 C-17.85673577 1.23725771 -9.14997564 0 0 0 Z " fill="#77E9FE" transform="translate(249,324)"/>
<path d="M0 0 C0 15.84 0 31.68 0 48 C-16.22835991 46.84083144 -16.22835991 46.84083144 -23 45.125 C-23.69738281 44.96386719 -24.39476562 44.80273438 -25.11328125 44.63671875 C-29.40530333 43.59402412 -33.12891748 42.11699825 -37 40 C-36.43121992 35.33422593 -34.40261329 31.76051028 -32 27.8125 C-31.59990723 27.15193604 -31.19981445 26.49137207 -30.78759766 25.81079102 C-24.68588602 16.0067698 -13.00876208 0 0 0 Z " fill="#77E9FE" transform="translate(249,140)"/>
<path d="M0 0 C0.64604187 -0.00861557 1.29208374 -0.01723114 1.95770264 -0.02610779 C4.08752827 -0.0487603 6.21603718 -0.04203109 8.34594727 -0.03295898 C9.8304127 -0.03819534 11.3148748 -0.04447186 12.79933167 -0.05174255 C15.90886096 -0.0621456 19.01793261 -0.05758775 22.12744141 -0.04296875 C26.10692953 -0.02578862 30.08497273 -0.04926478 34.06429958 -0.08445835 C37.12963885 -0.10645047 40.19463339 -0.10498656 43.26002693 -0.09669304 C44.72681322 -0.09587433 46.19362502 -0.10272246 47.66033745 -0.11746407 C49.71455742 -0.13494438 51.76619506 -0.1203453 53.8203125 -0.09765625 C55.57093239 -0.09621361 55.57093239 -0.09621361 57.35691833 -0.09474182 C61.40839686 0.72153384 62.91128221 2.36327342 65.47485352 5.53344727 C66.03735352 8.09594727 66.03735352 8.09594727 65.47485352 10.53344727 C63.24552584 13.46327204 62.07220115 14.43625211 58.39451599 15.03465271 C56.5827462 15.03490196 56.5827462 15.03490196 54.734375 15.03515625 C54.0656134 15.04055923 53.39685181 15.04596222 52.70782471 15.05152893 C50.50341154 15.06400832 48.30030639 15.04753431 46.09594727 15.02954102 C44.56185335 15.02969601 43.02775903 15.03118499 41.4936676 15.03395081 C38.28157196 15.03533437 35.06992309 15.0227831 31.85791016 15 C27.73952733 14.97159104 23.6218854 14.9743595 19.50344753 14.98709011 C16.3369971 14.99404221 13.17071816 14.98626389 10.00428963 14.97383308 C8.48563354 14.96931566 6.96695907 14.96898433 5.44830132 14.97289848 C3.32712879 14.97580685 1.20698061 14.95932466 -0.9140625 14.9375 C-2.12111343 14.93209702 -3.32816437 14.92669403 -4.5717926 14.92112732 C-7.52514648 14.53344727 -7.52514648 14.53344727 -9.41099548 13.22303772 C-11.32404368 10.32193368 -10.93698866 7.88701927 -10.52514648 4.53344727 C-7.44348687 0.36757259 -5.04986931 0.02683909 0 0 Z " fill="#2BBA35" transform="translate(353.525146484375,367.466552734375)"/>
<path d="M0 0 C3.63 0 7.26 0 11 0 C11 19.47 11 38.94 11 59 C7.37 59 3.74 59 0 59 C0 39.53 0 20.06 0 0 Z " fill="#FEE985" transform="translate(85,124)"/>
<path d="M0 0 C1.10572105 -0.00786278 1.10572105 -0.00786278 2.23377991 -0.0158844 C3.78954817 -0.02229444 5.34536496 -0.02098072 6.90112305 -0.01245117 C9.27415825 -0.00394567 11.64478089 -0.03270426 14.01757812 -0.06445312 C15.53255137 -0.06606551 17.04752885 -0.06548689 18.5625 -0.0625 C19.62053078 -0.07935097 19.62053078 -0.07935097 20.69993591 -0.09654236 C24.25991253 -0.04650474 26.25426291 0.37525864 29.29907227 2.27709961 C31.34765625 4.43359375 31.34765625 4.43359375 31.91015625 7.43359375 C31.2056137 11.19115401 30.40242446 12.15811237 27.34765625 14.43359375 C24.49444443 14.8193151 22.03604987 14.97193804 19.1875 14.9296875 C18.40121719 14.93114273 17.61493439 14.93259796 16.80482483 14.93409729 C15.14645676 14.93244058 13.48807296 14.92090464 11.82983398 14.90014648 C9.29019015 14.87115122 6.75262933 14.87954878 4.21289062 14.89257812 C2.60025027 14.88634159 0.9876165 14.8779513 -0.625 14.8671875 C-1.38442398 14.87012314 -2.14384796 14.87305878 -2.92628479 14.87608337 C-8.16273211 14.78221806 -8.16273211 14.78221806 -10.62695312 13.02758789 C-11.90066028 11.04757979 -12.08539875 9.78055372 -12.08984375 7.43359375 C-12.10917969 6.75296875 -12.12851562 6.07234375 -12.1484375 5.37109375 C-11.65234375 3.43359375 -11.65234375 3.43359375 -10.09960938 1.83959961 C-6.77460373 -0.07068645 -3.73260949 -0.01549043 0 0 Z " fill="#2BBA35" transform="translate(440.65234375,367.56640625)"/>
<path d="M0 0 C-3.83789289 2.55859526 -7.92547586 4.39595016 -12.08984375 6.3671875 C-14.93500019 7.96353031 -16.75129685 9.67583702 -19 12 C-19.66 12 -20.32 12 -21 12 C-21.268125 12.55945312 -21.53625 13.11890625 -21.8125 13.6953125 C-23.53547501 17.03924427 -25.56522418 20.18153257 -27.5625 23.3671875 C-32.54412594 32.49114371 -32.4161904 43.73582758 -30.16015625 53.71484375 C-26.12715179 65.13490016 -19.69923183 72.85165484 -9.0546875 78.59375 C-4.81237684 80.54673189 -0.54470119 81.94426189 4 83 C4 83.33 4 83.66 4 84 C-9.87636453 83.47238158 -19.5837572 78.80185938 -29.1875 68.875 C-37.8505028 58.84774479 -39.90356994 46.80269515 -39 34 C-36.44388906 22.34413411 -29.52222951 12.99312535 -20 6 C-13.2953604 2.03234984 -7.82512747 -0.17784381 0 0 Z " fill="#735F59" transform="translate(410,51)"/>
<path d="M0 0 C-3.81285765 2.5419051 -7.86347203 4.39078485 -11.9921875 6.3671875 C-20.92374188 11.21574559 -26.65638712 19.52643018 -30 29 C-32.84283964 40.74907851 -31.25403831 52.91903875 -25.59375 63.515625 C-20.51730737 71.42890322 -14.07035787 75.96809352 -5.6015625 79.80859375 C-3 81 -3 81 0 83 C-10.2781045 83.16240797 -19.46135539 78.65090018 -26.9375 71.6875 C-35.89249933 61.73256278 -39.67901643 50.74415871 -39.34765625 37.4609375 C-38.13277319 25.36670839 -31.55083323 15.51517335 -22.44140625 7.79296875 C-15.43835085 2.64992487 -8.68259717 -0.19733175 0 0 Z " fill="#735F59" transform="translate(83,378)"/>
<path d="M0 0 C2.84451696 1.98254212 5.43783701 4.1707456 8.0625 6.4375 C7.0625 8.4375 7.0625 8.4375 4.5625 9.2890625 C-19.3969758 14.5836788 -42.47378743 11.66793508 -64.9375 2.4375 C-60.99186939 0.94429142 -57.89718442 1.95435759 -53.875 2.875 C-37.05881676 6.32477199 -13.86979913 -4.02671588 0 0 Z " fill="#46F046" transform="translate(427.9375,459.5625)"/>
<path d="M0 0 C-0.6290625 0.83660156 -1.258125 1.67320312 -1.90625 2.53515625 C-8.14644244 10.97373739 -13.2984232 19.62311219 -18 29 C-19.91847937 27.8989859 -21.83471354 26.79405904 -23.75 25.6875 C-25.35101563 24.76517578 -25.35101563 24.76517578 -26.984375 23.82421875 C-29.45605163 22.32904649 -31.73560384 20.78623484 -34 19 C-32.50039815 14.76863937 -29.46487779 12.95675527 -25.8125 10.6875 C-25.20043701 10.30158691 -24.58837402 9.91567383 -23.95776367 9.51806641 C-19.37382724 6.69602064 -14.67018286 4.19144752 -9.8125 1.875 C-9.17739502 1.56780029 -8.54229004 1.26060059 -7.88793945 0.9440918 C-3.37162614 -1.12387538 -3.37162614 -1.12387538 0 0 Z " fill="#75E7FE" transform="translate(217,145)"/>
<path d="M0 0 C1.96136683 2.61515577 3.5142393 4.76809375 5.015625 7.57421875 C5.37664307 8.23808594 5.73766113 8.90195312 6.10961914 9.5859375 C6.48594482 10.27945312 6.86227051 10.97296875 7.25 11.6875 C10.67421418 17.90539335 14.34385795 23.61025358 19 29 C14.67485752 30.44171416 11.95133878 28.45237122 8.0625 26.5625 C7.30702881 26.19995117 6.55155762 25.83740234 5.77319336 25.46386719 C-11.51320615 16.97358769 -11.51320615 16.97358769 -15 10 C-10.05 6.7 -5.1 3.4 0 0 Z " fill="#75E7FE" transform="translate(198,338)"/>
<path d="M0 0 C9.9 0 19.8 0 30 0 C29 9 29 9 26.875 12.0625 C21.79456464 15.65234308 13.85021737 14.77061041 8 14 C3.43190944 11.83485023 1.80243277 9.74324413 0 5 C0 3.35 0 1.7 0 0 Z " fill="#5B669D" transform="translate(75,230)"/>
<path d="M0 0 C1.70294787 1.28667172 3.37946188 2.61096733 5 4 C2.81353696 4.7945261 0.62577779 5.5854858 -1.5625 6.375 C-3.38974609 7.03628906 -3.38974609 7.03628906 -5.25390625 7.7109375 C-8.81766039 8.9372554 -12.36847363 9.99981127 -16 11 C-16.04898437 11.67546875 -16.09796875 12.3509375 -16.1484375 13.046875 C-16.22320312 13.93890625 -16.29796875 14.8309375 -16.375 15.75 C-16.44460938 16.63171875 -16.51421875 17.5134375 -16.5859375 18.421875 C-17.00383252 21.02386288 -17.60645133 22.77433233 -19 25 C-21.70879335 26.35439668 -24.00933268 26.06501451 -27 26 C-27.15726262 23.27411455 -27.13351971 20.72046409 -27 18 C-27 17.03578125 -27 16.0715625 -27 15.078125 C-26.61669502 11.30257094 -26.08966786 9.20501206 -24 6 C-17.93014735 1.74417936 -6.95093441 -4.54389705 0 0 Z " fill="#6D5A53" transform="translate(452,149)"/>
<path d="M0 0 C2.97 0 5.94 0 9 0 C11.20399168 4.55491614 11.58846263 9.02906176 12 14 C12.53367187 14.17015625 13.06734375 14.3403125 13.6171875 14.515625 C19.5171171 16.43463324 25.26304469 18.64054239 31 21 C30 24 30 24 28.0625 25.875 C23.1912091 27.6644538 19.69086951 25.79298397 15 24 C14.01386719 23.70222656 13.02773438 23.40445313 12.01171875 23.09765625 C7.6515335 21.5672601 4.74618753 20.54740363 2.67578125 16.25390625 C1.88439984 13.16172814 1.37201282 10.16837887 1 7 C0.87496094 6.22914062 0.74992187 5.45828125 0.62109375 4.6640625 C0.37145109 3.11564599 0.17708887 1.55838208 0 0 Z " fill="#6E5A54" transform="translate(424,11)"/>
<path d="M0 0 C2.64 0 5.28 0 8 0 C11.44419134 9.41002278 11.44419134 9.41002278 11 14 C11.53367187 14.17015625 12.06734375 14.3403125 12.6171875 14.515625 C18.5171171 16.43463324 24.26304469 18.64054239 30 21 C29 24 29 24 27 25.875 C23.09463064 27.33951351 21.38321652 26.58800571 17.61328125 25.0546875 C14.94863619 23.92140007 14.94863619 23.92140007 11.85546875 23.1328125 C8.46519087 22.07514419 5.8832849 21.08531156 3 19 C0.11201303 12.9320711 -0.11994502 6.6269624 0 0 Z " fill="#6E5A54" transform="translate(98,338)"/>
<path d="M0 0 C0.99 0.66 1.98 1.32 3 2 C3 2.66 3 3.32 3 4 C0.2100561 5.17094005 -2.58178597 6.33690927 -5.375 7.5 C-6.1690625 7.83386719 -6.963125 8.16773438 -7.78125 8.51171875 C-8.54179688 8.82753906 -9.30234375 9.14335937 -10.0859375 9.46875 C-10.7876709 9.76201172 -11.4894043 10.05527344 -12.21240234 10.35742188 C-14 11 -14 11 -16 11 C-16.04898438 11.67546875 -16.09796875 12.3509375 -16.1484375 13.046875 C-16.22320312 13.93890625 -16.29796875 14.8309375 -16.375 15.75 C-16.44460937 16.63171875 -16.51421875 17.5134375 -16.5859375 18.421875 C-16.99850055 20.99066382 -17.71160957 22.75841015 -19 25 C-21.64 25 -24.28 25 -27 25 C-26.88260541 23.52021031 -26.75553868 22.04118816 -26.625 20.5625 C-26.55539063 19.73878906 -26.48578125 18.91507812 -26.4140625 18.06640625 C-26.27742188 17.05449219 -26.14078125 16.04257812 -26 15 C-25.94787354 14.2769165 -25.89574707 13.55383301 -25.84204102 12.80883789 C-25.38958923 9.23317607 -25.02464913 6.82662011 -22.13671875 4.49682617 C-19.69759785 3.23529183 -17.26782208 2.25062453 -14.6875 1.3125 C-13.40456055 0.77592773 -13.40456055 0.77592773 -12.09570312 0.22851562 C-4.37939209 -2.80182496 -4.37939209 -2.80182496 0 0 Z " fill="#6E5A54" transform="translate(125,476)"/>
<path d="M0 0 C7.47584448 -0.06960318 14.95161873 -0.12286342 22.42772198 -0.15543652 C25.8994411 -0.17107243 29.37093803 -0.19227212 32.8425293 -0.22631836 C36.83644712 -0.26524063 40.83013263 -0.27972629 44.82421875 -0.29296875 C46.06709152 -0.30845261 47.30996429 -0.32393646 48.59049988 -0.33988953 C49.75132584 -0.34011612 50.91215179 -0.34034271 52.1081543 -0.34057617 C53.63704536 -0.35056892 53.63704536 -0.35056892 55.19682312 -0.36076355 C58.75933733 0.09772528 61.44339001 1.44339001 64 4 C64.46929869 11.27412971 64.46929869 11.27412971 62.87109375 13.74609375 C60.158994 15.56359692 58.03800212 15.29154846 54.8125 15.1875 C53.72582031 15.16042969 52.63914063 15.13335937 51.51953125 15.10546875 C50.27236328 15.05326172 50.27236328 15.05326172 49 15 C49.66 14.278125 50.32 13.55625 51 12.8125 C53.16247913 10.20589787 53.16247913 10.20589787 53.4375 7.375 C52.90848761 4.50321847 52.28651364 3.77007075 50 2 C47.68482488 1.52868768 47.68482488 1.52868768 45.06958008 1.56762695 C44.06876907 1.54783279 43.06795807 1.52803864 42.03681946 1.50764465 C40.95861435 1.50125473 39.88040924 1.49486481 38.76953125 1.48828125 C37.66397385 1.47033005 36.55841644 1.45237885 35.4193573 1.43388367 C31.88377715 1.37964573 28.34833304 1.34584108 24.8125 1.3125 C22.41729872 1.27933891 20.02211543 1.2448504 17.62695312 1.20898438 C11.75142406 1.12391154 5.87587768 1.05561882 0 1 C0 0.67 0 0.34 0 0 Z " fill="#7B87C1" transform="translate(62,215)"/>
<path d="M0 0 C4.73720276 1.46166479 7.85641454 4.27494793 11.375 7.625 C11.94500732 8.15899414 12.51501465 8.69298828 13.10229492 9.24316406 C17.34500487 13.26289153 21.32181877 17.45243048 25 22 C22.10324519 24.41396234 19.40212299 26.38617243 16 28 C15.43152344 26.87722656 14.86304688 25.75445312 14.27734375 24.59765625 C10.43445472 17.11483885 6.74588403 9.97538943 1.21484375 3.56640625 C0 2 0 2 0 0 Z " fill="#74E7FE" transform="translate(297,146)"/>
<path d="M0 0 C12.63149857 2.85323262 24.2701793 9.56221511 34 18 C33 21 33 21 30.625 22.75 C28 24 28 24 25 23 C23.5625 21.50390625 23.5625 21.50390625 22 19.5625 C16.46802673 13.05360379 10.25918311 5.79064549 2 3 C1.34 2.67 0.68 2.34 0 2 C0 1.34 0 0.68 0 0 Z " fill="#2ECDFC" transform="translate(295,144)"/>
<path d="M0 0 C5.66153846 1.47692308 5.66153846 1.47692308 7.375 4.125 C7.684375 5.053125 7.684375 5.053125 8 6 C0.92582514 14.27828973 -6.25620444 21.47685093 -15 28 C-15.66 27.67 -16.32 27.34 -17 27 C-16.1646875 25.83597656 -16.1646875 25.83597656 -15.3125 24.6484375 C-9.67597982 16.70115524 -4.69559197 8.53395053 0 0 Z " fill="#74E7FE" transform="translate(313,339)"/>
<path d="M0 0 C3.46752445 0.56048348 4.88135055 1.5317726 7 4.3125 C11.7804281 11.04635176 14.31820064 18.75126022 14 27 C7.44512273 23.91535187 3.54232641 18.1079526 1.125 11.4375 C-0.0440944 7.49949781 -0.2608588 4.08678794 0 0 Z " fill="#FFE583" transform="translate(55,76)"/>
<path d="M0 0 C0.58769961 9.25626888 -1.52926954 15.35612357 -7.5625 22.4375 C-9.65481657 24.74417417 -11.37536917 26.25024612 -14 28 C-13.25083324 19.94645733 -10.42183098 0 0 0 Z " fill="#FFE683" transform="translate(125,76)"/>
<path d="M0 0 C2.475 1.485 2.475 1.485 5 3 C4.35891863 4.67667436 3.68528045 6.34089996 3 8 C2.69835937 8.93714844 2.39671875 9.87429688 2.0859375 10.83984375 C-1.06948325 15.62024709 -5.43522088 17.15225701 -10.5625 19.4375 C-11.53380859 19.89576172 -12.50511719 20.35402344 -13.50585938 20.82617188 C-18.75290929 23.24367993 -18.75290929 23.24367993 -21 24 C-21.66 23.67 -22.32 23.34 -23 23 C-22.154375 22.29875 -21.30875 21.5975 -20.4375 20.875 C-8.5637374 11.80856632 -8.5637374 11.80856632 0 0 Z " fill="#2FCEFB" transform="translate(321,343)"/>
<path d="M0 0 C9.9389332 -0.6168993 9.9389332 -0.6168993 13.6875 1.5625 C15.53692533 4.99714704 15.6171165 7.16016401 15 11 C13.1875 13.4375 13.1875 13.4375 10 15 C6.30748278 15.3163533 2.69558529 15.23299662 -1 15 C-0.360625 14.74863281 0.27875 14.49726563 0.9375 14.23828125 C3.46147761 13.04969109 3.46147761 13.04969109 4 9.1875 C4.2962723 5.72678733 4.06092803 5.09434018 2.0625 2 C1.381875 1.34 0.70125 0.68 0 0 Z " fill="#7986BF" transform="translate(117,192)"/>
<path d="M0 0 C3.3 0 6.6 0 10 0 C9.76422018 7.89862385 9.76422018 7.89862385 6.875 12.0625 C1.80785315 15.72489326 -6.04296168 14.34105181 -12 14 C-12 13.67 -12 13.34 -12 13 C-10.9275 12.79375 -9.855 12.5875 -8.75 12.375 C-4.21228829 10.71117237 -3.16414874 9.24506099 -1 5 C-0.21784412 2.2717496 -0.21784412 2.2717496 0 0 Z " fill="#495586" transform="translate(95,230)"/>
<path d="M0 0 C2.62599001 1.06290072 3.73564149 2.03503049 5.625 4.0625 C-2.0926781 9.82503298 -2.0926781 9.82503298 -6.75 10.6875 C-10.00810119 9.91176162 -10.54250079 8.75230878 -12.375 6.0625 C-4.5779703 0.08477723 -4.5779703 0.08477723 0 0 Z " fill="#6E5A54" transform="translate(378.375,148.9375)"/>
<path d="M0 0 C3.11681497 0.36177317 4.48944125 1.25259041 6.9375 3.1796875 C7.63488281 3.71335937 8.33226562 4.24703125 9.05078125 4.796875 C9.57027344 5.29445313 10.08976562 5.79203125 10.625 6.3046875 C10.625 6.9646875 10.625 7.6246875 10.625 8.3046875 C8.41175527 9.69821196 7.01328938 10.31547332 4.375 10.2421875 C0.39883154 8.88667552 -2.90356 6.63908016 -6.375 4.3046875 C-3.07586455 0.39460104 -3.07586455 0.39460104 0 0 Z " fill="#6E5B55" transform="translate(45.375,352.6953125)"/>
<path d="M0 0 C3.92963868 1.30987956 7.17257856 3.19921662 10.1875 6.0625 C10.1875 6.7225 10.1875 7.3825 10.1875 8.0625 C7.73999626 9.66279091 6.3298285 10.06566286 3.375 10 C-0.81126222 8.76874641 -3.37836486 6.74112541 -6.8125 4.0625 C-4.60316236 1.25834069 -3.65728926 0.08127309 0 0 Z " fill="#6E5B54" transform="translate(372.8125,25.9375)"/>
<path d="M0 0 C2.5625 0.9375 2.5625 0.9375 4.5625 1.9375 C3.22510679 5.94967963 1.23216239 6.87856299 -2.30078125 8.984375 C-5.38280949 10.3591737 -7.32086585 10.1247892 -10.4375 8.9375 C-11.0975 7.9475 -11.7575 6.9575 -12.4375 5.9375 C-4.58421815 -0.08334942 -4.58421815 -0.08334942 0 0 Z " fill="#6B5852" transform="translate(51.4375,476.0625)"/>
<path d="M0 0 C-2.34109882 1.56073255 -4.56333403 2.86373867 -7.0625 4.125 C-8.10083984 4.65480469 -8.10083984 4.65480469 -9.16015625 5.1953125 C-11 6 -11 6 -13 6 C-12.875 4.125 -12.875 4.125 -12 2 C-7.94298942 0.11301833 -4.43457902 -0.21117043 0 0 Z " fill="#7A6660" transform="translate(410,51)"/>
</svg>
