<?xml version="1.0" encoding="UTF-8"?>
<svg version="1.1" xmlns="http://www.w3.org/2000/svg" width="512" height="512">
<path d="M0 0 C107.58 0 215.16 0 326 0 C326 21.45 326 42.9 326 65 C299.6 65 273.2 65 246 65 C248.97 69.62 251.94 74.24 255 79 C264.22416621 94.53981155 269.61640471 110.46561886 274 128 C291.16 128.33 308.32 128.66 326 129 C326 150.45 326 171.9 326 194 C308.84 194.33 291.68 194.66 274 195 C272.02 202.425 272.02 202.425 270 210 C256.27797444 252.93558362 226.53762614 286.35525423 186.7734375 307.26171875 C157.12598609 322.22492905 127.06400376 323.10637828 94 324 C140.86 370.86 187.72 417.72 236 466 C229.24023681 473.88639039 229.24023681 473.88639039 225.80224609 477.390625 C225.03480072 478.1741333 224.26735535 478.9576416 223.47665405 479.76489258 C220.02362309 483.26281161 216.56843426 486.75848694 213.10449219 490.24560547 C211.27588776 492.09089305 209.45268268 493.94154595 207.63476562 495.79736328 C205.00539826 498.4811542 202.36027049 501.14843465 199.7109375 503.8125 C198.89732758 504.6487793 198.08371765 505.48505859 197.24545288 506.34667969 C196.48431183 507.1049707 195.72317078 507.86326172 194.93896484 508.64453125 C194.27311371 509.31846924 193.60726257 509.99240723 192.92123413 510.68676758 C191 512 191 512 189.09321284 511.76077312 C186.70689482 510.89347164 185.43459324 509.87515808 183.58736038 508.14086246 C182.92800122 507.52817857 182.26864205 506.91549467 181.5893023 506.2842446 C180.87334634 505.60457001 180.15739037 504.92489542 179.41973877 504.22462463 C178.65269678 503.50671326 177.88565479 502.78880189 177.0953691 502.04913563 C174.51605878 499.62985664 171.94774266 497.19924804 169.37988281 494.76782227 C167.53712134 493.0322397 165.694186 491.29684174 163.85108948 489.56161499 C146.92669986 473.59425402 130.19947418 457.42108433 113.52615738 441.19215488 C111.28574737 439.01252803 109.04474149 436.83351582 106.80322266 434.6550293 C106.2462397 434.11366232 105.68925674 433.57229535 105.11539552 433.01452332 C96.16518138 424.32217913 87.10145893 415.7586966 77.98584667 407.24033774 C68.58039824 398.44602726 59.31029586 389.52420062 50.14648128 380.47833294 C45.01391927 375.41873085 39.841965 370.42833014 34.50937653 365.57925606 C15.03895892 347.82484056 -1.30821559 331.47711731 -2.61125627 304.06173619 C-3.13518767 288.67282695 -1.91390625 273.2601852 0 258 C0.70321412 257.99706955 1.40642824 257.99413911 2.13095188 257.99111986 C16.2813208 257.93180968 30.43156613 257.86641959 44.5817852 257.77792263 C52.56052826 257.7282641 60.53921945 257.68277553 68.51806641 257.65356445 C74.8402634 257.63040452 81.16230961 257.59681098 87.48438656 257.55129844 C90.82397125 257.52760503 94.16327535 257.51028021 97.50295639 257.50238609 C132.20653047 257.412131 159.81717399 251.54549746 185.2734375 226.7890625 C194.36460208 217.12296261 199.91299564 206.20881047 205 194 C137.35 194 69.7 194 0 194 C0 172.55 0 151.1 0 129 C67.65 128.67 135.3 128.34 205 128 C191.1090959 100.2181918 173.71484874 80.38799481 144 70 C127.9457173 65.18409656 111.52586756 65.39585149 94.921875 65.390625 C92.17032207 65.37777837 89.41881695 65.35906778 86.66729736 65.34051514 C80.22225921 65.30035003 73.77732115 65.27970883 67.3321774 65.26654124 C59.25521147 65.24895763 51.17841825 65.2044938 43.1015625 65.16015625 C28.73438025 65.08140401 14.36743669 65.04248207 0 65 C0 43.55 0 22.1 0 0 Z " fill="#FFCE4D" transform="translate(93,0)"/>
<path d="M0 0 C53.79 0 107.58 0 163 0 C163 25.74 163 51.48 163 78 C156.73 75.36 150.46 72.72 144 70 C127.55222782 65.67849571 111.86270845 65.39595752 94.921875 65.390625 C92.17032207 65.37777837 89.41881695 65.35906778 86.66729736 65.34051514 C80.22225921 65.30035003 73.77732115 65.27970883 67.3321774 65.26654124 C59.25521147 65.24895763 51.17841825 65.2044938 43.1015625 65.16015625 C28.73438025 65.08140401 14.36743669 65.04248207 0 65 C0 43.55 0 22.1 0 0 Z " fill="#FFE04D" transform="translate(93,0)"/>
<path d="M0 0 C53.79 0 107.58 0 163 0 C163 21.45 163 42.9 163 65 C109.21 65 55.42 65 0 65 C0 43.55 0 22.1 0 0 Z " fill="#FFE14D" transform="translate(93,129)"/>
<path d="M0 0 C4.84529675 4.03884969 9.40762999 8.26710494 13.85327148 12.73974609 C14.82040825 13.70666382 14.82040825 13.70666382 15.80708313 14.69311523 C17.91413559 16.80085819 20.01763474 18.91210893 22.12109375 21.0234375 C23.59060627 22.49481727 25.06034135 23.9659748 26.5302887 25.43692017 C30.38099528 29.29142775 34.22868807 33.14892999 38.07574463 37.00708008 C42.00895449 40.95055623 45.9450298 44.89117004 49.88085938 48.83203125 C57.59003446 56.55190099 65.29602623 64.27493989 73 72 C69.69981496 75.90068681 66.38244312 79.74144402 62.80224609 83.390625 C62.03480072 84.1741333 61.26735535 84.9576416 60.47665405 85.76489258 C57.02362309 89.26281161 53.56843426 92.75848694 50.10449219 96.24560547 C48.27588776 98.09089305 46.45268268 99.94154595 44.63476562 101.79736328 C42.00539826 104.4811542 39.36027049 107.14843465 36.7109375 109.8125 C35.89732758 110.6487793 35.08371765 111.48505859 34.24545288 112.34667969 C33.48431183 113.1049707 32.72317078 113.86326172 31.93896484 114.64453125 C31.27311371 115.31846924 30.60726257 115.99240723 29.92123413 116.68676758 C28 118 28 118 26.10305786 117.93847656 C15.66484592 113.28048905 4.9052589 103.35877705 0 93 C-4.2594421 78.90061329 -2.38114727 62.73713298 -1.64794922 48.24078369 C-1.39918669 42.79171445 -1.29215659 37.33986854 -1.171875 31.88671875 C-0.91701655 21.25064645 -0.50938946 10.62671887 0 0 Z " fill="#FFC34D" transform="translate(256,394)"/>
</svg>
